<svg id="Group_1049" data-name="Group 1049" xmlns="http://www.w3.org/2000/svg" xmlns:xlink="http://www.w3.org/1999/xlink" width="60.634" height="60" viewBox="0 0 60.634 60">
  <defs>
    <clipPath id="clip-path">
      <rect id="Rectangle_762" data-name="Rectangle 762" width="60.633" height="60" fill="#3d8fa0"/>
    </clipPath>
  </defs>
  <g id="Group_629" data-name="Group 629" clip-path="url(#clip-path)">
    <path id="Path_201" data-name="Path 201" d="M19.061,36.433c1.861.828,3.731,1.688,5.624,2.495a7.452,7.452,0,0,1,4.291,4.595c.828,2.354,1.7,4.69,2.538,7.041a.623.623,0,0,0,.7.511c1.183-.032,2.368-.011,3.606-.011.273-1.629.541-3.224.808-4.817.331-1.97.647-3.942,1-5.908a3.912,3.912,0,0,1,3.862-3.267q8.059-.025,16.119,0a3,3,0,0,1,2.976,3.622q-1.2,7.108-2.395,14.216a.355.355,0,0,0,.017.111c1.795.2,1.795.2,1.795,2.056,0,.916,0,1.833,0,2.749-.006.889-.358,1.23-1.261,1.239-.52,0-1.041.006-1.561.012a.772.772,0,0,0-.176.068c0,1.3,0,2.628,0,3.954,0,.625.012,1.25,0,1.874a1.009,1.009,0,0,1-1.094,1.09c-.146.006-.291,0-.438,0H4.547c-1.28,0-1.537-.255-1.537-1.526,0-1.791,0-3.582,0-5.474-.568,0-1.119,0-1.672,0C.33,61.058.013,60.734.011,59.7q0-1.625,0-3.249c0-.917.1-1.075.968-1.469A5.537,5.537,0,0,1,0,51.381c.058-2-.093-4.015.147-5.987a8.381,8.381,0,0,1,5.3-6.958c1.636-.713,3.342-1.268,5.027-1.865.39-.138.62-.3.532-.744a.521.521,0,0,1,0-.187,1.651,1.651,0,0,0-.775-1.716,8.281,8.281,0,0,1-2.855-4.37.741.741,0,0,0-.647-.615,3.454,3.454,0,0,1-.263-6.682c.48-.135.547-.348.549-.772a32.988,32.988,0,0,1,.123-4.361,4.788,4.788,0,0,1,4.713-4.045c4-.035,8-.015,12-.01A1.013,1.013,0,0,1,25,14.221c0,4.374.093,8.751-.032,13.121a8.561,8.561,0,0,1-5.3,7.9c-.6.283-.786.577-.613,1.194M6.995,50.021h6.37c-.114-.951-.223-1.855-.339-2.824l1.969-.256c.138,1.1.258,2.147.409,3.193.036.249.1.59.28.708a5.2,5.2,0,0,1,2.352,4.171H22V54.22c0-2.665,0-5.331,0-8,0-.795.556-1.345,1.192-1.113a1.557,1.557,0,0,1,.8.774c.672,1.566,1.274,3.161,1.916,4.74.068.167.237.412.366.416,1.07.034,2.142.019,3.228.019a1.314,1.314,0,0,0-.022-.259c-.867-2.383-1.718-4.772-2.612-7.145a4.77,4.77,0,0,0-2.56-2.69c-.886-.412-1.784-.8-2.677-1.192L18.765,38.5a4.042,4.042,0,0,1-7.547-.09c-1.7.628-3.384,1.171-5,1.869a6.3,6.3,0,0,0-4.063,5.283,55.287,55.287,0,0,0-.1,6.859A2.766,2.766,0,0,0,4.3,54.949a8.287,8.287,0,0,0,1.673.109c1.66.013,3.319,0,5,0v-3c-1.6,0-3.154,0-4.712,0-.9,0-1.245-.353-1.247-1.249q-.007-2.624,0-5.247c0-.158.028-.316.043-.471h1.94ZM54.973,61.106H5.061V66.03H54.973ZM41.185,55.063H54.828c1.136,0,1.365-.213,1.549-1.326q1.085-6.557,2.189-13.111c.19-1.126-.156-1.561-1.3-1.561q-6.4,0-12.807,0h-.61c-.888,5.32-1.77,10.609-2.67,16M9.025,24.084c0,1.2-.055,2.344.01,3.484A6.991,6.991,0,0,0,23,27.126c.028-1.853.006-3.708.007-5.561V20.41c-1.881.22-3.7.426-5.509.646-1.9.231-3.628-.543-5.257-.953a15.494,15.494,0,0,1-.81,2.659,2.745,2.745,0,0,1-2.405,1.321M57.97,57.1H2.059v1.929H57.97ZM9.017,22.078a1.054,1.054,0,0,0,.989-1.1c.006-.624-.012-1.249.008-1.872a.97.97,0,0,1,1.015-1.031,5.844,5.844,0,0,1,1.427.077c1.01.226,1.991.606,3.008.777,2.554.432,5.026-.194,7.508-.665V15.145c-.049-.038-.065-.061-.081-.061-3.7,0-7.406-.039-11.108,0A2.883,2.883,0,0,0,9.03,17.825c-.058,1.391-.013,2.785-.013,4.253M39.159,55.034q1.33-7.977,2.654-15.921c-1.334-.093-2.077.6-2.306,2-.56,3.4-1.134,6.807-1.7,10.21-.2,1.225-.4,2.451-.607,3.714Zm-4.009.027c.116-.679.224-1.309.335-1.96H27.008c0,.325-.011.613,0,.9a.987.987,0,0,0,1.061,1.054c2.331.013,4.661,0,7.079,0M17,36.177l-3.987-.5c0,.473-.025.992,0,1.508A1.994,1.994,0,0,0,17,37.235c.031-.368,0-.742,0-1.058M15.981,55.04a2.864,2.864,0,0,0-2.93-2.906V55.04Zm8.228-3.488-.169.039v3.437h1.227l-1.058-3.476M6.971,26.949V24.171a1.476,1.476,0,0,0-.953,1.386,1.457,1.457,0,0,0,.953,1.392" transform="translate(0 -8.064)" fill="#3d8fa0"/>
    <path id="Path_202" data-name="Path 202" d="M93.482,0q5.839,0,11.679,0a3.024,3.024,0,0,1,3.288,3.311q0,7.682,0,15.366A3.036,3.036,0,0,1,105.108,22c-3.206,0-6.412.008-9.618-.01a.95.95,0,0,0-.877.442c-.73,1.013-1.485,2.008-2.241,3a1.021,1.021,0,0,1-1.836,0c-.756-.994-1.511-1.989-2.241-3a.947.947,0,0,0-.877-.444c-1.915.023-3.831.014-5.746.009A3.011,3.011,0,0,1,78.456,18.8Q78.45,11,78.456,3.19A3.006,3.006,0,0,1,81.678,0q5.9-.006,11.8,0M91.454,23.325c.681-.906,1.328-1.719,1.919-2.57a1.649,1.649,0,0,1,1.519-.767c3.415.027,6.831.014,10.246.011.977,0,1.31-.334,1.31-1.314q0-7.685,0-15.371c0-.98-.332-1.312-1.311-1.313Q93.455,2,81.772,2c-.985,0-1.316.329-1.317,1.305q0,7.686,0,15.371c0,.985.33,1.32,1.3,1.321,2.145,0,4.29.01,6.435-.005a1.37,1.37,0,0,1,1.218.607c.647.891,1.32,1.763,2.043,2.724" transform="translate(-48.45 0)" fill="#3d8fa0"/>
    <path id="Path_203" data-name="Path 203" d="M125.92,100.129a3,3,0,1,1,2.985-3.04,3.01,3.01,0,0,1-2.985,3.04m.983-2.982a1,1,0,1,0-.995.983,1.007,1.007,0,0,0,.995-.983" transform="translate(-75.905 -58.135)" fill="#3d8fa0"/>
    <rect id="Rectangle_757" data-name="Rectangle 757" width="1.923" height="1.927" transform="translate(13.038 16.031)" fill="#3d8fa0"/>
    <rect id="Rectangle_758" data-name="Rectangle 758" width="1.94" height="1.929" transform="translate(19.031 16.041)" fill="#3d8fa0"/>
    <rect id="Rectangle_759" data-name="Rectangle 759" width="17.94" height="1.921" transform="translate(36.031 6.034)" fill="#3d8fa0"/>
    <rect id="Rectangle_760" data-name="Rectangle 760" width="17.918" height="1.927" transform="translate(36.034 10.031)" fill="#3d8fa0"/>
    <rect id="Rectangle_761" data-name="Rectangle 761" width="17.94" height="1.922" transform="translate(36.031 14.034)" fill="#3d8fa0"/>
  </g>
</svg>
