<svg xmlns="http://www.w3.org/2000/svg" viewBox="0 0 65.45 67.47"><defs><style>.cls-1{fill:#fff;}</style></defs><g id="Layer_2" data-name="Layer 2"><g id="Layer_1-2" data-name="Layer 1"><g id="Group_433" data-name="Group 433"><g id="Group_408" data-name="Group 408"><g id="Group_407" data-name="Group 407"><path id="Path_78" data-name="Path 78" class="cls-1" d="M49.83,0H5.2S-.38,3,.05,6.11v35.7a4.82,4.82,0,0,0,3.75,5.4l.56-2.16c-1.48-.39-2.31-3.25-2.31-3.25V6.34A3.35,3.35,0,0,1,5.4,3H49.7a3.35,3.35,0,0,1,3.35,3.35V7h2V6.11C55.4,3,49.83,0,49.83,0Z"/></g></g><g id="Group_410" data-name="Group 410"><g id="Group_409" data-name="Group 409"><rect id="Rectangle_395" data-name="Rectangle 395" class="cls-1" x="4.05" y="5" width="2" height="2"/></g></g><g id="Group_412" data-name="Group 412"><g id="Group_411" data-name="Group 411"><rect id="Rectangle_396" data-name="Rectangle 396" class="cls-1" x="9.05" y="5" width="2" height="2"/></g></g><g id="Group_414" data-name="Group 414"><g id="Group_413" data-name="Group 413"><rect id="Rectangle_397" data-name="Rectangle 397" class="cls-1" x="13.05" y="5" width="2" height="2"/></g></g><g id="Group_416" data-name="Group 416"><g id="Group_415" data-name="Group 415"><path id="Path_79" data-name="Path 79" class="cls-1" d="M65.12,62.22,54.54,51.64A11.53,11.53,0,0,0,55.86,48h1.19V46h-.71a11.83,11.83,0,0,0-1.29-7.72V27h-2v7.41a13.84,13.84,0,0,0-2-2.32V23h-2v7.54a5.7,5.7,0,0,1-2-1.07V19h-3v9.79a10.29,10.29,0,0,0-2-.31V21h-2v7.48a5.66,5.66,0,0,0-2,.31V25h-3v4.47c-.5.3-1.24.65-2,1.07V24h-2v8.09c-1,.7-3,2.32-3,2.32V26h-2V38.28A38.41,38.41,0,0,0,25.46,46H11.05v2H25.94A15.48,15.48,0,0,0,44.76,59.17a15.25,15.25,0,0,0,5.11-2.36L60.2,67.15a1.13,1.13,0,0,0,1.58,0l3.34-3.35A1.11,1.11,0,0,0,65.12,62.22ZM40.9,57.43A13.39,13.39,0,1,1,54.29,44,13.39,13.39,0,0,1,40.9,57.43ZM61,64.78,51.6,55.39a14.85,14.85,0,0,0,1.68-1.86L62.76,63Z"/></g></g><g id="Group_418" data-name="Group 418"><g id="Group_417" data-name="Group 417"><path id="Path_80" data-name="Path 80" class="cls-1" d="M40.9,32.88A11.16,11.16,0,1,0,52.06,44,11.16,11.16,0,0,0,40.9,32.88Zm0,20.58A8.93,8.93,0,0,1,33.18,49H48.62A8.9,8.9,0,0,1,40.9,53.46ZM32.27,46a9,9,0,0,1,2.78-8.92V44h3V35.77a3.39,3.39,0,0,1,2-.58V44h2V35.19a6.06,6.06,0,0,1,2,.58V44h2V37.08A8.16,8.16,0,0,1,49.54,46Z"/></g></g><g id="Group_420" data-name="Group 420"><g id="Group_419" data-name="Group 419"><path id="Path_81" data-name="Path 81" class="cls-1" d="M56.52,10H11.61a5.52,5.52,0,0,0-5.56,5.48v35A5.52,5.52,0,0,0,11.61,56H26.05V54H11.4a3.35,3.35,0,0,1-3.35-3.35V15.35A3.35,3.35,0,0,1,11.4,12H56.52s3.35,1.18,3.53,3v35.7A5,5,0,0,1,59,53l1.68,1.47a5.31,5.31,0,0,0,1.34-3.69V15C62.1,12,56.52,10,56.52,10Z"/></g></g><g id="Group_422" data-name="Group 422"><g id="Group_421" data-name="Group 421"><rect id="Rectangle_398" data-name="Rectangle 398" class="cls-1" x="11.05" y="14" width="2" height="2"/></g></g><g id="Group_424" data-name="Group 424"><g id="Group_423" data-name="Group 423"><rect id="Rectangle_399" data-name="Rectangle 399" class="cls-1" x="15.05" y="14" width="2" height="2"/></g></g><g id="Group_426" data-name="Group 426"><g id="Group_425" data-name="Group 425"><rect id="Rectangle_400" data-name="Rectangle 400" class="cls-1" x="20.05" y="14" width="2" height="2"/></g></g><g id="Group_428" data-name="Group 428"><g id="Group_427" data-name="Group 427"><rect id="Rectangle_401" data-name="Rectangle 401" class="cls-1" x="13.05" y="37" width="2" height="7"/></g></g><g id="Group_430" data-name="Group 430"><g id="Group_429" data-name="Group 429"><rect id="Rectangle_402" data-name="Rectangle 402" class="cls-1" x="18.05" y="31" width="2" height="13"/></g></g><g id="Group_432" data-name="Group 432"><g id="Group_431" data-name="Group 431"><rect id="Rectangle_403" data-name="Rectangle 403" class="cls-1" x="22.05" y="34" width="2" height="10"/></g></g></g></g></g></svg>