<svg xmlns="http://www.w3.org/2000/svg" width="65.464" height="67.472" viewBox="0 0 65.464 67.472">
  <g id="Group_433" data-name="Group 433" transform="translate(-687.934 -1108)">
    <g id="Group_408" data-name="Group 408">
      <g id="Group_407" data-name="Group 407">
        <path id="Path_78" data-name="Path 78" d="M737.777,1108h-44.63s-5.575,3.027-5.147,6.106v35.7a4.811,4.811,0,0,0,3.753,5.4l.558-2.16c-1.478-.382-2.311-3.243-2.311-3.243v-35.463a3.348,3.348,0,0,1,3.347-3.347h44.306a3.348,3.348,0,0,1,3.347,3.347V1115h2v-.894C743.352,1111.027,737.777,1108,737.777,1108Z" fill="#3d8fa0"/>
      </g>
    </g>
    <g id="Group_410" data-name="Group 410">
      <g id="Group_409" data-name="Group 409">
        <rect id="Rectangle_395" data-name="Rectangle 395" width="2" height="2" transform="translate(692 1113)" fill="#3d8fa0"/>
      </g>
    </g>
    <g id="Group_412" data-name="Group 412">
      <g id="Group_411" data-name="Group 411">
        <rect id="Rectangle_396" data-name="Rectangle 396" width="2" height="2" transform="translate(697 1113)" fill="#3d8fa0"/>
      </g>
    </g>
    <g id="Group_414" data-name="Group 414">
      <g id="Group_413" data-name="Group 413">
        <rect id="Rectangle_397" data-name="Rectangle 397" width="2" height="2" transform="translate(701 1113)" fill="#3d8fa0"/>
      </g>
    </g>
    <g id="Group_416" data-name="Group 416">
      <g id="Group_415" data-name="Group 415">
        <path id="Path_79" data-name="Path 79" d="M753.071,1170.221l-10.583-10.583a11.749,11.749,0,0,0,1.325-3.638H745v-2h-.707a11.879,11.879,0,0,0-1.293-7.722V1135h-2v7.411a13.433,13.433,0,0,0-2-2.317V1131h-2v7.535a5.44,5.44,0,0,1-2-1.066V1127h-3v9.792a10.065,10.065,0,0,0-2-.314V1129h-2v7.478a5.579,5.579,0,0,0-2,.314V1133h-3v4.469c-.5.3-1.245.652-2,1.066V1132h-2v8.094c-1.012.694-3,2.317-3,2.317V1134h-2v12.278a38.219,38.219,0,0,0-.591,7.722H699v2h14.889a15.475,15.475,0,0,0,23.926,8.815l10.331,10.331a1.117,1.117,0,0,0,1.578,0l3.347-3.347A1.117,1.117,0,0,0,753.071,1170.221Zm-24.22-4.79a13.389,13.389,0,1,1,13.389-13.389A13.4,13.4,0,0,1,728.851,1165.431Zm20.084,7.348-9.386-9.385a15.84,15.84,0,0,0,1.679-1.86l9.476,9.476Z" fill="#3d8fa0"/>
      </g>
    </g>
    <g id="Group_418" data-name="Group 418">
      <g id="Group_417" data-name="Group 417">
        <path id="Path_80" data-name="Path 80" d="M728.851,1140.884a11.157,11.157,0,1,0,11.158,11.158A11.158,11.158,0,0,0,728.851,1140.884Zm0,20.579a8.927,8.927,0,0,1-7.719-4.463H736.57A8.926,8.926,0,0,1,728.851,1161.463ZM720.219,1154a8.951,8.951,0,0,1,2.781-8.915V1152h3v-8.227a3.363,3.363,0,0,1,2-.58V1152h2v-8.807a5.916,5.916,0,0,1,2,.58V1152h2v-6.915a8.134,8.134,0,0,1,3.484,8.915Z" fill="#3d8fa0"/>
      </g>
    </g>
    <g id="Group_420" data-name="Group 420">
      <g id="Group_419" data-name="Group 419">
        <path id="Path_81" data-name="Path 81" d="M744.472,1118H699.556a5.523,5.523,0,0,0-5.556,5.476v35.048a5.523,5.523,0,0,0,5.556,5.476H714v-2H699.347a3.348,3.348,0,0,1-3.347-3.347v-35.306a3.348,3.348,0,0,1,3.347-3.347h45.125s3.347,1.184,3.528,3.032v35.7a4.893,4.893,0,0,1-1.018,2.214l1.674,1.476a5.283,5.283,0,0,0,1.344-3.69v-35.7C750.047,1119.953,744.472,1118,744.472,1118Z" fill="#3d8fa0"/>
      </g>
    </g>
    <g id="Group_422" data-name="Group 422">
      <g id="Group_421" data-name="Group 421">
        <rect id="Rectangle_398" data-name="Rectangle 398" width="2" height="2" transform="translate(699 1122)" fill="#3d8fa0"/>
      </g>
    </g>
    <g id="Group_424" data-name="Group 424">
      <g id="Group_423" data-name="Group 423">
        <rect id="Rectangle_399" data-name="Rectangle 399" width="2" height="2" transform="translate(703 1122)" fill="#3d8fa0"/>
      </g>
    </g>
    <g id="Group_426" data-name="Group 426">
      <g id="Group_425" data-name="Group 425">
        <rect id="Rectangle_400" data-name="Rectangle 400" width="2" height="2" transform="translate(708 1122)" fill="#3d8fa0"/>
      </g>
    </g>
    <g id="Group_428" data-name="Group 428">
      <g id="Group_427" data-name="Group 427">
        <rect id="Rectangle_401" data-name="Rectangle 401" width="2" height="7" transform="translate(701 1145)" fill="#3d8fa0"/>
      </g>
    </g>
    <g id="Group_430" data-name="Group 430">
      <g id="Group_429" data-name="Group 429">
        <rect id="Rectangle_402" data-name="Rectangle 402" width="2" height="13" transform="translate(706 1139)" fill="#3d8fa0"/>
      </g>
    </g>
    <g id="Group_432" data-name="Group 432">
      <g id="Group_431" data-name="Group 431">
        <rect id="Rectangle_403" data-name="Rectangle 403" width="2" height="10" transform="translate(710 1142)" fill="#3d8fa0"/>
      </g>
    </g>
  </g>
</svg>
