<svg id="Group_1054" data-name="Group 1054" xmlns="http://www.w3.org/2000/svg" xmlns:xlink="http://www.w3.org/1999/xlink" width="60" height="60" viewBox="0 0 60 60">
  <defs>
    <clipPath id="clip-path">
      <rect id="Rectangle_746" data-name="Rectangle 746" width="60" height="60" fill="#fff"/>
    </clipPath>
  </defs>
  <g id="Group_623" data-name="Group 623" clip-path="url(#clip-path)">
    <path id="Path_164" data-name="Path 164" d="M60,22.613a11.984,11.984,0,0,1-1.105,1.673,2.5,2.5,0,0,1-1.929.7c-1.308,0-2.617.005-3.925,0a3.011,3.011,0,0,1-2.719-1.634.812.812,0,0,0-.564-.339c-.673-.042-1.351-.016-2.053-.016A19.25,19.25,0,0,1,44.8,41.985c.882-.293,1.648-.6,2.442-.794a5.589,5.589,0,0,1,2-.217,3.187,3.187,0,0,1,2.693,2.651A3.273,3.273,0,0,1,50.408,47.1c-2.036,1.27-4.093,2.506-6.142,3.755-3.215,1.96-6.44,3.9-9.642,5.885A8.26,8.26,0,0,1,30.132,58c-6.562-.02-13.124-.005-19.686-.015a.814.814,0,0,0-.868.474A2.8,2.8,0,0,1,7.045,59.98q-2.05.041-4.1,0A2.957,2.957,0,0,1,.01,57.013q-.02-9.52,0-19.039a2.925,2.925,0,0,1,2.927-2.961c1.367-.03,2.734-.022,4.1,0a2.846,2.846,0,0,1,2.6,1.6.587.587,0,0,0,.622.388c.66-.033,1.324-.01,2.034-.01A19.254,19.254,0,0,1,15.2,18c-1,.335-1.9.659-2.8.929A3.358,3.358,0,0,1,9.729,12.8q4.168-2.552,8.349-5.084c2.449-1.492,4.908-2.969,7.342-4.485a8.121,8.121,0,0,1,4.438-1.244C36.439,2.007,43.02,1.993,49.6,2a.74.74,0,0,0,.811-.466A3.34,3.34,0,0,1,52.383,0h5.156A3.36,3.36,0,0,1,60,2.461ZM32.008,46.267c2.757-.921,5.472-1.827,8.185-2.74a1.464,1.464,0,0,0,.392-.248,16.983,16.983,0,0,0,4.74-20.636,1.014,1.014,0,0,0-.313-.4c-1.18-.758-2.373-1.494-3.556-2.248a6.276,6.276,0,0,0-3.544-1.012c-1.581.022-3.164.03-4.744-.011A5.5,5.5,0,0,1,28.2,15.16a13.073,13.073,0,0,1-.246-1.427c-2.7.9-5.381,1.79-8.057,2.692a1.945,1.945,0,0,0-.543.332,16.965,16.965,0,0,0-4.68,20.554,1.123,1.123,0,0,0,.351.439c1.08.7,2.182,1.361,3.259,2.062A6.781,6.781,0,0,0,22.246,41c1.424-.038,2.851.014,4.275-.011a5.454,5.454,0,0,1,5.486,5.277M49.975,3.993h-.568q-9.9,0-19.8,0a5.508,5.508,0,0,0-2.943.828q-4.542,2.78-9.094,5.542-3.373,2.055-6.744,4.114a1.385,1.385,0,0,0-.683,1.831c.326.707,1.02.933,1.949.622,5.6-1.87,11.2-3.752,16.808-5.6a6.447,6.447,0,0,1,1.887-.307c2.166-.037,4.334-.021,6.5-.012a7.512,7.512,0,0,0,4.555-1.419c.613-.442,1.178-.393,1.545.1s.236,1.06-.368,1.5A9.191,9.191,0,0,1,37.5,13c-2.187.01-4.374.02-6.56-.011a.73.73,0,0,0-.817.632,1.983,1.983,0,0,0,.333,1.723,3.613,3.613,0,0,0,3.013,1.643c1.483.028,2.968.033,4.452,0a7.934,7.934,0,0,1,4.69,1.387c.795.531,1.584,1.071,2.392,1.58a7.58,7.58,0,0,0,4.974.989ZM10.029,55.963c.186.012.338.031.489.031q9.987,0,19.975,0a5.166,5.166,0,0,0,2.727-.759q1.5-.911,3-1.823,6.421-3.914,12.834-7.842a2.34,2.34,0,0,0,.841-.915,1.155,1.155,0,0,0-.3-1.344,1.438,1.438,0,0,0-1.623-.282c-5.136,1.726-10.285,3.418-15.409,5.179A12.6,12.6,0,0,1,27.88,49c-1.715-.072-3.436-.008-5.154-.019a7.483,7.483,0,0,0-4.557,1.411,1.02,1.02,0,0,1-1.544-.119c-.36-.507-.223-1.06.384-1.5a9.189,9.189,0,0,1,5.469-1.784c2.109-.01,4.218,0,6.326,0,.888,0,1.262-.393,1.117-1.291a2.814,2.814,0,0,0-.474-1.172A3.531,3.531,0,0,0,26.553,43c-1.347-.025-2.7-.06-4.041.005a8.822,8.822,0,0,1-5.744-1.795,22.418,22.418,0,0,0-2.426-1.52,7.449,7.449,0,0,0-4.313-.649ZM58,12.49q0-4.626,0-9.252C58,2.355,57.64,2,56.751,2q-1.757-.008-3.514,0c-.868,0-1.225.345-1.225,1.195q-.006,9.31,0,18.62c0,.829.344,1.165,1.179,1.171,1.152.008,2.3,0,3.455,0,1.048,0,1.356-.311,1.356-1.361q0-4.567,0-9.135M7.992,47.531q0-4.655,0-9.31c0-.878-.33-1.212-1.192-1.217q-1.815-.01-3.631,0C2.356,37.011,2,37.372,2,38.2Q2,47.48,2,56.761c0,.875.367,1.227,1.261,1.23,1.132,0,2.264,0,3.4,0,1.012,0,1.332-.318,1.332-1.326q0-4.567,0-9.135" transform="translate(0)" fill="#fff"/>
    <path id="Path_165" data-name="Path 165" d="M71.915,71.639V66.767c-.363-.087-.719-.164-1.072-.258a5.857,5.857,0,0,1-2.727-1.519,3.7,3.7,0,0,1,.128-5.509,6.106,6.106,0,0,1,3.23-1.529c.371-.062.5-.209.474-.571a3.116,3.116,0,0,1,.033-.758.927.927,0,0,1,.991-.8c.516.021.973.317.913.8-.15,1.171.546,1.326,1.429,1.577a4.624,4.624,0,0,1,3.529,3.32,2.956,2.956,0,0,1,.084.752.986.986,0,0,1-.911,1.029,1.015,1.015,0,0,1-1.055-.827,3.022,3.022,0,0,0-2.966-2.508v4.874a5.719,5.719,0,0,1,1.048.263,11.614,11.614,0,0,1,2.372,1.212,3.7,3.7,0,0,1,.1,5.925,5.967,5.967,0,0,1-3.041,1.4c-.428.068-.571.229-.531.64a2.583,2.583,0,0,1-.034.7.983.983,0,0,1-1.933,0,.151.151,0,0,1-.009-.058c.215-1.055-.417-1.257-1.279-1.486a4.653,4.653,0,0,1-3.641-3.349,2.91,2.91,0,0,1-.083-.752.984.984,0,0,1,.911-1.028,1.013,1.013,0,0,1,1.054.828,3.033,3.033,0,0,0,2.985,2.509m2.073.05a4.065,4.065,0,0,0,2.6-1.392,1.542,1.542,0,0,0,.033-1.95,3.772,3.772,0,0,0-2.629-1.417ZM71.9,64.662V59.91a4.106,4.106,0,0,0-2.529,1.3,1.548,1.548,0,0,0-.158,1.946,3.694,3.694,0,0,0,2.687,1.5" transform="translate(-42.944 -35.804)" fill="#fff"/>
    <path id="Path_166" data-name="Path 166" d="M104.833,71.3c.016,7.137-3.982,12.812-9.929,14.942-.757.271-1.311.1-1.535-.461-.242-.609.058-1.108.833-1.41a12.828,12.828,0,0,0,8.464-10.218,12.455,12.455,0,0,0-.67-6.619c-.054-.146-.126-.286-.172-.435a1,1,0,0,1,.59-1.34.973.973,0,0,1,1.268.627,14.253,14.253,0,0,1,1.152,4.914" transform="translate(-59.837 -42.137)" fill="#fff"/>
    <path id="Path_167" data-name="Path 167" d="M41.763,58.159A15.1,15.1,0,0,1,51.8,43.991c.461-.159.941-.222,1.225.2a1.314,1.314,0,0,1,.186,1.057,1.574,1.574,0,0,1-.876.677A13.033,13.033,0,0,0,44.668,62.81c.04.11.089.217.125.328a1,1,0,0,1-.55,1.357.941.941,0,0,1-1.3-.644q-.58-1.894-1.02-3.83a13.227,13.227,0,0,1-.164-1.862" transform="translate(-26.788 -28.139)" fill="#fff"/>
  </g>
</svg>
