<svg id="Group_622" data-name="Group 622" xmlns="http://www.w3.org/2000/svg" xmlns:xlink="http://www.w3.org/1999/xlink" width="57.682" height="60" viewBox="0 0 57.682 60">
  <defs>
    <clipPath id="clip-path">
      <rect id="Rectangle_745" data-name="Rectangle 745" width="57.681" height="60" fill="#3d8fa0"/>
    </clipPath>
  </defs>
  <g id="Group_621" data-name="Group 621" clip-path="url(#clip-path)">
    <path id="Path_150" data-name="Path 150" d="M5.5,0H26.363a2.1,2.1,0,0,1,1.494,1.9c.031,2.206.036,4.413,0,6.619a1.933,1.933,0,0,1-2.027,1.916c-1.328.013-2.656,0-3.983,0h-.63v1.888h9.825c0-.824-.02-1.6.006-2.383a.919.919,0,0,1,1.408-.817,1.336,1.336,0,0,1,.351.208,1.928,1.928,0,0,0,2.973,0,1.131,1.131,0,0,1,1.642,0,1.951,1.951,0,0,0,2.978,0,1.126,1.126,0,0,1,1.642-.012,1.983,1.983,0,0,0,3.028-.011,1.021,1.021,0,0,1,1.244-.2c.474.26.477.714.472,1.175-.007.674,0,1.349,0,2.08h.723c1.386,0,2.773,0,4.159,0a2.215,2.215,0,0,1,2.476,2.5q0,7.117,0,14.235a4.107,4.107,0,0,0,.027.7c.9,5.188,1.818,10.373,2.713,15.562a44.085,44.085,0,0,1,.732,4.911c.127,2.2.034,4.411.03,6.618a2.866,2.866,0,0,1-3.1,3.1Q28.824,60,3.107,60A2.864,2.864,0,0,1,0,56.9Q0,53.034,0,49.167a3.927,3.927,0,0,1,.04-.7c.9-4.91,1.781-9.824,2.722-14.727a35.9,35.9,0,0,0,.765-7.6c-.084-3.786-.024-7.576-.02-11.364a2.188,2.188,0,0,1,2.4-2.4c1.367-.008,2.734,0,4.1,0,.2,0,.41-.023.6-.034v-1.9c-1.5,0-2.966,0-4.428,0A1.977,1.977,0,0,1,3.963,8.245c-.005-1.933.039-3.868-.016-5.8A2.24,2.24,0,0,1,5.5,0M28.818,50.85q12.593,0,25.186-.005a3.832,3.832,0,0,0,1.095-.132.857.857,0,0,0,.639-1.084c-1.072-6.088-2.148-12.175-3.184-18.269-.1-.6-.335-.683-.862-.683q-22.872.019-45.745.01a2.342,2.342,0,0,1-.293,0c-.343-.044-.46.1-.52.445-.468,2.63-.961,5.256-1.446,7.882-.6,3.221-1.2,6.441-1.782,9.664A1.854,1.854,0,0,0,3.69,50.85H28.818m2.188-27.984V14.284c-.2-.014-.37-.036-.54-.036q-12.183,0-24.366-.011c-.567,0-.731.185-.728.744.02,4.412.01,8.825.012,13.237,0,.187.02.374.03.551H52.267V15.843c0-1.6,0-1.6-1.612-1.6H46.822V22.88c.233.01.444.011.654.03a.914.914,0,0,1,.936.923.9.9,0,0,1-.919.934c-.155.014-.312.011-.468.011q-8.113,0-16.225,0a3.5,3.5,0,0,1-.641-.035.914.914,0,0,1-.046-1.788,6.825,6.825,0,0,1,.893-.087M55.767,52.595c-.736.047-1.393.125-2.051.125q-24.66.01-49.319,0c-.829,0-1.658-.061-2.521-.094,0,1.26,0,2.605,0,3.951,0,1.307.235,1.547,1.519,1.547H54.238c.2,0,.392.011.586-.006a.944.944,0,0,0,.936-.942c.022-1.54.008-3.081.008-4.583M5.868,8.528H25.949V1.91H5.868Zm27.077,3V22.85H44.85V11.557c-1.028,1.134-1.9.639-2.765-.005a.476.476,0,0,1-.048-.033c-.541-.518-1.025-.409-1.628-.013-1.655,1.089-1.372,1.065-2.968.005a1.225,1.225,0,0,0-1.686.017c-.853.69-1.764,1.17-2.811,0m-20.37.8h6.689V10.463H12.575Z" transform="translate(0)" fill="#3d8fa0"/>
    <path id="Path_151" data-name="Path 151" d="M99.231,123.614c-.527,0-1.055.019-1.581,0a1.438,1.438,0,0,1-1.526-1.5q-.047-1.609,0-3.221a1.416,1.416,0,0,1,1.481-1.488c1.091-.039,2.187-.04,3.278,0a1.4,1.4,0,0,1,1.463,1.5q.047,1.609,0,3.221a1.413,1.413,0,0,1-1.476,1.488c-.545.029-1.093.005-1.639.005v0m1.219-4.358c-.754,0-1.435-.014-2.115.013-.118,0-.324.176-.327.277-.029.712-.015,1.425-.015,2.149h2.458Z" transform="translate(-61.632 -75.27)" fill="#3d8fa0"/>
    <path id="Path_152" data-name="Path 152" d="M74.738,123.614c-.527,0-1.055.02-1.581-.005a1.415,1.415,0,0,1-1.5-1.463c-.037-1.092-.037-2.187,0-3.279a1.409,1.409,0,0,1,1.493-1.473c1.072-.037,2.148-.037,3.22,0a1.429,1.429,0,0,1,1.509,1.523q.046,1.58,0,3.162a1.445,1.445,0,0,1-1.558,1.534c-.526.02-1.054,0-1.581,0m-1.221-1.873c.785,0,1.466.016,2.145-.015a.482.482,0,0,0,.332-.329,15.716,15.716,0,0,0,0-1.811.485.485,0,0,0-.348-.315,15.275,15.275,0,0,0-1.752,0c-.131.008-.354.192-.359.3-.033.695-.017,1.392-.017,2.168" transform="translate(-45.937 -75.27)" fill="#3d8fa0"/>
    <path id="Path_153" data-name="Path 153" d="M74.816,93.038c.547,0,1.094-.019,1.64,0a1.337,1.337,0,0,1,1.391,1.3c.056,1.188.057,2.381,0,3.569a1.374,1.374,0,0,1-1.444,1.33q-1.639.044-3.28,0a1.412,1.412,0,0,1-1.469-1.437c-.04-1.111-.041-2.226,0-3.337a1.4,1.4,0,0,1,1.519-1.436c.546-.015,1.093,0,1.64,0v.005m1.15,1.917H73.573v2.41h2.393Z" transform="translate(-45.937 -59.662)" fill="#3d8fa0"/>
    <path id="Path_154" data-name="Path 154" d="M53.418,120.556c0,.508.017,1.016-.005,1.523a1.441,1.441,0,0,1-1.506,1.525c-1.072.032-2.148.032-3.22,0a1.408,1.408,0,0,1-1.5-1.52q-.04-1.58,0-3.162a1.417,1.417,0,0,1,1.495-1.53c1.072-.037,2.148-.037,3.22,0a1.457,1.457,0,0,1,1.514,1.584c.017.527,0,1.054,0,1.581M49.073,121.7H51.5v-2.393H49.073Z" transform="translate(-30.249 -75.269)" fill="#3d8fa0"/>
    <path id="Path_155" data-name="Path 155" d="M50.324,93.034c.527,0,1.055-.014,1.581,0a1.4,1.4,0,0,1,1.492,1.4c.046,1.13.046,2.265,0,3.4a1.42,1.42,0,0,1-1.5,1.412q-1.61.038-3.221,0a1.421,1.421,0,0,1-1.491-1.474q-.048-1.639,0-3.279a1.4,1.4,0,0,1,1.495-1.457c.546-.017,1.093,0,1.64,0m1.183,1.91H49.1v2.41h2.411Z" transform="translate(-30.248 -59.662)" fill="#3d8fa0"/>
    <path id="Path_156" data-name="Path 156" d="M102.358,96.144c0,.508.015,1.016,0,1.523a1.476,1.476,0,0,1-1.581,1.577c-1.015.018-2.031.015-3.046,0a1.47,1.47,0,0,1-1.606-1.553c-.026-1.053-.029-2.109,0-3.162a1.419,1.419,0,0,1,1.521-1.5q1.61-.028,3.221,0a1.391,1.391,0,0,1,1.476,1.415c.037.564.007,1.132.007,1.7h.009m-4.322,1.2h2.408v-2.42H98.037Z" transform="translate(-61.633 -59.653)" fill="#3d8fa0"/>
    <path id="Path_157" data-name="Path 157" d="M22.72,120.483c0-.547-.024-1.095.006-1.64a1.349,1.349,0,0,1,1.351-1.414c1.169-.052,2.343-.052,3.511,0a1.366,1.366,0,0,1,1.352,1.422c.035,1.112.037,2.227,0,3.338a1.386,1.386,0,0,1-1.418,1.421c-1.131.039-2.265.041-3.4,0a1.386,1.386,0,0,1-1.406-1.429c0-.039-.006-.078-.006-.117q0-.791,0-1.582h.007m1.907,1.232h2.4V119.3h-2.4Z" transform="translate(-14.565 -75.286)" fill="#3d8fa0"/>
    <path id="Path_158" data-name="Path 158" d="M126.823,120.5c0,.566.026,1.133-.006,1.7a1.354,1.354,0,0,1-1.369,1.395c-1.15.044-2.3.044-3.453,0a1.385,1.385,0,0,1-1.388-1.449q-.049-1.638,0-3.279a1.4,1.4,0,0,1,1.442-1.463c1.111-.044,2.226-.045,3.336,0a1.405,1.405,0,0,1,1.441,1.518c.021.527,0,1.054,0,1.581h-.007m-1.906-1.2H122.5v2.4h2.42Z" transform="translate(-77.332 -75.273)" fill="#3d8fa0"/>
    <path id="Path_159" data-name="Path 159" d="M25.81,93.034c.547,0,1.094-.015,1.64,0a1.409,1.409,0,0,1,1.472,1.428c.038,1.112.038,2.227,0,3.339a1.422,1.422,0,0,1-1.471,1.441q-1.639.045-3.28,0a1.421,1.421,0,0,1-1.466-1.5q-.04-1.61,0-3.222a1.41,1.41,0,0,1,1.523-1.49c.527-.015,1.054,0,1.582,0v0m-1.2,4.306h2.4v-2.4h-2.4Z" transform="translate(-14.548 -59.661)" fill="#3d8fa0"/>
    <path id="Path_160" data-name="Path 160" d="M123.73,93.04c.566,0,1.133-.021,1.7,0a1.337,1.337,0,0,1,1.373,1.319c.043,1.17.042,2.342.005,3.512a1.353,1.353,0,0,1-1.346,1.36c-1.15.045-2.3.043-3.454,0a1.387,1.387,0,0,1-1.394-1.388c-.044-1.131-.043-2.265,0-3.4a1.4,1.4,0,0,1,1.481-1.417c.546-.018,1.093,0,1.64,0v.005m1.2,1.906h-2.42v2.386h2.42Z" transform="translate(-77.331 -59.662)" fill="#3d8fa0"/>
    <path id="Path_161" data-name="Path 161" d="M31.236,47.313c2.07,0,4.139-.005,6.209,0A2.075,2.075,0,0,1,39.739,49.6c.011,1.523.014,3.046,0,4.569a2.081,2.081,0,0,1-2.273,2.254q-6.267.013-12.535,0a2.111,2.111,0,0,1-2.306-2.292q-.018-2.255,0-4.51a2.11,2.11,0,0,1,2.344-2.3c2.089-.005,4.178,0,6.267,0m-.056,1.875c-2.029,0-4.057.012-6.085-.009-.461-.005-.613.141-.606.6q.033,2.106,0,4.212c-.007.447.168.566.587.565q6.114-.016,12.228,0c.434,0,.576-.145.57-.576-.021-1.4-.024-2.808,0-4.212.009-.475-.161-.593-.612-.589-2.028.021-4.056.009-6.084.009" transform="translate(-14.505 -30.342)" fill="#3d8fa0"/>
    <path id="Path_162" data-name="Path 162" d="M100.514,42.269c-1.11,0-2.221.018-3.33-.006-.815-.018-1.323-.7-.943-1.312a1.3,1.3,0,0,1,.929-.53c2.258-.045,4.518-.03,6.777-.02a.934.934,0,0,1,1.031.887.954.954,0,0,1-1.017.972c-1.148.023-2.3.007-3.447.007Z" transform="translate(-61.64 -25.903)" fill="#3d8fa0"/>
    <path id="Path_163" data-name="Path 163" d="M100.53,53.573c-1.091,0-2.181.007-3.272,0-.7-.006-1.114-.364-1.117-.924s.429-.943,1.107-.945q3.331-.013,6.662,0a.976.976,0,0,1,1.088.964c-.017.541-.423.9-1.079.9-1.129.011-2.259,0-3.389,0" transform="translate(-61.658 -33.154)" fill="#3d8fa0"/>
  </g>
</svg>
