<svg id="Group_1056" data-name="Group 1056" xmlns="http://www.w3.org/2000/svg" xmlns:xlink="http://www.w3.org/1999/xlink" width="53.479" height="60" viewBox="0 0 53.479 60">
  <defs>
    <clipPath id="clip-path">
      <rect id="Rectangle_756" data-name="Rectangle 756" width="53.479" height="60" fill="#fff"/>
    </clipPath>
  </defs>
  <g id="Group_627" data-name="Group 627" clip-path="url(#clip-path)">
    <path id="Path_182" data-name="Path 182" d="M50.543,0a1.481,1.481,0,0,0,.211.1,3.485,3.485,0,0,1,2.723,3.614q.006,8.084,0,16.169,0,6.562,0,13.123a3.511,3.511,0,0,1-3.786,3.8q-8.115,0-16.23,0h-.769c.061,1.092.094,2.12.183,3.144.079.913.226,1.82.331,2.73.041.353.2.484.569.475q1.611-.038,3.222,0c.76.018,1.229.693.854,1.259a1.253,1.253,0,0,1-.851.468c-.835.063-1.678.023-2.518.023H16.73c-.788,0-1.208-.308-1.2-.873s.436-.881,1.212-.884c1.016,0,2.032.011,3.046-.014.159,0,.436-.169.45-.285.239-1.986.445-3.976.667-6.042h-.863q-8.115,0-16.23,0A3.509,3.509,0,0,1,.022,33C.021,23.414.047,13.825,0,4.237-.01,2.325.6.669,2.957,0ZM4.1,28.327V26.251c0-6.659-.01-13.319.02-19.978A3.181,3.181,0,0,1,4.578,4.7a1.931,1.931,0,0,1,1.814-.729q20.362.012,40.725.006c.176,0,.353-.005.527.012A1.862,1.862,0,0,1,49.362,5.64c.056,1.931.037,3.865.019,5.8a.755.755,0,0,1-.8.768.8.8,0,0,1-.891-.676,2.594,2.594,0,0,1-.042-.581c0-1.5-.026-3.008.011-4.511.014-.569-.169-.716-.726-.715q-20.187.022-40.373,0c-.573,0-.717.168-.715.725q.026,10.633.013,21.267c0,.2.02.409.03.607h41.76v-.726q0-5.888,0-11.776a2.622,2.622,0,0,1,.065-.695.858.858,0,0,1,1.669.119,4.264,4.264,0,0,1,.022.643q0,5.858,0,11.717v.72H51.72V27.67q0-11.893,0-23.786c0-1.485-.648-2.126-2.148-2.126H3.924c-1.5,0-2.144.641-2.144,2.129q0,11.893,0,23.786v.654Zm47.617,1.825H1.78c0,.914,0,1.79,0,2.666,0,1.626.6,2.23,2.21,2.23H49.51c.2,0,.391.008.586-.006a1.7,1.7,0,0,0,1.607-1.58c.043-1.089.01-2.18.01-3.309m-20.3,12.963c-.182-2.113-.361-4.2-.539-6.26H22.622c-.183,2.118-.361,4.184-.54,6.26Z" transform="translate(0)" fill="#fff"/>
    <path id="Path_183" data-name="Path 183" d="M7.886,143.759h45.59c-.044-.188-.072-.351-.121-.508-.8-2.528-1.607-5.052-2.386-7.585a.67.67,0,0,0-.777-.555q-14.266.021-28.533.01c-.176,0-.351,0-.527,0-.647-.018-1.011-.342-1-.887.008-.515.372-.841.974-.868.1,0,.2,0,.293,0h29a1.9,1.9,0,0,1,2.165,1.548q1.276,4.012,2.538,8.028a1.825,1.825,0,0,1-1.919,2.6q-22.5,0-45,0a1.825,1.825,0,0,1-1.9-2.61q1.262-4.016,2.54-8.028a1.883,1.883,0,0,1,2.115-1.533c1.992,0,3.984-.007,5.976,0a.9.9,0,0,1,.984.867c.009.518-.391.866-1.02.884-.137,0-.273,0-.41,0-1.738,0-3.477.022-5.214-.013-.525-.01-.724.161-.876.662-.735,2.425-1.523,4.833-2.289,7.248-.07.221-.126.446-.208.741" transform="translate(-3.941 -85.536)" fill="#fff"/>
    <path id="Path_184" data-name="Path 184" d="M45.509,154.006a4.579,4.579,0,0,1-.7-.006.821.821,0,0,1-.761-.88.789.789,0,0,1,.737-.838,6.837,6.837,0,0,1,1.453,0,.791.791,0,0,1,.734.842.824.824,0,0,1-.767.876,4.677,4.677,0,0,1-.7.005" transform="translate(-28.253 -97.647)" fill="#fff"/>
    <path id="Path_185" data-name="Path 185" d="M58.827,145.238c-.233,0-.468.019-.7,0a.812.812,0,0,1-.782-.8.769.769,0,0,1,.663-.892,5.872,5.872,0,0,1,1.619,0,.76.76,0,0,1,.634.909.8.8,0,0,1-.794.779,6.364,6.364,0,0,1-.641,0" transform="translate(-36.778 -92.032)" fill="#fff"/>
    <path id="Path_186" data-name="Path 186" d="M32.2,145.228c-.214,0-.429.015-.641,0a.8.8,0,0,1-.8-.768.777.777,0,0,1,.675-.935,5.753,5.753,0,0,1,1.564,0,.773.773,0,0,1,.675.885.819.819,0,0,1-.828.815c-.212.015-.427,0-.641,0" transform="translate(-19.723 -92.02)" fill="#fff"/>
    <path id="Path_187" data-name="Path 187" d="M72.151,145.214c-.214,0-.429.013-.641,0a.813.813,0,0,1-.833-.806.788.788,0,0,1,.716-.909,5.773,5.773,0,0,1,1.452-.007.811.811,0,0,1,.755.884.852.852,0,0,1-.865.839c-.194.013-.389,0-.583,0" transform="translate(-45.329 -92.004)" fill="#fff"/>
    <path id="Path_188" data-name="Path 188" d="M85.468,145.215c-.214,0-.429.014-.641,0a.8.8,0,0,1-.82-.814.786.786,0,0,1,.721-.9,5.834,5.834,0,0,1,1.452,0,.821.821,0,0,1,.75.892.857.857,0,0,1-.879.83c-.194.012-.388,0-.583,0" transform="translate(-53.879 -92.005)" fill="#fff"/>
    <path id="Path_189" data-name="Path 189" d="M111.753,145.217c-.214,0-.429.013-.641,0a.817.817,0,0,1-.827-.816.794.794,0,0,1,.73-.9,5.62,5.62,0,0,1,1.508.011.78.78,0,0,1,.676.936.8.8,0,0,1-.805.768c-.212.019-.427,0-.641,0" transform="translate(-70.733 -92.009)" fill="#fff"/>
    <path id="Path_190" data-name="Path 190" d="M58.792,154.017c-.194,0-.389.011-.583,0a.872.872,0,1,1-.029-1.745,10.166,10.166,0,0,1,1.224,0,.849.849,0,0,1,.85.857.858.858,0,0,1-.878.888c-.193.013-.388,0-.583,0" transform="translate(-36.763 -97.652)" fill="#fff"/>
    <path id="Path_191" data-name="Path 191" d="M98.735,152.284a4.487,4.487,0,0,1,.7.006.819.819,0,0,1,.764.876.8.8,0,0,1-.786.852,7.8,7.8,0,0,1-1.339,0,.831.831,0,0,1-.8-.847.862.862,0,0,1,.824-.888c.211-.021.427,0,.64,0v0" transform="translate(-62.386 -97.665)" fill="#fff"/>
    <path id="Path_192" data-name="Path 192" d="M32.2,154.011a5.447,5.447,0,0,1-.64-.005.87.87,0,0,1-.013-1.734,8.026,8.026,0,0,1,1.339,0,.83.83,0,0,1,.792.857.865.865,0,0,1-.837.877c-.212.019-.427,0-.641,0" transform="translate(-19.723 -97.648)" fill="#fff"/>
    <path id="Path_193" data-name="Path 193" d="M111.724,154.007c-.214,0-.429.018-.641,0a.861.861,0,0,1-.818-.894.834.834,0,0,1,.809-.842,7.261,7.261,0,0,1,1.339,0,.809.809,0,0,1,.781.857.846.846,0,0,1-.829.875c-.212.018-.427,0-.641,0" transform="translate(-70.721 -97.644)" fill="#fff"/>
    <path id="Path_194" data-name="Path 194" d="M98.741,145.219c-.214,0-.429.015-.641,0a.813.813,0,0,1-.811-.83.782.782,0,0,1,.689-.876,5.816,5.816,0,0,1,1.508-.008.787.787,0,0,1,.72.9.8.8,0,0,1-.825.81c-.213.016-.427,0-.641,0" transform="translate(-62.399 -92.011)" fill="#fff"/>
    <path id="Path_195" data-name="Path 195" d="M85.44,154.014a5.086,5.086,0,0,1-.64,0,.823.823,0,0,1-.8-.84.833.833,0,0,1,.8-.894,9.432,9.432,0,0,1,1.281,0,.88.88,0,0,1,.848.871.889.889,0,0,1-.852.869c-.212.018-.427,0-.641,0v0" transform="translate(-53.875 -97.652)" fill="#fff"/>
    <path id="Path_196" data-name="Path 196" d="M45.5,145.227c-.214,0-.429.015-.641,0a.81.81,0,0,1-.812-.826.777.777,0,0,1,.683-.879,5.846,5.846,0,0,1,1.565.005.774.774,0,0,1,.671.887.811.811,0,0,1-.825.814c-.213.015-.427,0-.641,0" transform="translate(-28.253 -92.019)" fill="#fff"/>
    <path id="Path_197" data-name="Path 197" d="M72.107,154.018c-.194,0-.39.011-.583,0a.873.873,0,0,1,.012-1.746,10.8,10.8,0,0,1,1.166,0,.875.875,0,1,1-.012,1.749c-.194.011-.389,0-.583,0" transform="translate(-45.322 -97.653)" fill="#fff"/>
    <path id="Path_198" data-name="Path 198" d="M44.892,30.955a4.868,4.868,0,0,1-.418.754q-4.458,5.237-8.933,10.46a.886.886,0,1,1-1.327-1.143q4.462-5.234,8.932-10.461c.289-.339.651-.574,1.071-.335a3.333,3.333,0,0,1,.675.725" transform="translate(-21.748 -19.327)" fill="#fff"/>
    <path id="Path_199" data-name="Path 199" d="M38.213,37.311a4.145,4.145,0,0,1-.393.744q-1.142,1.327-2.322,2.621a.9.9,0,0,1-1.295.159.873.873,0,0,1-.029-1.3c.776-.9,1.57-1.78,2.358-2.668a.813.813,0,0,1,1.044-.258,3.046,3.046,0,0,1,.637.7" transform="translate(-21.743 -23.419)" fill="#fff"/>
    <path id="Path_200" data-name="Path 200" d="M69.8,90.161c-.547,0-1.093.014-1.639,0a.9.9,0,0,1-.974-.873.884.884,0,0,1,.971-.871q1.7-.025,3.4,0a.876.876,0,0,1,.944.9.89.89,0,0,1-.941.845c-.585.021-1.171,0-1.756.005" transform="translate(-43.093 -56.7)" fill="#fff"/>
  </g>
</svg>
