<svg xmlns="http://www.w3.org/2000/svg" width="48.626" height="62.351" viewBox="0 0 48.626 62.351">
  <g id="Group_515" data-name="Group 515" transform="translate(-648 -2435.15)">
    <g id="Group_495" data-name="Group 495">
      <g id="Group_494" data-name="Group 494">
        <path id="Path_129" data-name="Path 129" d="M688.324,2473.3l4.213,10.021c1.076,2.559,2.143,5.121,3.237,7.672a2.023,2.023,0,0,1-2.556,2.892c-1.1-.317-2.2-.586-3.3-.907a.591.591,0,0,0-.783.3c-.67,1.054-1.382,2.081-2.061,3.129a2,2,0,0,1-1.926,1.064,2.041,2.041,0,0,1-1.756-1.416q-3.255-7.7-6.536-15.387c-.092-.216-.188-.43-.322-.735-.29.4-.523.748-.786,1.073a18.757,18.757,0,0,1-1.737,2.071,2.342,2.342,0,0,1-3.382.021,13.9,13.9,0,0,1-1.52-1.748c-.345-.43-.642-.9-1.021-1.434l-2.368,5.565q-2.259,5.316-4.521,10.632a1.922,1.922,0,0,1-2.6,1.208,2.721,2.721,0,0,1-1-.872c-.713-1-1.384-2.029-2.031-3.071a.691.691,0,0,0-.927-.371c-1.07.324-2.163.571-3.238.878a2.023,2.023,0,0,1-2.549-2.9q3.558-8.41,7.088-16.835c.108-.256.211-.515.344-.84-.287-.041-.534-.083-.783-.11-.492-.054-.987-.09-1.478-.148-2.732-.321-3.66-1.856-2.645-4.421.371-.94.836-1.842,1.217-2.778.412-1.013.321-1.321-.535-2-.471-.375-.974-.71-1.46-1.067-.382-.281-.774-.55-1.137-.854-1.942-1.625-1.963-3.27-.021-4.89.842-.7,1.776-1.292,2.641-1.968.835-.652.918-.971.527-1.95-.311-.778-.7-1.528-1.012-2.3a10.459,10.459,0,0,1-.575-1.708,2.25,2.25,0,0,1,1.6-2.845,33.049,33.049,0,0,1,3.744-.617c.085-.013.172-.013.258-.022,1.392-.147,1.683-.44,1.84-1.827.127-1.112.189-2.238.409-3.331.4-2.01,1.729-2.775,3.68-2.126,1.037.345,2.02.85,3.031,1.275,1.413.592,1.665.522,2.593-.723.553-.742,1.074-1.509,1.646-2.237a5.27,5.27,0,0,1,.963-.948,2.3,2.3,0,0,1,3.084.052,14.49,14.49,0,0,1,1.661,1.879c.46.568.872,1.175,1.3,1.765a1.2,1.2,0,0,0,1.591.435c.85-.363,1.691-.748,2.549-1.092a10.383,10.383,0,0,1,1.709-.571,2.275,2.275,0,0,1,2.819,1.557,16.6,16.6,0,0,1,.505,2.651c.112.7.172,1.41.268,2.114a1.078,1.078,0,0,0,1.016,1c1.068.136,2.138.253,3.207.379,2.87.338,3.789,1.862,2.7,4.526-.373.916-.825,1.8-1.2,2.717-.4.976-.3,1.3.527,1.952.42.335.871.632,1.3.954.517.387,1.055.753,1.537,1.179,1.668,1.477,1.667,3.093-.025,4.552-.667.575-1.407,1.066-2.124,1.581-1.672,1.2-1.715,1.394-.887,3.29a24.047,24.047,0,0,1,1.2,3.054,2.336,2.336,0,0,1-1.753,3.094,17.532,17.532,0,0,1-2.284.4C689.149,2473.236,688.785,2473.256,688.324,2473.3Zm-5.376,5.58c.658.031.817-.309.871-.685.148-1.043.279-2.09.386-3.138.252-2.476,1.247-3.464,3.728-3.685.9-.081,1.8-.155,2.7-.286,1.127-.165,1.295-.456.884-1.511-.289-.74-.635-1.459-.963-2.184-1.234-2.721-.917-3.886,1.505-5.6.72-.509,1.443-1.021,2.113-1.592s.667-.888-.015-1.456c-.776-.646-1.617-1.214-2.427-1.819-2.013-1.5-2.326-2.651-1.344-4.962.21-.495.452-.976.665-1.47.2-.454.4-.909.549-1.377.258-.793.152-1.021-.676-1.165-.995-.173-2-.272-3.01-.365-2.455-.229-3.489-1.257-3.707-3.707-.081-.9-.153-1.8-.284-2.7-.17-1.164-.462-1.329-1.55-.9-.779.31-1.536.674-2.3,1.015-2.556,1.136-3.726.82-5.353-1.448-.465-.647-.912-1.308-1.406-1.933-.814-1.03-1.17-1.035-1.978-.02-.509.639-.968,1.318-1.446,1.982-1.61,2.233-2.786,2.551-5.306,1.432-.177-.078-.351-.164-.528-.243-.61-.269-1.212-.56-1.833-.8-1.055-.406-1.348-.242-1.511.885-.132.915-.2,1.84-.289,2.761-.226,2.418-1.254,3.435-3.678,3.667-1.028.1-2.057.2-3.073.377-.78.135-.915.386-.64,1.13.328.886.725,1.747,1.109,2.611,1.141,2.57.836,3.716-1.424,5.362-.783.57-1.578,1.128-2.314,1.754-.6.507-.6.814,0,1.318.754.639,1.567,1.209,2.366,1.792,2.174,1.585,2.5,2.751,1.428,5.206-.2.454-.424.9-.62,1.349s-.4.908-.549,1.377c-.247.76-.141.994.642,1.133.994.177,2,.275,3.008.378,2.549.259,3.482,1.184,3.744,3.74.079.771.152,1.543.247,2.312.2,1.6.422,1.733,1.923,1.117,1.112-.458,2.209-.961,3.343-1.357a2.689,2.689,0,0,1,3.05.816c.347.382.669.788.981,1.2.5.651.948,1.337,1.466,1.969.717.874,1.056.881,1.763.005.675-.837,1.267-1.741,1.932-2.587,1.276-1.626,2.363-1.929,4.3-1.179.9.349,1.768.787,2.657,1.169C682.411,2478.718,682.762,2478.817,682.948,2478.881Zm2.339,16.646c.812-1.213,1.551-2.32,2.293-3.425a2.079,2.079,0,0,1,2.748-1.019l3.771,1.014c-2.561-6.1-5.071-12.079-7.582-18.058a3.881,3.881,0,0,0-.372,1.275,34.956,34.956,0,0,1-.539,3.629,2.315,2.315,0,0,1-3.129,1.765,29.688,29.688,0,0,1-2.818-1.094c-.406-.162-.8-.34-1.379-.583C680.652,2484.614,682.943,2490.007,685.287,2495.527ZM658.3,2474.069l-.2-.008-7.577,18.011c1.473-.383,2.8-.724,4.129-1.073a1.9,1.9,0,0,1,2.2.818c.509.721.978,1.47,1.465,2.206.315.476.631.951,1,1.5,2.352-5.519,4.656-10.922,7.034-16.5-.529.221-.86.364-1.2.5a30.354,30.354,0,0,1-3.117,1.215,2.291,2.291,0,0,1-2.983-1.657,16.113,16.113,0,0,1-.441-2.469C658.487,2475.768,658.4,2474.917,658.3,2474.069Z" fill="#3d8fa0"/>
        <path id="Path_130" data-name="Path 130" d="M672.357,2473.885a14.4,14.4,0,1,1,14.358-14.482A14.408,14.408,0,0,1,672.357,2473.885Zm-.089-1.952a12.452,12.452,0,1,0-12.406-12.5A12.44,12.44,0,0,0,672.268,2471.933Z" fill="#3d8fa0"/>
        <path id="Path_131" data-name="Path 131" d="M676.824,2461.608c.382,1.181.751,2.305,1.108,3.432a1.715,1.715,0,0,1-.532,2.086,1.668,1.668,0,0,1-2.146-.115c-.964-.689-1.92-1.389-2.94-2.128-.977.707-1.942,1.459-2.965,2.119a2.35,2.35,0,0,1-1.368.4,1.624,1.624,0,0,1-1.32-2.264c.36-1.169.754-2.328,1.144-3.526-1.023-.748-2.038-1.471-3.032-2.223a1.588,1.588,0,0,1-.369-2.414,2.429,2.429,0,0,1,1.4-.628,25.249,25.249,0,0,1,3.1-.02.69.69,0,0,0,.822-.582c.267-.952.6-1.887.9-2.828a1.752,1.752,0,0,1,1.693-1.421,1.774,1.774,0,0,1,1.675,1.449c.315.961.642,1.918.929,2.887a.6.6,0,0,0,.69.493c1.034-.023,2.069-.016,3.1,0a1.7,1.7,0,0,1,1.81,1.163,1.719,1.719,0,0,1-.8,2C678.783,2460.189,677.823,2460.88,676.824,2461.608Zm-1.122,3.32.114-.085c-.273-.855-.548-1.709-.817-2.564a1.736,1.736,0,0,1,.742-2.291q1.077-.8,2.159-1.583a17.252,17.252,0,0,0-2.587-.137,1.823,1.823,0,0,1-2.122-1.545c-.272-.821-.549-1.641-.823-2.461a23.744,23.744,0,0,0-.979,2.63,1.744,1.744,0,0,1-1.863,1.373c-.732.015-1.464,0-2.2.006-.193,0-.386.021-.687.038.145.13.175.162.21.187q.91.666,1.823,1.332c1.171.857,1.327,1.331.885,2.7q-.379,1.172-.76,2.345a21.885,21.885,0,0,0,2.3-1.521,1.738,1.738,0,0,1,2.411,0C674.248,2463.867,674.973,2464.4,675.7,2464.928Z" fill="#3d8fa0"/>
      </g>
    </g>
  </g>
</svg>
