<svg xmlns="http://www.w3.org/2000/svg" width="47.57" height="47.57" viewBox="0 0 47.57 47.57">
  <path id="Icon_awesome-check-circle" data-name="Icon awesome-check-circle" d="M48.133,24.348A23.785,23.785,0,1,1,24.348.563,23.785,23.785,0,0,1,48.133,24.348ZM21.6,36.942,39.243,19.295a1.535,1.535,0,0,0,0-2.17l-2.17-2.17a1.534,1.534,0,0,0-2.17,0L20.511,29.346l-6.719-6.719a1.535,1.535,0,0,0-2.17,0L9.452,24.8a1.535,1.535,0,0,0,0,2.17l9.974,9.974A1.535,1.535,0,0,0,21.6,36.942Z" transform="translate(-0.563 -0.563)" fill="#058fa5"/>
</svg>
