<svg id="Group_814" data-name="Group 814" xmlns="http://www.w3.org/2000/svg" xmlns:xlink="http://www.w3.org/1999/xlink" width="40.648" height="40" viewBox="0 0 40.648 40">
  <defs>
    <clipPath id="clip-path">
      <rect id="Rectangle_1058" data-name="Rectangle 1058" width="40.648" height="40" fill="#3d8fa0"/>
    </clipPath>
  </defs>
  <g id="Group_806" data-name="Group 806" clip-path="url(#clip-path)">
    <path id="Path_228" data-name="Path 228" d="M108.181,85.022c-.024.073-.053.145-.07.22a3.749,3.749,0,0,1-3.506,3.037c-1.406.146-2.809.322-4.262.491,0,.173,0,.328,0,.484-.027,2.024-.048,4.048-.094,6.072a1.006,1.006,0,0,1-.263.656.612.612,0,0,1-.993-.406,2.359,2.359,0,0,1-.011-.435q.044-3.334.09-6.668c.01-.7.139-.861.834-.946,1.5-.183,2.992-.367,4.492-.516a2.523,2.523,0,0,0,2.49-2.9c-.166-3.21-.3-6.422-.45-9.633-.058-1.255-.11-2.511-.167-3.767a2.3,2.3,0,0,0-1.659-2.182,2.275,2.275,0,0,0-2.605,1.034q-1.651,2.663-3.267,5.347a1.343,1.343,0,0,1-1.022.658c-2.028.291-4.057.573-6.084.867a1.743,1.743,0,0,0-1.56,1.983A1.71,1.71,0,0,0,92,79.943c1.641-.189,3.274-.444,4.91-.673.849-.119,1.7-.255,2.548-.362a2.119,2.119,0,0,0,1.658-1.078c.6-1.012,1.221-2.012,1.835-3.015.274-.447.638-.573.982-.351s.379.579.117,1.01c-.6.983-1.209,1.957-1.789,2.95a1.716,1.716,0,0,0-.222.775c-.028.806-.007,1.614-.012,2.421,0,.579-.2.786-.763.852q-2.483.284-4.965.568a2.413,2.413,0,0,0-2.18,2.455c-.008,3.2,0,6.4,0,9.606,0,.119.006.239,0,.357a.666.666,0,0,1-.649.668.636.636,0,0,1-.626-.679c-.012-.463,0-.926,0-1.389,0-2.686.072-5.374-.022-8.057a3.922,3.922,0,0,1,3.86-4.308c1.239-.08,2.469-.278,3.706-.4.286-.029.391-.131.367-.419s-.005-.6-.005-.845c-2.059.293-4.081.582-6.1.867-.838.118-1.675.233-2.515.338a2.589,2.589,0,0,1-1.684-.324,1.808,1.808,0,0,0-1.054-.242c-.382.015-.765,0-1.219,0v.511q0,6.986,0,13.972a1.886,1.886,0,0,1-.043.51.627.627,0,0,1-1.227-.1,4.148,4.148,0,0,1-.011-.436q0-6.966,0-13.932v-.523h-5.1c-.119,0-.239.005-.357-.005a.633.633,0,0,1-.026-1.263c.262-.025.529-.011.793-.011h6.723A9.776,9.776,0,0,1,88.8,77.93a2.983,2.983,0,0,1,2.582-2.754c1.9-.275,3.794-.546,5.694-.8a1.018,1.018,0,0,0,.827-.545c1-1.681,2.011-3.357,3.06-5.008a3.364,3.364,0,0,1,3.38-1.636,3.311,3.311,0,0,1,3,2.409,8.974,8.974,0,0,1,.262,2.233c.183,3.779.343,7.559.514,11.339.008.168.044.335.067.5Z" transform="translate(-67.533 -56.129)" fill="#3d8fa0"/>
    <path id="Path_229" data-name="Path 229" d="M7.92,86.722l-3.089-.4c-.577-.076-1.155-.141-1.729-.233A3.676,3.676,0,0,1,.009,82.217c.171-2.494.374-4.986.563-7.479.18-2.361.367-4.721.538-7.082a3.055,3.055,0,0,1,2.1-2.849,3.036,3.036,0,0,1,3.3.844,3.825,3.825,0,0,1,.483.675c.935,1.52,1.87,3.04,2.789,4.571.147.245.269.283.532.176,1.675-.684,3.354-1.362,5.04-2.018a3.041,3.041,0,0,1,4.133,2.111,2.993,2.993,0,0,1-1.7,3.479c-1.564.675-3.158,1.279-4.739,1.915-1.042.419-2.085.834-3.123,1.26A3.162,3.162,0,0,1,7.439,77.8a11.159,11.159,0,0,0,.016,1.138c.009.086.211.2.336.217,1.391.172,2.783.329,4.176.487a3.662,3.662,0,0,1,3.366,3.675c.027,3.308.01,6.616.008,9.924,0,.472-.243.757-.622.766s-.657-.3-.658-.78q0-4.8,0-9.607A2.435,2.435,0,0,0,11.644,80.9c-1.575-.19-3.152-.367-4.728-.548-.572-.066-.765-.27-.769-.846-.005-.834.01-1.668-.01-2.5a1.35,1.35,0,0,0-.179-.629c-.6-1.013-1.221-2.011-1.831-3.017-.272-.449-.217-.827.142-1.032s.686-.07.951.362c.615,1,1.225,2.009,1.84,3.012a1.8,1.8,0,0,0,2.459.863q3.839-1.5,7.657-3.049a1.77,1.77,0,1,0-1.35-3.271c-1.857.729-3.706,1.476-5.558,2.216-.726.29-.882.24-1.29-.427-1.055-1.726-2.105-3.454-3.165-5.177a1.832,1.832,0,0,0-2.07-.879A1.752,1.752,0,0,0,2.4,67.652c-.177,2.189-.333,4.379-.5,6.568-.2,2.651-.393,5.3-.61,7.953a2.409,2.409,0,0,0,2,2.639c1.739.259,3.485.464,5.228.7.5.068.682.278.683.794q0,3.454,0,6.907c0,.488-.253.793-.641.795s-.636-.291-.637-.788q0-3.017,0-6.034v-.463" transform="translate(0 -54.011)" fill="#3d8fa0"/>
    <path id="Path_230" data-name="Path 230" d="M89.044,0q2.143,0,4.286,0a1.926,1.926,0,0,1,2.08,2.077q.009,2.421,0,4.842a1.932,1.932,0,0,1-2.1,2.1c-2.077,0-4.154.007-6.231,0a1.3,1.3,0,0,0-.965.358c-.542.5-1.113.977-1.671,1.465a1.053,1.053,0,0,1-1.21.212,1.065,1.065,0,0,1-.628-1.058c0-2.672,0-5.344,0-8.017A1.918,1.918,0,0,1,84.6,0C86.081,0,87.562,0,89.044,0M83.89,9.621c.494-.43.927-.774,1.321-1.158a2.558,2.558,0,0,1,1.937-.735c2.037.028,4.075.011,6.112.008.675,0,.868-.2.869-.881q0-2.4,0-4.8c0-.523-.226-.752-.742-.769-.278-.009-.556,0-.833,0q-3.91,0-7.819,0c-.569,0-.837.218-.839.72-.008,2.5,0,5,0,7.618" transform="translate(-69.033 0)" fill="#3d8fa0"/>
    <path id="Path_231" data-name="Path 231" d="M194.811,4.592A4.523,4.523,0,1,1,190.342.018a4.517,4.517,0,0,1,4.469,4.573m-1.289-.051a3.234,3.234,0,1,0-3.246,3.248,3.242,3.242,0,0,0,3.246-3.248" transform="translate(-155.238 -0.015)" fill="#3d8fa0"/>
    <path id="Path_232" data-name="Path 232" d="M6.527,4.552a4.524,4.524,0,1,1,4.516,4.517A4.536,4.536,0,0,1,6.527,4.552m7.755.015A3.234,3.234,0,1,0,11.01,7.789a3.245,3.245,0,0,0,3.273-3.222" transform="translate(-5.454 -0.016)" fill="#3d8fa0"/>
    <path id="Path_233" data-name="Path 233" d="M103.9,17.676c-.913,0-1.825,0-2.738,0-.513,0-.787-.223-.793-.625-.006-.419.279-.654.808-.655q2.718,0,5.437,0c.536,0,.83.226.838.632s-.288.648-.854.649c-.9,0-1.8,0-2.7,0" transform="translate(-83.872 -13.7)" fill="#3d8fa0"/>
    <path id="Path_234" data-name="Path 234" d="M102.418,30.659c.463,0,.926-.011,1.389,0a.644.644,0,0,1,.688.621.658.658,0,0,1-.7.658q-1.369.019-2.738,0a.631.631,0,0,1-.7-.649c0-.381.257-.62.707-.632s.9,0,1.349,0" transform="translate(-83.87 -25.618)" fill="#3d8fa0"/>
  </g>
</svg>
