<svg id="Group_810" data-name="Group 810" xmlns="http://www.w3.org/2000/svg" xmlns:xlink="http://www.w3.org/1999/xlink" width="33.339" height="40" viewBox="0 0 33.339 40">
  <defs>
    <clipPath id="clip-path">
      <rect id="Rectangle_1054" data-name="Rectangle 1054" width="33.339" height="40" fill="#3d8fa0"/>
    </clipPath>
  </defs>
  <g id="Group_798" data-name="Group 798" clip-path="url(#clip-path)">
    <path id="Path_204" data-name="Path 204" d="M17.138,0c.21.062.424.116.63.188A3.357,3.357,0,0,1,20.007,3.4c.011.573.017,1.146,0,1.718a.431.431,0,0,0,.353.495,11.682,11.682,0,0,1,7.976,11.28c.006,1.926-.051,3.858.068,5.778a11.108,11.108,0,0,0,3.662,7.575c.17.161.352.31.518.475a2.46,2.46,0,0,1,.558,2.736,2.386,2.386,0,0,1-2.289,1.538c-2.695.021-5.39.007-8.085.008h-.307a5.887,5.887,0,0,1-2.7,4.109,5.682,5.682,0,0,1-3.459.881A5.921,5.921,0,0,1,10.867,35h-.412c-2.63,0-5.26.007-7.89,0A2.478,2.478,0,0,1,.205,31.558a3.132,3.132,0,0,1,.786-1.046,11.516,11.516,0,0,0,3.827-6.8A14.548,14.548,0,0,0,5,21.5c.028-1.731-.012-3.463.022-5.194A11.616,11.616,0,0,1,12.871,5.647.556.556,0,0,0,13.339,5a14.615,14.615,0,0,1,.028-1.989A3.267,3.267,0,0,1,16.022.068,1.267,1.267,0,0,0,16.2,0h.937m-.451,33.339v-.02q2.5,0,5,0,4.471.007,8.941.021a.912.912,0,0,0,.981-.547c.15-.375.041-.688-.37-1.056a13.2,13.2,0,0,1-4.567-10.29c0-1.549.009-3.1,0-4.647a11.157,11.157,0,0,0-.1-1.556,10,10,0,0,0-19.889,1.2c-.024,1.887.028,3.776-.021,5.662a12.768,12.768,0,0,1-2.813,7.783,25.2,25.2,0,0,1-1.826,1.92.863.863,0,0,0-.285.978.849.849,0,0,0,.861.548c.117,0,.234,0,.351,0H16.687m-4.073,1.673a4.159,4.159,0,0,0,4.151,3.32,4.11,4.11,0,0,0,3.942-3.32ZM18.3,5.045a.665.665,0,0,0,.022-.129c0-.559.016-1.118-.006-1.676a1.642,1.642,0,0,0-1.546-1.572,1.594,1.594,0,0,0-1.7,1.25,15.58,15.58,0,0,0-.021,2.127Z" transform="translate(0)" fill="#3d8fa0"/>
  </g>
</svg>
