<svg id="Group_811" data-name="Group 811" xmlns="http://www.w3.org/2000/svg" xmlns:xlink="http://www.w3.org/1999/xlink" width="39.988" height="40" viewBox="0 0 39.988 40">
  <defs>
    <clipPath id="clip-path">
      <rect id="Rectangle_1055" data-name="Rectangle 1055" width="39.988" height="40" fill="#3d8fa0"/>
    </clipPath>
  </defs>
  <g id="Group_800" data-name="Group 800" clip-path="url(#clip-path)">
    <path id="Path_205" data-name="Path 205" d="M5.078,40H1.641A2.118,2.118,0,0,1,0,37.552Q0,31.5,0,25.444a1.979,1.979,0,0,1,2.066-2.1c.846-.01,1.692,0,2.538,0a1.989,1.989,0,0,1,1.843,1.1c.051.09.147.216.227.219.5.02,1,.01,1.521.01A12.845,12.845,0,0,1,10.128,12c-.669.223-1.246.418-1.824.607a2.161,2.161,0,0,1-2.1-.352A2.229,2.229,0,0,1,6.51,8.522Q11.787,5.3,17.069,2.084a5.054,5.054,0,0,1,2.7-.753q6.638.008,13.276.006a.514.514,0,0,0,.548-.3A1.9,1.9,0,0,1,35.315.005c.4-.011.807,0,1.21,0H37.54a2.121,2.121,0,0,1,2.448,1.64V15.08a2.222,2.222,0,0,1-2.53,1.59c-.661-.045-1.327-.016-1.991-.006a2.033,2.033,0,0,1-1.945-1.129.38.38,0,0,0-.242-.193c-.489-.018-.98-.009-1.51-.009a12.733,12.733,0,0,1-1.952,12.679c.729-.243,1.337-.466,1.956-.648a2.239,2.239,0,0,1,1.693,4.123q-5.259,3.215-10.523,6.42a5.169,5.169,0,0,1-2.779.766c-3.058-.01-6.117,0-9.175,0-1.366,0-2.733,0-4.1,0-.13,0-.344.026-.377.1A2.386,2.386,0,0,1,5.078,40M18.651,9.151c-1.834.611-3.632,1.209-5.428,1.814a1.193,1.193,0,0,0-.326.208,11.315,11.315,0,0,0-3.122,13.7.745.745,0,0,0,.233.294c.731.471,1.476.921,2.206,1.395a4.5,4.5,0,0,0,2.649.774c.9-.027,1.8-.029,2.693,0a4.36,4.36,0,0,1,1.373.224,3.455,3.455,0,0,1,2.414,3.279c1.826-.61,3.635-1.214,5.444-1.822a.976.976,0,0,0,.262-.165A11.325,11.325,0,0,0,30.209,15.1.679.679,0,0,0,30,14.834c-.808-.519-1.623-1.029-2.437-1.539a4.054,4.054,0,0,0-2.257-.634c-.95.013-1.9-.029-2.849.01a3.669,3.669,0,0,1-3.808-3.52M33.308,2.665h-.378q-6.6,0-13.2,0a3.667,3.667,0,0,0-1.962.552q-3.027,1.853-6.061,3.7-2.248,1.37-4.5,2.743a.924.924,0,0,0-.455,1.22c.217.472.68.622,1.3.415,3.733-1.247,7.464-2.5,11.2-3.736a4.3,4.3,0,0,1,1.258-.2c1.444-.024,2.889-.014,4.333-.008A5,5,0,0,0,27.888,6.4c.409-.3.785-.262,1.029.07s.158.707-.245,1a6.124,6.124,0,0,1-3.68,1.2c-1.457.007-2.915.013-4.373-.007a.486.486,0,0,0-.545.421,1.322,1.322,0,0,0,.222,1.148,2.407,2.407,0,0,0,2.008,1.1c.989.018,1.978.022,2.967,0a5.288,5.288,0,0,1,3.126.925c.53.354,1.056.714,1.595,1.054a5.051,5.051,0,0,0,3.315.659ZM6.673,37.337h.46q6.52,0,13.04,0a3.917,3.917,0,0,0,2.108-.591q3.574-2.193,7.16-4.367,1.7-1.035,3.4-2.072a.881.881,0,0,0,.456-.956.823.823,0,0,0-.716-.725,1.421,1.421,0,0,0-.644.087C28.5,29.862,25.055,31,21.626,32.177a8.158,8.158,0,0,1-3.012.5c-1.156-.046-2.316-.005-3.474-.012A4.988,4.988,0,0,0,12.1,33.6a.678.678,0,0,1-1.027-.088c-.236-.339-.142-.7.265-1a6.126,6.126,0,0,1,3.646-1.186c1.406-.006,2.811,0,4.217,0,.58,0,.825-.244.741-.828a1.9,1.9,0,0,0-.323-.818,2.347,2.347,0,0,0-1.931-1.011c-.859-.016-1.72-.044-2.576,0a6.037,6.037,0,0,1-4.042-1.266,11.971,11.971,0,0,0-1.554-.966,4.98,4.98,0,0,0-2.846-.408ZM34.664,8.3q0,3.084,0,6.169c0,.652.208.855.868.857.781,0,1.561,0,2.342,0,.543,0,.783-.244.783-.792q0-6.208,0-12.415c0-.538-.252-.781-.8-.785-.768-.005-1.535,0-2.3,0-.679,0-.892.209-.892.878q0,3.045,0,6.09M5.326,31.693q0-3.1,0-6.207c0-.585-.22-.807-.8-.811q-1.19-.007-2.381,0c-.577,0-.815.233-.816.8q0,6.188,0,12.376c0,.583.245.817.841.82.755,0,1.509,0,2.264,0,.674,0,.887-.212.887-.885q0-3.045,0-6.09" transform="translate(0 0)" fill="#3d8fa0"/>
    <path id="Path_206" data-name="Path 206" d="M130.724,111.21a4.674,4.674,0,0,1,2.3.957,2.468,2.468,0,0,1,.038,3.951,4.4,4.4,0,0,1-1.6.833c-.556.148-.853.3-.786.935a.58.58,0,0,1-.625.607.641.641,0,0,1-.673-.616c-.029-.241.039-.558-.091-.705s-.457-.127-.691-.2a3.28,3.28,0,0,1-2.493-2.279,1.939,1.939,0,0,1-.054-.5.656.656,0,0,1,.612-.681.676.676,0,0,1,.7.556,2.013,2.013,0,0,0,1.979,1.667v-3.243c-.322-.084-.653-.148-.968-.257a3.164,3.164,0,0,1-2.227-2.059,2.4,2.4,0,0,1,.792-2.573,3.934,3.934,0,0,1,2.085-.984c.287-.048.376-.161.35-.431a1.643,1.643,0,0,1,.023-.466.607.607,0,0,1,.625-.532c.339-.013.689.211.644.534-.109.791.376.88.956,1.047a3.091,3.091,0,0,1,2.349,2.218,1.951,1.951,0,0,1,.055.5.657.657,0,0,1-.612.682.677.677,0,0,1-.7-.556,2.012,2.012,0,0,0-1.978-1.667Zm0,1.383v3.176a2.8,2.8,0,0,0,1.686-.873,1.029,1.029,0,0,0,.122-1.264,2.441,2.441,0,0,0-1.808-1.039m-1.387-4.683a2.792,2.792,0,0,0-1.679.857,1.044,1.044,0,0,0-.215,1.123,2.146,2.146,0,0,0,1.894,1.137Z" transform="translate(-110.032 -91.838)" fill="#3d8fa0"/>
    <path id="Path_207" data-name="Path 207" d="M183.369,127.529a10.216,10.216,0,0,1-6.66,9.977c-.471.164-.841.039-.984-.331-.154-.4.038-.731.527-.921a8.564,8.564,0,0,0,5.672-6.832,8.3,8.3,0,0,0-.45-4.413c-.036-.1-.084-.191-.115-.29a.667.667,0,0,1,.4-.89.652.652,0,0,1,.842.426,9.51,9.51,0,0,1,.766,3.274" transform="translate(-153.38 -108.08)" fill="#3d8fa0"/>
    <path id="Path_208" data-name="Path 208" d="M78.638,92.365a10.055,10.055,0,0,1,6.685-9.449c.572-.2,1.049.082,1.024.6-.02.409-.314.564-.649.685a8.215,8.215,0,0,0-3.932,2.9,8.531,8.531,0,0,0-1.212,8.314c.039.11.094.215.124.328a.658.658,0,0,1-.416.85.614.614,0,0,1-.818-.4c-.264-.867-.5-1.745-.7-2.628a8.442,8.442,0,0,1-.107-1.2" transform="translate(-68.659 -72.339)" fill="#3d8fa0"/>
  </g>
</svg>
