<svg id="Group_813" data-name="Group 813" xmlns="http://www.w3.org/2000/svg" xmlns:xlink="http://www.w3.org/1999/xlink" width="39.949" height="40" viewBox="0 0 39.949 40">
  <defs>
    <clipPath id="clip-path">
      <rect id="Rectangle_1059" data-name="Rectangle 1059" width="39.949" height="40" fill="#3d8fa0"/>
    </clipPath>
  </defs>
  <g id="Group_808" data-name="Group 808" clip-path="url(#clip-path)">
    <path id="Path_235" data-name="Path 235" d="M4.005,36.147c-.4,0-.751,0-1.1,0a2.7,2.7,0,0,1-2.9-2.9q0-15.1,0-30.192A2.684,2.684,0,0,1,2.865.167q10.79-.005,21.58,0A2.66,2.66,0,0,1,27.3,3.009q.008,2.519,0,5.039c0,.474-.231.748-.618.77a.655.655,0,0,1-.7-.729c-.011-.873,0-1.746,0-2.619,0-.833.007-1.666,0-2.5A1.348,1.348,0,0,0,24.494,1.5q-10.83,0-21.66,0A1.35,1.35,0,0,0,1.339,3q0,15.156,0,30.312a1.353,1.353,0,0,0,1.495,1.5q10.83,0,21.66,0a1.351,1.351,0,0,0,1.487-1.473c.009-.741,0-1.481,0-2.222,0-.507.272-.812.679-.8s.636.308.64.8c0,.767.01,1.534,0,2.3a2.635,2.635,0,0,1-2.537,2.719c-.184.016-.37.013-.555.013H5.377a13.729,13.729,0,0,0,.014,1.65,1.213,1.213,0,0,0,1.139.991c.145.011.291.007.436.007H28.348c1.162,0,1.631-.471,1.631-1.637q0-3.69,0-7.379a2.3,2.3,0,0,1,.01-.4.626.626,0,0,1,.62-.563.6.6,0,0,1,.654.465,1.8,1.8,0,0,1,.048.47q0,3.729,0,7.459a2.692,2.692,0,0,1-2.91,2.921H6.9a2.657,2.657,0,0,1-2.9-2.878c0-.354,0-.708,0-1.109" transform="translate(0 -0.135)" fill="#3d8fa0"/>
    <path id="Path_236" data-name="Path 236" d="M111.529,12.592l5.853,3.122c.08-.137.155-.255.22-.379q2.264-4.249,4.526-8.5L122.2,6.7c.267-.488.611-.639.987-.433s.439.588.184,1.064c-1.571,2.949-3.117,5.912-4.725,8.841a17.531,17.531,0,0,0-1.907,5.842c-.209,1.357-.333,2.727-.482,4.092a1.171,1.171,0,0,1-1.264,1.1,10.485,10.485,0,0,0-3.544.767,14.968,14.968,0,0,0-4.561,2.891,1.754,1.754,0,0,1-1.289.487c-1.071-.022-2.142,0-3.213-.008-.518,0-.811-.244-.816-.66s.29-.674.8-.677c.779,0,1.558,0,2.387,0,.044-.305.1-.6.127-.894a13.127,13.127,0,0,0-1.629-8.25,1.121,1.121,0,0,1,.352-1.6,30.364,30.364,0,0,0,4.914-4.6,16.05,16.05,0,0,0,1.687-2.485c2.072-3.819,4.1-7.663,6.141-11.5a2.512,2.512,0,0,1,.239-.41.618.618,0,0,1,.813-.19.643.643,0,0,1,.333.8,3.5,3.5,0,0,1-.229.461l-5.772,10.842c-.067.126-.129.253-.208.408m-3.982,15.922a14.8,14.8,0,0,1,7.386-2.648,29.861,29.861,0,0,1,1.849-8.965l-5.9-3.141a30.044,30.044,0,0,1-6.411,6.535,14.4,14.4,0,0,1,1.888,7.51,1.08,1.08,0,0,0,.206-.286c.567-1.075,1.125-2.154,1.706-3.221a.424.424,0,0,0-.061-.578,2.624,2.624,0,1,1,1.392.9l-2.051,3.891m2.686-7.82a1.323,1.323,0,1,0,1.322,1.342,1.323,1.323,0,0,0-1.322-1.342" transform="translate(-83.577 0)" fill="#3d8fa0"/>
    <path id="Path_237" data-name="Path 237" d="M114.137,26.2v.534c0,.886.008,1.772-.005,2.658a.666.666,0,1,1-1.33-.009c-.006-1.957,0-3.914,0-5.872a.648.648,0,0,1,.475-.7.667.667,0,0,1,.819.387c.587,1.064,1.18,2.125,1.772,3.186a.832.832,0,0,0,.266.309q0-1.257,0-2.515c0-.251-.01-.5,0-.754a.64.64,0,0,1,.627-.639.656.656,0,0,1,.691.576,1.357,1.357,0,0,1,.013.237q0,2.837,0,5.673a.744.744,0,0,1-.395.759.674.674,0,0,1-.918-.375c-.587-1.049-1.168-2.1-1.753-3.151-.061-.109-.13-.215-.195-.322l-.072.013" transform="translate(-92.813 -18.746)" fill="#3d8fa0"/>
    <path id="Path_238" data-name="Path 238" d="M41.416,26.424a4.27,4.27,0,0,1,.857-2.7,2.19,2.19,0,0,1,3.594-.013A4.714,4.714,0,0,1,45.9,29.12a2.187,2.187,0,0,1-3.639.01,4.268,4.268,0,0,1-.844-2.706m4,.009a3.152,3.152,0,0,0-.548-1.832.892.892,0,0,0-1.593.009,3.408,3.408,0,0,0,.008,3.664.889.889,0,0,0,1.591-.012,3.169,3.169,0,0,0,.541-1.829" transform="translate(-34.078 -18.741)" fill="#3d8fa0"/>
    <path id="Path_239" data-name="Path 239" d="M30.32,164.87c-.211,0-.424-.014-.634,0a1.852,1.852,0,0,1-1.883-.979c-.224-.381-.39-.372-.637-.012-.224.326-.437.661-.661.987a1.531,1.531,0,0,1-1.569.709,1.557,1.557,0,0,1-1.307-1.122,3.7,3.7,0,0,0-.35-.611,5.915,5.915,0,0,0-.462.433,1.618,1.618,0,0,1-1.248.59q-.991.013-1.981,0a.673.673,0,1,1-.017-1.335c.608-.01,1.216.014,1.822-.014a.692.692,0,0,0,.476-.243,1.587,1.587,0,0,1,1.59-.756,1.551,1.551,0,0,1,1.338,1.188.872.872,0,0,0,.067.226c.074.113.158.281.259.3s.26-.1.335-.2c.243-.328.451-.683.689-1.016a1.566,1.566,0,0,1,2.66.011,1.011,1.011,0,0,0,1.037.514c.513-.033,1.03-.014,1.545,0a.673.673,0,1,1,0,1.336c-.356.007-.713,0-1.07,0" transform="translate(-15.488 -133.527)" fill="#3d8fa0"/>
    <path id="Path_240" data-name="Path 240" d="M80.584,29.391a.649.649,0,0,1-.484.7.61.61,0,0,1-.76-.344c-.115-.235-.162-.5-.278-.738a.434.434,0,0,0-.3-.217c-.554-.022-1.109-.024-1.662,0a.487.487,0,0,0-.317.246,5.178,5.178,0,0,0-.21.595.673.673,0,0,1-.846.454.663.663,0,0,1-.4-.9q.89-2.7,1.793-5.4c.042-.125.089-.248.126-.375.1-.344.281-.6.679-.605s.574.246.687.592c.44,1.34.891,2.676,1.338,4.014q.282.844.561,1.689c.037.112.061.227.078.292M77.928,25.57l-.618,1.862h1.236l-.618-1.862" transform="translate(-61.938 -18.763)" fill="#3d8fa0"/>
    <path id="Path_241" data-name="Path 241" d="M20.245,102.977c-1.374,0-2.747.006-4.12-.006a.9.9,0,0,1-.587-.152.827.827,0,0,1-.241-.642c.055-.206.316-.371.514-.517.079-.058.231-.02.35-.02h8.162c.079,0,.159,0,.238,0a.679.679,0,0,1,.677.643.67.67,0,0,1-.673.687c-.342.019-.687.006-1.03.006H20.245" transform="translate(-12.577 -83.62)" fill="#3d8fa0"/>
    <path id="Path_242" data-name="Path 242" d="M20.134,120.487q2.12,0,4.239,0c.323,0,.614.121.667.438a.983.983,0,0,1-.178.7.893.893,0,0,1-.611.189c-.818.02-1.638.008-2.456.008h-5.7a2.252,2.252,0,0,1-.395-.018.65.65,0,0,1-.566-.7.636.636,0,0,1,.647-.618c.5-.016,1-.005,1.505-.005h2.852" transform="translate(-12.448 -99.136)" fill="#3d8fa0"/>
    <path id="Path_243" data-name="Path 243" d="M20.127,82.884c1.413,0,2.826,0,4.239,0a.679.679,0,0,1,.742.659.692.692,0,0,1-.729.677c-.092.005-.185,0-.277,0H16.138c-.119,0-.239.007-.356,0a.662.662,0,0,1-.652-.7.644.644,0,0,1,.679-.629c.7-.013,1.4,0,2.1,0h2.219" transform="translate(-12.448 -68.197)" fill="#3d8fa0"/>
    <path id="Path_244" data-name="Path 244" d="M20.1,139.3q2.08,0,4.16,0c.532,0,.853.261.844.675s-.318.66-.826.66q-4.18,0-8.359,0c-.51,0-.8-.261-.794-.682s.29-.648.815-.654H20.1" transform="translate(-12.449 -114.615)" fill="#3d8fa0"/>
    <path id="Path_245" data-name="Path 245" d="M16.436,28.788c.6,0,1.137,0,1.677,0a2.221,2.221,0,0,1,.434.027.649.649,0,0,1,.54.718.634.634,0,0,1-.639.586q-1.348.019-2.7,0a.615.615,0,0,1-.638-.664q-.011-2.995,0-5.989a.623.623,0,0,1,.61-.651.637.637,0,0,1,.7.6,6.044,6.044,0,0,1,.015.673c0,1.545,0,3.091,0,4.7" transform="translate(-12.43 -18.77)" fill="#3d8fa0"/>
    <path id="Path_246" data-name="Path 246" d="M86.56,82.893c.977,0,1.954,0,2.932,0,.513,0,.815.245.823.654s-.3.684-.838.684q-2.932,0-5.863,0c-.54,0-.843-.253-.839-.68s.3-.658.854-.659q1.466,0,2.932,0" transform="translate(-68.109 -68.205)" fill="#3d8fa0"/>
    <path id="Path_247" data-name="Path 247" d="M85.437,139.29c.608,0,1.216-.005,1.824,0a.669.669,0,1,1,.021,1.331q-1.9.015-3.807,0a.666.666,0,1,1,.019-1.329c.648-.008,1.3,0,1.943,0" transform="translate(-68.109 -114.608)" fill="#3d8fa0"/>
    <path id="Path_248" data-name="Path 248" d="M84.811,120.493c.422,0,.845-.006,1.267,0a.682.682,0,0,1,.733.666.675.675,0,0,1-.7.664q-1.326.024-2.652,0a.666.666,0,1,1,.046-1.329c.435-.007.871,0,1.306,0" transform="translate(-68.109 -99.142)" fill="#3d8fa0"/>
    <path id="Path_249" data-name="Path 249" d="M84.713,103.017c-.382,0-.764,0-1.146,0-.5-.008-.8-.268-.791-.683s.292-.65.776-.653c.79,0,1.581-.006,2.371,0,.474,0,.758.269.751.677a.67.67,0,0,1-.736.658c-.408.01-.816,0-1.225,0" transform="translate(-68.109 -83.661)" fill="#3d8fa0"/>
  </g>
</svg>
