<svg id="Group_815" data-name="Group 815" xmlns="http://www.w3.org/2000/svg" xmlns:xlink="http://www.w3.org/1999/xlink" width="39.962" height="40" viewBox="0 0 39.962 40">
  <defs>
    <clipPath id="clip-path">
      <rect id="Rectangle_1057" data-name="Rectangle 1057" width="39.962" height="40" fill="#3d8fa0"/>
    </clipPath>
  </defs>
  <g id="Group_804" data-name="Group 804" clip-path="url(#clip-path)">
    <path id="Path_225" data-name="Path 225" d="M0,22.574c.059-.462.09-.929.181-1.385a5.781,5.781,0,0,1,1.544-2.97c1.073-1.1,2.11-2.242,3.265-3.248a3.661,3.661,0,0,1,5.365.063c1.8,1.689,3.532,3.464,5.217,5.272a3.556,3.556,0,0,1,.028,4.785c-.9,1.025-1.893,1.969-2.859,2.935a.4.4,0,0,0-.105.554,21.981,21.981,0,0,0,3.816,5.208,26.319,26.319,0,0,0,5.061,4.268c.535.341,1.106.623,1.7.955.643-.652,1.267-1.3,1.9-1.925.426-.42.854-.841,1.313-1.223a3.569,3.569,0,0,1,4.693.068c1.864,1.778,3.688,3.6,5.455,5.475a3.615,3.615,0,0,1,.063,4.919,48.748,48.748,0,0,1-3.711,3.79,6.171,6.171,0,0,1-4.883,1.406,23.263,23.263,0,0,1-9.309-3.276,38.491,38.491,0,0,1-9.55-7.481A37.729,37.729,0,0,1,1.2,28.342,15.876,15.876,0,0,1,.056,23.384,1.54,1.54,0,0,0,0,23.121v-.547m2.3.328c.042.453.078.907.129,1.359a5.833,5.833,0,0,0,.118.612,25.119,25.119,0,0,0,3.246,7.689A38.267,38.267,0,0,0,21.666,47.214a18.45,18.45,0,0,0,6.548,2.049,4.325,4.325,0,0,0,3.7-1.256c.878-.907,1.77-1.8,2.648-2.708a1.706,1.706,0,0,0,0-2.775c-.645-.662-1.3-1.309-1.959-1.962-.912-.911-1.815-1.83-2.739-2.729a1.5,1.5,0,0,0-2.227-.052c-.128.11-.248.23-.368.35-.894.892-1.783,1.789-2.682,2.675a1.675,1.675,0,0,1-2.067.4,24.733,24.733,0,0,1-2.253-1.241,29.346,29.346,0,0,1-6.4-5.626,20.927,20.927,0,0,1-3.347-4.919c-.662-1.436-.568-1.885.571-2.986.9-.868,1.794-1.741,2.65-2.65a1.45,1.45,0,0,0,.027-2.137c-.074-.09-.152-.179-.234-.262q-2.317-2.323-4.638-4.64a2.35,2.35,0,0,0-.563-.413,1.618,1.618,0,0,0-2,.477c-.873.857-1.717,1.745-2.6,2.589A4.42,4.42,0,0,0,2.3,22.9" transform="translate(0 -11.557)" fill="#3d8fa0"/>
    <path id="Path_226" data-name="Path 226" d="M129.14,0c.9.234,1.815.436,2.705.709a20.887,20.887,0,0,1,7.76,4.36,21.535,21.535,0,0,1,5.581,7.618,21.173,21.173,0,0,1,1.474,4.956,1.121,1.121,0,0,1-2.174.524c-.239-.836-.393-1.7-.644-2.528a19.325,19.325,0,0,0-14.869-13.31c-.876-.165-1.266-.571-1.243-1.238A1.219,1.219,0,0,1,128.593,0Z" transform="translate(-106.717)" fill="#3d8fa0"/>
    <path id="Path_227" data-name="Path 227" d="M125.771,45.269a1.128,1.128,0,0,1,1.368-1.122,13.008,13.008,0,0,1,8.419,5.327,12.822,12.822,0,0,1,2.216,5.235,1.143,1.143,0,1,1-2.217.549,19.733,19.733,0,0,0-.8-2.56,10.671,10.671,0,0,0-7.96-6.3,1.126,1.126,0,0,1-1.028-1.13" transform="translate(-105.08 -36.866)" fill="#3d8fa0"/>
  </g>
</svg>
