<svg id="Group_812" data-name="Group 812" xmlns="http://www.w3.org/2000/svg" xmlns:xlink="http://www.w3.org/1999/xlink" width="40.007" height="40" viewBox="0 0 40.007 40">
  <defs>
    <clipPath id="clip-path">
      <rect id="Rectangle_1056" data-name="Rectangle 1056" width="40.007" height="40" fill="#3d8fa0"/>
    </clipPath>
  </defs>
  <g id="Group_802" data-name="Group 802" clip-path="url(#clip-path)">
    <path id="Path_209" data-name="Path 209" d="M0,21.721a5.156,5.156,0,0,1,1.686-2.6q9.016-8.988,18.008-18A3.329,3.329,0,0,1,24.215.7a5.349,5.349,0,0,1,.519.472c3.765,3.764,7.519,7.54,11.3,11.288a3.458,3.458,0,0,1,.939,4.1c-.013.032,0,.075.05.016a11.387,11.387,0,0,1,1.687.827A3,3,0,0,1,40,19.954q.018,8.376,0,16.751a3.3,3.3,0,0,1-2.665,3.224,2.234,2.234,0,0,0-.22.072H9.532a.255.255,0,0,0-.065-.041,3.365,3.365,0,0,1-2.813-3.654c0-1.91.007-3.821-.011-5.731a.9.9,0,0,0-.238-.568c-1.6-1.619-3.2-3.236-4.826-4.824A4.782,4.782,0,0,1,0,22.658ZM23.327,38.67H36.451a2.028,2.028,0,0,0,2.223-2.233q0-8.1,0-16.206A2.029,2.029,0,0,0,36.449,18q-13.1,0-26.207,0A2.036,2.036,0,0,0,8,20.252q0,8.083,0,16.167a2.035,2.035,0,0,0,2.247,2.251H23.327M16.512,16.648c.092.005.169.013.245.013q9.116,0,18.232-.009a.744.744,0,0,0,.491-.225,2,2,0,0,0-.155-2.778q-3.913-3.926-7.838-7.842a.372.372,0,0,0-.069-.055L16.512,16.648M23.635,1.967a2.045,2.045,0,0,0-3,.1Q11.352,11.35,2.076,20.632a3.027,3.027,0,0,0-.466.572,1.856,1.856,0,0,0,.336,2.365C3.63,21.887,5.319,20.208,7,18.516c.363-.367.666-.792,1.025-1.164.2-.212.488-.348.7-.556Q16.014,9.512,23.3,2.22a3.206,3.206,0,0,1,.332-.253m.978.993L10.9,16.662c1.018,0,2.082-.011,3.146.007a.983.983,0,0,0,.785-.318q5.633-5.659,11.287-11.3a1.888,1.888,0,0,1,.364-.229L24.613,2.96M6.661,20.842,2.893,24.576c.04.046.087.106.14.159.56.561,1.121,1.122,1.741,1.742.251-.278.48-.544.722-.8.377-.4.909-.722,1.1-1.19a4.545,4.545,0,0,0,.061-1.621c0-.671,0-1.343,0-2.026m-.83,6.491.8.83V26.515l-.8.818" transform="translate(0 -0.001)" fill="#3d8fa0"/>
    <path id="Path_210" data-name="Path 210" d="M65.056,137.758c-.651,0-1.3.008-1.952,0a1.289,1.289,0,0,1-1.355-1.312q-.039-1.346,0-2.693a1.3,1.3,0,0,1,1.394-1.318q1.932-.009,3.865,0a1.332,1.332,0,0,1,1.4,1.4q.017,1.268,0,2.537a1.325,1.325,0,0,1-1.4,1.391c-.651.007-1.3,0-1.952,0M63.1,136.4h3.953v-2.609H63.1Z" transform="translate(-52.407 -112.431)" fill="#3d8fa0"/>
    <path id="Path_211" data-name="Path 211" d="M134.478,203.083c.43,0,.86-.011,1.289,0a.662.662,0,1,1,.005,1.323q-1.308.026-2.617,0a.652.652,0,0,1-.681-.66.66.66,0,0,1,.714-.662c.429-.013.859,0,1.289,0" transform="translate(-112.47 -172.411)" fill="#3d8fa0"/>
    <path id="Path_212" data-name="Path 212" d="M99.206,204.409c-.417,0-.834.01-1.25,0-.475-.014-.748-.268-.747-.671s.269-.653.753-.658q1.25-.014,2.5,0a.664.664,0,0,1,.735.643.68.68,0,0,1-.741.684c-.416.013-.833,0-1.25,0" transform="translate(-82.529 -172.404)" fill="#3d8fa0"/>
    <path id="Path_213" data-name="Path 213" d="M99.225,220.771c.428,0,.856-.009,1.284,0a.66.66,0,1,1,.023,1.319q-1.322.029-2.645,0a.645.645,0,0,1-.678-.693.637.637,0,0,1,.694-.629c.441-.011.882,0,1.323,0" transform="translate(-82.528 -187.429)" fill="#3d8fa0"/>
    <path id="Path_214" data-name="Path 214" d="M63.866,220.773c.43,0,.86-.009,1.289,0a.661.661,0,0,1,.7.638.654.654,0,0,1-.662.68c-.885.02-1.771.019-2.656,0a.649.649,0,0,1-.674-.666.66.66,0,0,1,.715-.659h1.289Z" transform="translate(-52.52 -187.431)" fill="#3d8fa0"/>
    <path id="Path_215" data-name="Path 215" d="M63.847,204.409c-.416,0-.833.011-1.249,0a.668.668,0,0,1-.728-.691.661.661,0,0,1,.737-.637q1.249-.015,2.5,0a.674.674,0,0,1,.754.665c0,.389-.3.644-.762.666-.026,0-.052,0-.078,0H63.847Z" transform="translate(-52.525 -172.404)" fill="#3d8fa0"/>
    <path id="Path_216" data-name="Path 216" d="M63.117,177.93c0,.234.017.469,0,.7a.634.634,0,0,1-.667.62.621.621,0,0,1-.639-.6,13.094,13.094,0,0,1,0-1.44.637.637,0,0,1,.642-.609.657.657,0,0,1,.664.632c.021.232,0,.467,0,.7" transform="translate(-52.456 -149.928)" fill="#3d8fa0"/>
    <path id="Path_217" data-name="Path 217" d="M133.744,177.918c0,.234.013.469,0,.7a.659.659,0,0,1-1.318,0c-.019-.467-.02-.937,0-1.4a.653.653,0,0,1,.677-.619.673.673,0,0,1,.641.619.706.706,0,0,1,0,.078q0,.312,0,.624h0" transform="translate(-112.414 -149.928)" fill="#3d8fa0"/>
    <path id="Path_218" data-name="Path 218" d="M97.182,177.928c0-.234-.012-.469,0-.7a.651.651,0,0,1,.627-.625.622.622,0,0,1,.665.536,10.319,10.319,0,0,1,0,1.593.605.605,0,0,1-.709.518.623.623,0,0,1-.583-.62c-.014-.233,0-.468,0-.7" transform="translate(-82.503 -149.932)" fill="#3d8fa0"/>
    <path id="Path_219" data-name="Path 219" d="M114.82,177.93c0-.234-.012-.469,0-.7a.658.658,0,0,1,.629-.627.642.642,0,0,1,.678.572,12.142,12.142,0,0,1,0,1.519.621.621,0,0,1-.681.561.643.643,0,0,1-.628-.621c0-.026,0-.052,0-.078q0-.312,0-.624h0" transform="translate(-97.477 -149.931)" fill="#3d8fa0"/>
    <path id="Path_220" data-name="Path 220" d="M169.1,177.956c0,.234.014.469,0,.7a.616.616,0,0,1-.6.6.579.579,0,0,1-.677-.507,9.532,9.532,0,0,1,0-1.629.6.6,0,0,1,.68-.508.621.621,0,0,1,.6.606c.017.246,0,.493,0,.74" transform="translate(-142.444 -149.935)" fill="#3d8fa0"/>
    <path id="Path_221" data-name="Path 221" d="M79.524,177.931c0-.234-.013-.468,0-.7a.651.651,0,0,1,.618-.634.63.63,0,0,1,.679.567,10.745,10.745,0,0,1,0,1.516.613.613,0,0,1-.671.569.629.629,0,0,1-.628-.616c-.017-.233,0-.467,0-.7" transform="translate(-67.51 -149.927)" fill="#3d8fa0"/>
    <path id="Path_222" data-name="Path 222" d="M222.1,177.943a6.571,6.571,0,0,1,0,.7.642.642,0,0,1-.682.608.629.629,0,0,1-.631-.654c-.014-.454-.015-.91,0-1.364a.643.643,0,0,1,.617-.634.673.673,0,0,1,.69.565.6.6,0,0,1,.014.116c0,.221,0,.442,0,.663H222.1" transform="translate(-187.436 -149.93)" fill="#3d8fa0"/>
    <path id="Path_223" data-name="Path 223" d="M186.749,177.938c0,.247.019.5,0,.739a.62.62,0,0,1-.624.576.6.6,0,0,1-.659-.534,11.221,11.221,0,0,1-.005-1.555.613.613,0,0,1,.678-.562.621.621,0,0,1,.613.595c.022.245,0,.493,0,.74h0" transform="translate(-157.429 -149.931)" fill="#3d8fa0"/>
    <path id="Path_224" data-name="Path 224" d="M203.144,177.916c0-.234-.016-.469,0-.7a.648.648,0,0,1,.633-.618.633.633,0,0,1,.664.584,11.12,11.12,0,0,1-.005,1.516.609.609,0,0,1-.682.553.624.624,0,0,1-.608-.594c-.022-.245,0-.493,0-.74h0" transform="translate(-172.462 -149.928)" fill="#3d8fa0"/>
  </g>
</svg>
