<svg xmlns="http://www.w3.org/2000/svg" width="103" height="102" viewBox="0 0 103 102"><g transform="translate(-1040.078 0.12)"><rect width="103" height="102" rx="4" transform="translate(1040.078 -0.12)" fill="#eef2f4"/><g transform="translate(1059.377 45.606)"><path d="M6.861,6H37.752a3.873,3.873,0,0,1,3.861,3.861V33.029a3.873,3.873,0,0,1-3.861,3.861H6.861A3.873,3.873,0,0,1,3,33.029V9.861A3.873,3.873,0,0,1,6.861,6Z" transform="translate(-1.625 -4.625)" fill="#eef2f4"/><path d="M6.736,4.5H37.626a5.242,5.242,0,0,1,5.236,5.236V32.9a5.242,5.242,0,0,1-5.236,5.236H6.736A5.242,5.242,0,0,1,1.5,32.9V9.736A5.242,5.242,0,0,1,6.736,4.5ZM37.626,35.391A2.49,2.49,0,0,0,40.113,32.9V9.736a2.49,2.49,0,0,0-2.487-2.487H6.736A2.49,2.49,0,0,0,4.249,9.736V32.9a2.49,2.49,0,0,0,2.487,2.487Z" transform="translate(-1.5 -4.5)" fill="#3d8fa0"/><path d="M20.056,22.276a1.373,1.373,0,0,1-.788-.248L2.086,10A1.375,1.375,0,0,1,3.663,7.748L20.056,19.224,36.449,7.748A1.375,1.375,0,0,1,38.025,10L20.844,22.027A1.373,1.373,0,0,1,20.056,22.276Z" transform="translate(2.751 -3.147)" fill="#3d8fa0"/></g><g transform="translate(1077.412 19.515)" fill="#eef2f4" stroke-linecap="round" stroke-linejoin="round"><path d="M 39.96184539794922 44.98971176147461 C 39.80880737304688 44.98971176147461 39.65388488769531 44.98271942138672 39.50138473510742 44.96894073486328 L 39.49238586425781 44.96813201904297 L 39.4833984375 44.9671516418457 C 36.25606536865234 44.61654281616211 33.06884765625 43.88711166381836 30.01026725769043 42.79911041259766 C 26.95318984985352 41.71165084838867 24.02273941040039 40.26532363891602 21.30011749267578 38.50018692016602 C 18.76660346984863 36.88990783691406 16.40573883056641 34.99715423583984 14.28303623199463 32.87446212768555 C 12.16060256958008 30.75201797485352 10.26791095733643 28.39125633239746 8.657749176025391 25.85808563232422 C 6.886154174804688 23.12278366088867 5.436337947845459 20.1782054901123 4.348606586456299 17.10619163513184 C 3.260486602783203 14.03305053710938 2.534246683120728 10.83107089996338 2.190066576004028 7.589200973510742 L 2.189236640930176 7.5814208984375 L 2.188536643981934 7.573620796203613 C 2.059666633605957 6.147601127624512 2.539426565170288 4.723260879516602 3.504806518554688 3.665811061859131 C 4.470196723937988 2.608361005783081 5.845066547393799 2.001200914382935 7.276896476745605 1.999981045722961 L 13.44834613800049 1.999981045722961 L 13.48936653137207 1.999781012535095 C 14.7207670211792 1.999781012535095 15.91117668151855 2.444520950317383 16.84128570556641 3.252090930938721 C 17.77202606201172 4.060201168060303 18.37955665588379 5.177481174468994 18.55194664001465 6.398100852966309 L 18.55259704589844 6.40268087387085 L 18.55319595336914 6.407250881195068 C 18.80331611633301 8.304580688476562 19.26931571960449 10.17570114135742 19.93825721740723 11.96864128112793 C 20.63752746582031 13.82876110076904 20.18592643737793 15.94633102416992 18.78689575195312 17.3611011505127 L 18.78492736816406 17.36309051513672 L 18.78295707702637 17.36507034301758 L 16.71603393554688 19.43198585510254 C 19.40739440917969 23.91282653808594 23.16286849975586 27.66799545288086 27.64391708374023 30.35901641845703 L 29.71085739135742 28.29206085205078 L 29.71283721923828 28.29008102416992 L 29.7148265838623 28.28811073303223 C 30.67841720581055 27.33524131774902 31.95557594299316 26.81048011779785 33.31103515625 26.81048011779785 C 33.92703628540039 26.81048011779785 34.53216552734375 26.92054176330566 35.10961532592773 27.13761138916016 C 36.90027618408203 27.80570030212402 38.77138519287109 28.2717113494873 40.66866683959961 28.52181053161621 L 40.67322540283203 28.52241134643555 L 40.67778778076172 28.52305030822754 C 43.24490356445312 28.88552093505859 45.13309860229492 31.11032867431641 45.07503509521484 33.70085525512695 L 45.07503509521484 39.85958099365234 C 45.08085632324219 41.2921028137207 44.47706604003906 42.67303085327148 43.41847610473633 43.64421081542969 C 42.47274780273438 44.51187133789062 41.24515533447266 44.98971176147461 39.96184539794922 44.98971176147461 Z" stroke="none"/><path d="M 39.96184158325195 43.98971176147461 C 40.98690032958984 43.98971176147461 41.98055267333984 43.6063346862793 42.74244689941406 42.90734100341797 C 43.59591674804688 42.12434005737305 44.07973480224609 41.01779937744141 44.07503509521484 39.85958099365234 L 44.07503509521484 33.68897247314453 C 44.1271858215332 31.60092163085938 42.60617828369141 29.80525016784668 40.5379753112793 29.51323127746582 C 38.56310653686523 29.25290107727051 36.62402725219727 28.76997184753418 34.75773620605469 28.07366180419922 C 33.25452041625977 27.50856971740723 31.55986404418945 27.86997032165527 30.41796684265137 28.99916076660156 L 27.80550575256348 31.61164093017578 C 22.65570640563965 28.68369102478027 18.3917064666748 24.42001152038574 15.46336650848389 19.27043151855469 L 18.07584571838379 16.65796089172363 C 19.20504570007324 15.5160608291626 19.56644630432129 13.82143115997314 19.00134658813477 12.31820106506348 C 18.3050365447998 10.45191097259521 17.82211685180664 8.51283073425293 17.56177711486816 6.537950992584229 C 17.27300643920898 4.493340969085693 15.5131721496582 2.979691028594971 13.44834613800049 2.999980926513672 L 7.277746677398682 2.999980926513672 C 6.123016357421875 3.000961065292358 5.021886348724365 3.48724102973938 4.24333667755127 4.340031147003174 C 3.464796543121338 5.192821025848389 3.080546617507935 6.333590984344482 3.184476613998413 7.483621120452881 C 3.859496593475342 13.8416109085083 6.022736549377441 19.95118141174316 9.498946189880371 25.31734085083008 C 12.65693664550781 30.28708076477051 16.87041664123535 34.50056076049805 21.84015655517578 37.65854263305664 C 27.18199729919434 41.12263107299805 33.26192474365234 43.28538131713867 39.59139633178711 43.97299957275391 C 39.71517181396484 43.98418807983398 39.8386344909668 43.98971176147461 39.96184158325195 43.98971176147461 M 39.96184539794922 45.98971176147461 C 39.77880477905273 45.98971176147461 39.59357833862305 45.98134994506836 39.41131591796875 45.96488189697266 C 39.39932632446289 45.96379089355469 39.38735580444336 45.96260070800781 39.37539672851562 45.96129989624023 C 36.07067489624023 45.60227966308594 32.80703735351562 44.85536193847656 29.67512702941895 43.74127960205078 C 26.54607391357422 42.62821960449219 23.54644775390625 41.14791488647461 20.75955009460449 39.34150695800781 C 18.1660213470459 37.6926383972168 15.74907970428467 35.75470352172852 13.57593631744385 33.58156204223633 C 11.40239524841309 31.40802955627441 9.46418285369873 28.99064254760742 7.815108299255371 26.39658355712891 C 6.002543926239014 23.59715270996094 4.519078254699707 20.58371734619141 3.405956506729126 17.43996047973633 C 2.291746616363525 14.29313087463379 1.548096537590027 11.01438140869141 1.195656538009644 7.694770812988281 C 1.194556593894958 7.684401035308838 1.193536520004272 7.674020767211914 1.192596554756165 7.663630962371826 C 1.038516521453857 5.958731174468994 1.612106561660767 4.255830764770508 2.766286611557007 2.991580963134766 C 3.920466661453247 1.727340936660767 5.564206600189209 1.001430988311768 7.276046752929688 0.9999809861183167 L 13.43959426879883 0.9999809861183167 C 13.45617389678955 0.9998496770858765 13.47288227081299 0.9997810125350952 13.48936653137207 0.9997810125350952 C 14.96165657043457 0.9997810125350952 16.38488578796387 1.531500935554504 17.49689674377441 2.496990919113159 C 18.60966682434082 3.463160991668701 19.33601570129395 4.798931121826172 19.5421257019043 6.258251190185547 C 19.5429859161377 6.264350891113281 19.5438175201416 6.270451068878174 19.54462623596191 6.27656078338623 C 19.78489685058594 8.099221229553223 20.23255729675293 9.896700859069824 20.87517738342285 11.61908054351807 C 21.71048736572266 13.84110069274902 21.17057609558105 16.37280082702637 19.49794578552246 18.06424140930176 C 19.49532699584961 18.06689071655273 19.49269676208496 18.06954193115234 19.49005699157715 18.07218170166016 L 17.9826602935791 19.5795726776123 C 20.41618728637695 23.40874671936035 23.66691398620605 26.65919494628906 27.49627304077148 29.09243583679199 L 29.00374603271484 27.58495140075684 C 29.00638580322266 27.58231163024902 29.00903701782227 27.57968139648438 29.01169586181641 27.57705116271973 C 30.16370582580566 26.4378604888916 31.69057655334473 25.81048011779785 33.31103515625 25.81048011779785 C 34.04765701293945 25.81048011779785 34.77117538452148 25.94206047058105 35.46150588989258 26.20157051086426 C 37.17927551269531 26.84246063232422 38.97674560546875 27.29012107849121 40.79935836791992 27.53038024902344 C 40.80543518066406 27.53119087219238 40.81151580810547 27.53202056884766 40.81759643554688 27.53287124633789 C 43.88298797607422 27.96568870544434 46.13868713378906 30.61942100524902 46.07503509521484 33.71169662475586 L 46.07503509521484 39.85710144042969 C 46.08039855957031 41.57259750366211 45.35872650146484 43.22124481201172 44.09450531005859 44.3810920715332 C 42.96382522583008 45.41842269897461 41.49614715576172 45.98971176147461 39.96184539794922 45.98971176147461 Z" stroke="none" fill="#eef2f4"/></g><g transform="translate(1078.454 21.473)" fill="#3d8fa0" stroke-linecap="round"><path d="M 39.83637237548828 46.23872375488281 C 39.6422119140625 46.23872375488281 39.44567108154297 46.22986221313477 39.25221252441406 46.21237182617188 C 39.23786163330078 46.21107482910156 39.22397232055664 46.20969390869141 39.21007919311523 46.20819473266602 C 35.87575149536133 45.84594345092773 32.58348083496094 45.09247207641602 29.42412185668945 43.96863174438477 C 26.2684154510498 42.8460807800293 23.24306488037109 41.35317230224609 20.43229484558105 39.53151321411133 C 17.81593322753906 37.86806869506836 15.3779182434082 35.91315841674805 13.18564128875732 33.72088241577148 C 10.9934778213501 31.52872085571289 9.03858470916748 29.09073257446289 7.375136375427246 26.47445487976074 C 5.546701908111572 23.6504955291748 4.050321102142334 20.61075782775879 2.927450895309448 17.43946266174316 C 1.803470969200134 14.26504325866699 1.053290963172913 10.95753288269043 0.6977609395980835 7.608813285827637 C 0.6963709592819214 7.595602989196777 0.6951609253883362 7.583363056182861 0.6940609216690063 7.571113109588623 C 0.5306309461593628 5.762503147125244 1.139350891113281 3.955283164978027 2.364220857620239 2.613583087921143 C 3.589130878448486 1.271883130073547 5.333570957183838 0.5015131831169128 7.150270938873291 0.499983161687851 L 13.31551551818848 0.499983161687851 L 13.36388111114502 0.4997831583023071 C 14.92638111114502 0.4997831583023071 16.43681144714355 1.064073204994202 17.61694145202637 2.088703155517578 C 18.79789161682129 3.114063262939453 19.5687313079834 4.531672954559326 19.78746032714844 6.080393314361572 L 19.79054069519043 6.102982997894287 C 20.02701187133789 7.896803379058838 20.46780014038086 9.666703224182129 21.10056114196777 11.36268329620361 C 21.98729133605957 13.72148323059082 21.41384124755859 16.40701293945312 19.63875007629395 18.20207405090332 L 19.62744140625 18.21343231201172 L 18.3354663848877 19.50541496276855 C 20.6596565246582 23.08137702941895 23.74326515197754 26.16472434997559 27.31944465637207 28.48866653442383 L 28.61345100402832 27.19465255737305 L 28.62478065490723 27.18340301513672 C 29.84546089172363 25.97630310058594 31.46584129333496 25.31048393249512 33.18553924560547 25.31048393249512 C 33.96734237670898 25.31048393249512 34.73521041870117 25.45013236999512 35.46781158447266 25.72554397583008 C 37.15935134887695 26.35663223266602 38.92818069458008 26.79702377319336 40.72283172607422 27.03360366821289 L 40.7424201965332 27.03625297546387 C 43.99283599853516 27.49519920349121 46.38974380493164 30.31135559082031 46.32406234741211 33.58991622924805 L 46.32406234741211 39.73101425170898 C 46.33058929443359 41.54906463623047 45.56449127197266 43.30010223388672 44.22219085693359 44.53156280517578 C 43.02227020263672 45.6324348449707 41.46467971801758 46.23872375488281 39.83637237548828 46.23872375488281 Z M 39.69686889648438 41.48411560058594 C 39.74329376220703 41.48783493041992 39.79016494750977 41.48972320556641 39.83637237548828 41.48972320556641 C 40.27268218994141 41.48972320556641 40.69009017944336 41.32722473144531 41.01171112060547 41.03214263916016 C 41.37171936035156 40.70186233520508 41.57704925537109 40.23225402832031 41.57506942749023 39.74370193481445 L 41.57505035400391 39.73407363891602 L 41.57505035400391 33.56347274780273 C 41.57505035400391 33.54387283325195 41.57530212402344 33.52428436279297 41.57578277587891 33.50468444824219 C 41.59775924682617 32.62458038330078 40.95868301391602 31.86706352233887 40.08853912353516 31.74006843566895 C 37.94402694702148 31.45632171630859 35.82897186279297 30.92904090881348 33.80221939086914 30.17288398742676 C 33.60127258300781 30.09734344482422 33.39456176757812 30.05948257446289 33.18553924560547 30.05948257446289 C 32.7266960144043 30.05948257446289 32.29411697387695 30.2362232208252 31.96694946289062 30.55726432800293 L 29.35905075073242 33.1651725769043 C 28.91055107116699 33.61366271972656 28.31411170959473 33.86066436767578 27.67959022521973 33.86068344116211 C 27.26919174194336 33.86068344116211 26.86352157592773 33.75337219238281 26.50641059875488 33.55034255981445 C 20.9876708984375 30.41262245178223 16.41190147399902 25.83719253540039 13.27378082275391 20.31870269775391 C 12.74708080291748 19.39246368408203 12.90543079376221 18.21935272216797 13.65886116027832 17.46591377258301 L 16.26615715026855 14.85860729217529 C 16.73853874206543 14.37753677368164 16.8905143737793 13.65948295593262 16.65322113037109 13.02825355529785 C 15.89539527893066 10.99709415435791 15.36771106719971 8.880906105041504 15.08395290374756 6.736313819885254 C 14.96007251739502 5.88877534866333 14.22291851043701 5.250112533569336 13.3665657043457 5.248785495758057 L 13.34146118164062 5.248913288116455 L 13.32287120819092 5.248993396759033 L 7.153100967407227 5.248993396759033 C 6.666921138763428 5.24940299987793 6.199780941009521 5.455883026123047 5.871470928192139 5.815503120422363 C 5.546754837036133 6.17118501663208 5.383410453796387 6.649672031402588 5.422579288482666 7.129531860351562 C 5.739836692810059 10.10146045684814 6.406500339508057 13.03683662414551 7.404120922088623 15.85439300537109 C 8.404200553894043 18.67889404296875 9.73728084564209 21.38611221313477 11.36634063720703 23.90084266662598 L 11.37804126739502 23.91908264160156 C 12.85616111755371 26.24521255493164 14.59430122375488 28.41344261169434 16.54369163513184 30.36282348632812 C 18.49309158325195 32.31221389770508 20.66132164001465 34.05034255981445 22.9881706237793 35.52893447875977 L 23.00627136230469 35.54054260253906 C 25.5100212097168 37.1641845703125 28.20467185974121 38.49433135986328 31.01573181152344 39.4942626953125 C 33.81872177124023 40.49135208129883 36.73929977416992 41.16079330444336 39.69686889648438 41.48411560058594 Z" stroke="none"/><path d="M 39.83637237548828 45.23872375488281 C 41.21366119384766 45.23872375488281 42.53116989135742 44.72589492797852 43.54616165161133 43.79468154907227 C 44.68167114257812 42.75294494628906 45.32958984375 41.27191162109375 45.32406234741211 39.73101425170898 L 45.32406234741211 33.57929229736328 C 45.38430023193359 30.80080223083496 43.35844039916992 28.41554260253906 40.60466003417969 28.02672386169434 C 40.60049057006836 28.02614402770996 40.59632110595703 28.02557373046875 40.59214019775391 28.02502250671387 C 38.72281265258789 27.77860260009766 36.8792724609375 27.31947326660156 35.11592102050781 26.66158294677734 C 34.49618911743164 26.42860221862793 33.84671020507812 26.31048393249512 33.18553924560547 26.31048393249512 C 31.7308406829834 26.31048393249512 30.36018180847168 26.87367248535156 29.32602119445801 27.89633369445801 C 29.32419013977051 27.89813232421875 29.32238006591797 27.89993286132812 29.32056045532227 27.90175247192383 L 27.46145057678223 29.76087379455566 C 23.22635078430176 27.16374397277832 19.6606616973877 23.59835243225098 17.06321144104004 19.36345291137695 L 18.92228126525879 17.5043830871582 C 18.92410087585449 17.50257301330566 18.92590141296387 17.50075340270996 18.92770004272461 17.49893379211426 C 20.42919158935547 15.98055362701416 20.91386032104492 13.70789337158203 20.16365051269531 11.71224308013916 C 19.50456047058105 9.945693016052246 19.04543113708496 8.102143287658691 18.79901123046875 6.232823371887207 C 18.79846000671387 6.228623390197754 18.79789161682129 6.224422931671143 18.79729080200195 6.220242977142334 C 18.61227035522461 4.910212993621826 17.96025085449219 3.711113214492798 16.96133041381836 2.84380316734314 C 15.96310138702393 1.977103114128113 14.68550109863281 1.499783158302307 13.36388111114502 1.499783158302307 C 13.3481912612915 1.499783158302307 13.33227062225342 1.499853134155273 13.31650066375732 1.499983191490173 L 7.151111125946045 1.499983191490173 C 5.614410877227783 1.501273155212402 4.138851165771484 2.152913093566895 3.102751016616821 3.287803173065186 C 2.066680908203125 4.422703266143799 1.551770925521851 5.951353073120117 1.690070986747742 7.481832981109619 C 1.69071090221405 7.488973140716553 1.691420912742615 7.496103286743164 1.692170977592468 7.503232955932617 C 2.039450883865356 10.77422332763672 2.772210836410522 14.00495338439941 3.870100975036621 17.10569381713867 C 4.967391014099121 20.2047233581543 6.429841041564941 23.17514228820801 8.216891288757324 25.93457221984863 C 9.841601371765137 28.49046325683594 11.75123119354248 30.87226295471191 13.89275074005127 33.01377487182617 C 16.03426170349121 35.15529251098633 18.41589164733887 37.06480407714844 20.97177124023438 38.68950271606445 C 23.71855163574219 40.47018432617188 26.67511177062988 41.92936325073242 29.7592716217041 43.02646255493164 C 32.84531021118164 44.12422180175781 36.06114959716797 44.86020278930664 39.31747055053711 45.21397399902344 C 39.32571029663086 45.21486282348633 39.33395004272461 45.21568298339844 39.34221267700195 45.21643447875977 C 39.5058708190918 45.23122406005859 39.6721305847168 45.23872375488281 39.83637237548828 45.23872375488281 M 7.152260780334473 4.248993396759033 L 13.32287120819092 4.248993396759033 C 13.32737064361572 4.248993396759033 13.33188056945801 4.248973369598389 13.33637046813965 4.248923301696777 L 13.36388111114502 4.248783111572266 C 14.71821117401123 4.248783111572266 15.88263130187988 5.259083271026611 16.07458114624023 6.599593162536621 C 16.34829139709473 8.671572685241699 16.85750007629395 10.71505355834961 17.58926010131836 12.67637348175049 C 17.96380043029785 13.672682762146 17.72296142578125 14.80533313751221 16.97586059570312 15.56312274932861 L 14.36597061157227 18.17301368713379 C 13.92844104766846 18.61055374145508 13.83720111846924 19.28650283813477 14.1430606842041 19.82438278198242 C 17.19225120544434 25.18648338317871 21.63833999633789 29.63223266601562 27.00067138671875 32.68102264404297 C 27.53854370117188 32.98683166503906 28.21444129943848 32.89556503295898 28.65194129943848 32.45806503295898 L 31.26186180114746 29.8481330871582 C 31.77769088745117 29.33955383300781 32.46070098876953 29.05948257446289 33.18553924560547 29.05948257446289 C 33.51517105102539 29.05948257446289 33.83919143676758 29.11846351623535 34.15177917480469 29.23596382141113 C 36.10992050170898 29.96653366088867 38.15330123901367 30.47573280334473 40.22528076171875 30.74944305419922 C 41.60009002685547 30.94612312316895 42.61017227172852 32.14023208618164 42.57548141479492 33.52915191650391 C 42.57519912719727 33.54059219360352 42.57505035400391 33.55203247070312 42.57505035400391 33.56347274780273 L 42.57505035400391 39.73407363891602 C 42.57505035400391 39.73593139648438 42.57505035400391 39.73779296875 42.5750617980957 39.73965454101562 C 42.57818222045898 40.5091438293457 42.2547721862793 41.24881362915039 41.68775177001953 41.76901245117188 C 41.18117141723633 42.23377227783203 40.523681640625 42.48972320556641 39.83637237548828 42.48972320556641 C 39.75823211669922 42.48972320556641 39.67916107177734 42.48631286621094 39.60115051269531 42.4796028137207 C 36.56212997436523 42.14839172363281 33.5608024597168 41.46098327636719 30.68059158325195 40.43643188476562 C 27.79615020751953 39.41039276123047 25.03120040893555 38.0455322265625 22.4625301361084 36.37979125976562 C 22.45898056030273 36.37749481201172 22.45541000366211 36.37521362304688 22.45184135437012 36.37294387817383 C 20.06335067749023 34.85518264770508 17.83765029907227 33.07099151611328 15.83658123016357 31.06993293762207 C 13.83551120758057 29.06887245178223 12.05132102966309 26.84317398071289 10.53356075286865 24.45467376708984 C 10.53141117095947 24.4512825012207 10.52924060821533 24.44791221618652 10.52706050872803 24.44453239440918 C 8.855490684509277 21.86418342590332 7.487630844116211 19.08633232116699 6.461471080780029 16.18816375732422 C 5.436551094055176 13.29352283477783 4.752100944519043 10.27792358398438 4.42703104019165 7.224442958831787 C 4.361130714416504 6.463943004608154 4.618111133575439 5.705213069915771 5.132950782775879 5.141263008117676 C 5.650061130523682 4.57485294342041 6.386480808258057 4.249633312225342 7.152260780334473 4.248993396759033 M 39.83637237548828 47.23872375488281 C 39.61228942871094 47.23872375488281 39.38547134399414 47.22849273681641 39.16220092773438 47.20831298828125 C 39.14176940917969 47.20646286010742 39.12224197387695 47.20452499389648 39.10269927978516 47.2024040222168 C 35.69036102294922 46.83169174194336 32.32167053222656 46.06072235107422 29.08898162841797 44.91079330444336 C 25.86081504821777 43.76246643066406 22.76604652404785 42.23542785644531 19.89061164855957 40.37211227416992 C 17.21470832824707 38.67026138305664 14.72090148925781 36.67036437988281 12.47853088378906 34.42798233032227 C 10.2357292175293 32.1851921081543 8.235516548156738 29.69089317321777 6.533391952514648 27.01433563232422 C 4.663592338562012 24.12586784362793 3.133238792419434 21.01675987243652 1.984790921211243 17.77323341369629 C 0.8347209095954895 14.52512359619141 0.0671309307217598 11.14084339141846 -0.2966490685939789 7.714383125305176 C -0.2986790835857391 7.695113182067871 -0.3003890812397003 7.677762985229492 -0.301939070224762 7.660393238067627 C -0.4905090630054474 5.573623180389404 0.2120309323072433 3.487863063812256 1.625690937042236 1.939363121986389 C 3.039400815963745 0.3908531665802002 5.05272102355957 -0.4982568323612213 7.149430751800537 -0.5000168681144714 L 13.30893421173096 -0.5000168681144714 C 13.32726287841797 -0.5001500248908997 13.34568691253662 -0.5002168416976929 13.36388111114502 -0.5002168416976929 C 15.16726112365723 -0.5002168416976929 16.91053009033203 0.1510431617498398 18.27254104614258 1.333603143692017 C 19.63554000854492 2.517013072967529 20.52519035339355 4.153123378753662 20.77764129638672 5.940553188323975 L 20.78208160400391 5.973133087158203 C 21.00859069824219 7.691442966461182 21.43105125427246 9.387713432312012 22.0374813079834 11.01312351226807 C 23.06026077270508 13.73383331298828 22.39849090576172 16.83348274230957 20.34980010986328 18.90521240234375 L 20.33647918701172 18.91858100891113 L 20.33649063110352 18.91859245300293 L 19.62344932556152 19.63163375854492 C 21.66073417663574 22.58457374572754 24.24003791809082 25.16364479064941 27.19316673278809 27.20071983337402 L 27.91975021362305 26.4742431640625 L 27.91974067687988 26.47423362731934 C 29.33074188232422 25.07892227172852 31.20083999633789 24.31048393249512 33.18553924560547 24.31048393249512 C 34.08795166015625 24.31048393249512 34.97421264648438 24.47165298461914 35.81970977783203 24.78950309753418 C 37.43833923339844 25.39339256286621 39.13352966308594 25.81544303894043 40.85351943969727 26.04217338562012 L 40.88019180297852 26.0457935333252 C 44.62964248657227 26.57519149780273 47.39424133300781 29.82010459899902 47.32406234741211 33.59928894042969 L 47.32406234741211 39.72699356079102 C 47.33072662353516 41.82829666137695 46.4466552734375 43.84786605834961 44.89821243286133 45.2684326171875 C 43.51335144042969 46.53898239135742 41.71567916870117 47.23872375488281 39.83637237548828 47.23872375488281 Z M 39.78833770751953 40.48814392089844 C 39.80442428588867 40.48918151855469 39.82077407836914 40.48972320556641 39.83637237548828 40.48972320556641 C 40.02168273925781 40.48972320556641 40.19900131225586 40.42066192626953 40.3356819152832 40.29527282714844 C 40.48867034912109 40.15492248535156 40.57592010498047 39.95536422729492 40.57508087158203 39.74776458740234 L 40.57505035400391 39.73407363891602 L 40.57505035400391 33.56347274780273 C 40.57505035400391 33.53572463989258 40.57540130615234 33.50797271728516 40.57608032226562 33.4802131652832 C 40.58540344238281 33.10709381103516 40.31631469726562 32.78639221191406 39.94905090332031 32.73031997680664 C 37.73283386230469 32.43647003173828 35.54725646972656 31.89126968383789 33.45267105102539 31.10979270935059 C 33.36109161376953 31.07537269592285 33.27521133422852 31.05948257446289 33.18553924560547 31.05948257446289 C 32.988525390625 31.05948257446289 32.81019973754883 31.13187599182129 32.66951370239258 31.26891136169434 L 30.06616020202637 33.87227249145508 C 29.42880058288574 34.5096321105957 28.58124160766602 34.86065292358398 27.67963027954102 34.86068344116211 C 27.09620094299316 34.86068344116211 26.51961135864258 34.70817184448242 26.01215171813965 34.41965484619141 C 20.33701133728027 31.19301223754883 15.63156127929688 26.48791313171387 12.40450096130371 20.81302261352539 C 11.65599060058594 19.4967041015625 11.88102054595947 17.82955360412598 12.95174121856689 16.75881385803223 L 15.55492782592773 14.15563678741455 C 15.75082683563232 13.95421600341797 15.81606864929199 13.64322376251221 15.71717071533203 13.38014316558838 C 14.93326568603516 11.27906894683838 14.38766670227051 9.092419624328613 14.09378051757812 6.876399517059326 C 14.03995037078857 6.52487850189209 13.72229671478271 6.250271797180176 13.36680030822754 6.248790264129639 L 13.32287120819092 6.248993396759033 L 7.153931140899658 6.248993396759033 C 6.950800895690918 6.249163150787354 6.747450828552246 6.339163303375244 6.609981060028076 6.489733219146729 C 6.47426700592041 6.638394355773926 6.404892921447754 6.83759593963623 6.418511390686035 7.038185119628906 C 6.728120803833008 9.927506446838379 7.376841068267822 12.78126239776611 8.346780776977539 15.52062320709229 C 9.320771217346191 18.27144241333008 10.6190710067749 20.90802383422852 12.20563125610352 23.35714340209961 L 12.22252082824707 23.38350296020508 C 13.66099071502686 25.6472225189209 15.35306072235107 27.75799369812012 17.25079154968262 29.65571403503418 C 19.14853096008301 31.55344390869141 21.25931167602539 33.24551391601562 23.52449035644531 34.68492126464844 L 23.55001068115234 34.7012825012207 C 25.98880004882812 36.28280258178711 28.61316108703613 37.57825469970703 31.35088157653809 38.55210494995117 C 34.07523727416992 39.52120971679688 36.91388320922852 40.17254638671875 39.78833770751953 40.48814392089844 Z" stroke="none" fill="#eef2f4"/></g></g></svg>