<svg xmlns="http://www.w3.org/2000/svg" width="55.315" height="64.592" viewBox="0 0 55.315 64.592">
  <g id="Group_436" data-name="Group 436" transform="translate(-916.825 -1110)">
    <g id="Group_434" data-name="Group 434">
      <path id="Path_82" data-name="Path 82" d="M944.81,1169.413a10.592,10.592,0,1,0-10.592-10.592,10.6,10.6,0,0,0,10.592,10.592Zm0-18.61a8.018,8.018,0,1,1-8.018,8.018,8.027,8.027,0,0,1,8.018-8.018Z" fill="#3d8fa0"/>
      <path id="Path_83" data-name="Path 83" d="M964,1174.592a8.142,8.142,0,1,0-8.142-8.142A8.151,8.151,0,0,0,964,1174.592Zm0-13.711a5.568,5.568,0,1,1-5.568,5.569A5.575,5.575,0,0,1,964,1160.881Z" fill="#3d8fa0"/>
      <path id="Path_84" data-name="Path 84" d="M924.967,1174.592a8.142,8.142,0,1,0-8.142-8.142A8.152,8.152,0,0,0,924.967,1174.592Zm0-13.711a5.568,5.568,0,1,1-5.568,5.569A5.575,5.575,0,0,1,924.967,1160.881Z" fill="#3d8fa0"/>
    </g>
    <g id="Group_435" data-name="Group 435">
      <path id="Path_85" data-name="Path 85" d="M960.513,1110H928.487a4.487,4.487,0,0,0-4.487,4.487v21.026a4.487,4.487,0,0,0,4.487,4.487h12.282l2.612,4.438a1.3,1.3,0,0,0,2.238,0l2.612-4.438h12.282a4.487,4.487,0,0,0,4.487-4.487v-21.026A4.487,4.487,0,0,0,960.513,1110Zm.574,27h-13.1a1.287,1.287,0,0,0-1.108.633L945,1140.815l-1.876-3.182a1.287,1.287,0,0,0-1.108-.633h-13.1a1.912,1.912,0,0,1-1.913-1.913v-21.174a1.914,1.914,0,0,1,1.913-1.913h32.174a1.914,1.914,0,0,1,1.913,1.913v21.174A1.914,1.914,0,0,1,961.087,1137Z" fill="#3d8fa0"/>
      <path id="Path_86" data-name="Path 86" d="M944.728,1120.215a3.819,3.819,0,1,0,3.819,3.818,3.823,3.823,0,0,0-3.819-3.818Zm0,5.063a1.245,1.245,0,1,1,1.245-1.245,1.246,1.246,0,0,1-1.245,1.245Z" fill="#3d8fa0"/>
      <path id="Path_87" data-name="Path 87" d="M934.623,1120.215a3.819,3.819,0,1,0,3.819,3.818A3.823,3.823,0,0,0,934.623,1120.215Zm0,5.063a1.245,1.245,0,1,1,1.245-1.245A1.246,1.246,0,0,1,934.623,1125.278Z" fill="#3d8fa0"/>
      <path id="Path_88" data-name="Path 88" d="M954.834,1120.215a3.819,3.819,0,1,0,3.818,3.818A3.823,3.823,0,0,0,954.834,1120.215Zm0,5.063a1.245,1.245,0,1,1,1.244-1.245A1.246,1.246,0,0,1,954.834,1125.278Z" fill="#3d8fa0"/>
      <path id="Path_89" data-name="Path 89" d="M955.575,1131h-2.343c-.711.567-1.287,1.144-1.287,1.854a1.1,1.1,0,0,0,1.287,1.146h2.343a1.1,1.1,0,0,0,1.287-1.146C956.862,1132.144,956.286,1131.567,955.575,1131Z" fill="#3d8fa0"/>
    </g>
  </g>
</svg>
