<svg xmlns="http://www.w3.org/2000/svg" viewBox="0 0 55.32 64.59"><defs><style>.cls-1{fill:#fff;}</style></defs><g id="Layer_2" data-name="Layer 2"><g id="Layer_1-2" data-name="Layer 1"><g id="Group_436" data-name="Group 436"><g id="Group_434" data-name="Group 434"><path id="Path_82" data-name="Path 82" class="cls-1" d="M28,59.41a10.59,10.59,0,1,0-10.6-10.59A10.59,10.59,0,0,0,28,59.41ZM28,40.8a8,8,0,1,1-8,8h0A8,8,0,0,1,28,40.8Z"/><path id="Path_83" data-name="Path 83" class="cls-1" d="M47.18,64.59A8.14,8.14,0,1,0,39,56.45h0A8.16,8.16,0,0,0,47.18,64.59Zm0-13.71a5.57,5.57,0,1,1-5.57,5.57A5.56,5.56,0,0,1,47.18,50.88Z"/><path id="Path_84" data-name="Path 84" class="cls-1" d="M8.14,64.59A8.14,8.14,0,1,0,0,56.45H0A8.15,8.15,0,0,0,8.14,64.59Zm0-13.71a5.57,5.57,0,1,1-5.57,5.57A5.57,5.57,0,0,1,8.14,50.88Z"/></g><g id="Group_435" data-name="Group 435"><path id="Path_85" data-name="Path 85" class="cls-1" d="M43.69,0h-32A4.48,4.48,0,0,0,7.18,4.49h0v21A4.47,4.47,0,0,0,11.66,30H23.94l2.62,4.44a1.3,1.3,0,0,0,1.78.46,1.32,1.32,0,0,0,.45-.46L31.41,30H43.69a4.48,4.48,0,0,0,4.48-4.49h0v-21A4.47,4.47,0,0,0,43.69,0Zm.57,27H31.16a1.31,1.31,0,0,0-1.11.63l-1.87,3.18L26.3,27.63A1.28,1.28,0,0,0,25.19,27H12.09a1.92,1.92,0,0,1-1.91-1.91h0V3.91A1.91,1.91,0,0,1,12.09,2H44.27a1.92,1.92,0,0,1,1.91,1.91V25.09A1.92,1.92,0,0,1,44.26,27Z"/><path id="Path_86" data-name="Path 86" class="cls-1" d="M27.9,10.21A3.82,3.82,0,1,0,31.72,14h0A3.83,3.83,0,0,0,27.9,10.21Zm0,5.07A1.25,1.25,0,1,1,29.15,14h0A1.25,1.25,0,0,1,27.9,15.28Z"/><path id="Path_87" data-name="Path 87" class="cls-1" d="M17.8,10.21A3.82,3.82,0,1,0,21.62,14h0A3.84,3.84,0,0,0,17.8,10.21Zm0,5.07A1.25,1.25,0,1,1,19,14h0A1.24,1.24,0,0,1,17.8,15.28Z"/><path id="Path_88" data-name="Path 88" class="cls-1" d="M38,10.21A3.82,3.82,0,1,0,41.83,14h0A3.84,3.84,0,0,0,38,10.21Zm0,5.07A1.25,1.25,0,1,1,39.25,14h0A1.24,1.24,0,0,1,38,15.28Z"/><path id="Path_89" data-name="Path 89" class="cls-1" d="M38.75,21H36.41c-.71.57-1.29,1.14-1.29,1.85a1.1,1.1,0,0,0,1,1.16,1.07,1.07,0,0,0,.25,0h2.34A1.1,1.1,0,0,0,40,23.11a1.14,1.14,0,0,0,0-.26C40,22.14,39.46,21.57,38.75,21Z"/></g></g></g></g></svg>