<svg id="Group_1051" data-name="Group 1051" xmlns="http://www.w3.org/2000/svg" xmlns:xlink="http://www.w3.org/1999/xlink" width="60.024" height="60" viewBox="0 0 60.024 60">
  <defs>
    <clipPath id="clip-path">
      <rect id="Rectangle_755" data-name="Rectangle 755" width="60.025" height="60" fill="#3d8fa0"/>
    </clipPath>
  </defs>
  <g id="Group_625" data-name="Group 625" clip-path="url(#clip-path)">
    <path id="Path_168" data-name="Path 168" d="M25.564,0a3.118,3.118,0,0,1,2.425,2.628A10.223,10.223,0,0,1,28,4h.73c3.732,0,7.465-.008,11.2.015a1.343,1.343,0,0,1,.855.352q5.97,5.928,11.9,11.9a1.117,1.117,0,0,1,.332.688c.019,4.905.014,9.81.013,14.716,0,.094-.015.189-.026.317H51.025V18.021H39.042V6.037H28.023v.669q0,11.96,0,23.92c0,2.215-1.18,3.39-3.407,3.39H9.053V58H51V46.091h1.988V60H7.015V34.017c-1.337,0-2.624.06-3.9-.026a3.481,3.481,0,0,1-1.841-.583A7.656,7.656,0,0,1,0,31.663V2.463A3.354,3.354,0,0,1,2.463,0ZM2,16.988q0,6.8,0,13.6c0,1.135.293,1.432,1.41,1.432H24.566c1.169,0,1.458-.287,1.458-1.446q0-13.568,0-27.137c0-1.13-.3-1.437-1.413-1.437H3.394C2.311,2,2,2.31,2,3.39q0,6.8,0,13.6m47.357-1.01L41.063,7.7v8.275Z" fill="#3d8fa0"/>
    <path id="Path_169" data-name="Path 169" d="M119.7,86.577a2.893,2.893,0,0,1,2.615,1.738,2.862,2.862,0,0,1-.441,3.177,13.458,13.458,0,0,1-.939.967q-8.018,8.02-16.044,16.032a3.851,3.851,0,0,1-1.042.728c-1.513.724-3.047,1.4-4.565,2.117a1.081,1.081,0,0,1-1.394-.118,1.109,1.109,0,0,1-.073-1.358c.726-1.555,1.431-3.12,2.166-4.671a3.106,3.106,0,0,1,.6-.852q8.341-8.361,16.693-16.708a3.325,3.325,0,0,1,2.425-1.051m-5.1,6.506c-.154.176-.263.315-.387.439-3.825,3.827-7.625,7.68-11.5,11.46a10.454,10.454,0,0,0-1.953,3.4,10.294,10.294,0,0,0,3.1-1.669c3.873-3.917,7.78-7.8,11.678-11.692a5.8,5.8,0,0,1,.546-.432L114.6,93.083m5.009-2.131c.43-.5,1.156-.824.927-1.6a1.272,1.272,0,0,0-.771-.747c-.767-.192-1.09.513-1.544.919l1.389,1.424m-3.434.619,1.27,1.443.612-.579L116.7,91.02l-.527.551" transform="translate(-62.584 -55.503)" fill="#3d8fa0"/>
    <path id="Path_170" data-name="Path 170" d="M56.272,110.344a10.007,10.007,0,1,1-10-10,10.038,10.038,0,0,1,10,10m-2.006.01a8.005,8.005,0,1,0-8.017,8.02,8.026,8.026,0,0,0,8.017-8.02" transform="translate(-23.245 -64.33)" fill="#3d8fa0"/>
    <rect id="Rectangle_747" data-name="Rectangle 747" width="11.933" height="1.916" transform="translate(36.06 29.073)" fill="#3d8fa0"/>
    <rect id="Rectangle_748" data-name="Rectangle 748" width="11.951" height="1.912" transform="translate(36.05 25.052)" fill="#3d8fa0"/>
    <rect id="Rectangle_749" data-name="Rectangle 749" width="11.942" height="1.937" transform="translate(36.059 33.063)" fill="#3d8fa0"/>
    <rect id="Rectangle_750" data-name="Rectangle 750" width="11.956" height="1.912" transform="translate(36.049 21.049)" fill="#3d8fa0"/>
    <rect id="Rectangle_751" data-name="Rectangle 751" width="1.946" height="1.928" transform="translate(32.044 29.051)" fill="#3d8fa0"/>
    <rect id="Rectangle_752" data-name="Rectangle 752" width="1.927" height="1.917" transform="translate(32.058 21.042)" fill="#3d8fa0"/>
    <rect id="Rectangle_753" data-name="Rectangle 753" width="1.917" height="1.943" transform="translate(32.063 25.037)" fill="#3d8fa0"/>
    <rect id="Rectangle_754" data-name="Rectangle 754" width="1.912" height="1.944" transform="translate(32.067 33.056)" fill="#3d8fa0"/>
    <path id="Path_171" data-name="Path 171" d="M30.441,15.4H8.522V8.493H30.441Zm-2-4.912H10.525v2.914H28.438Z" transform="translate(-5.463 -5.445)" fill="#3d8fa0"/>
    <path id="Path_172" data-name="Path 172" d="M30.685,72.672c0-.313,0-.625,0-.937a1.987,1.987,0,0,1,2-2.079c.663-.028,1.329-.029,1.992,0a1.99,1.99,0,0,1,2,2.082c.009.625.01,1.25,0,1.875a1.96,1.96,0,0,1-1.915,2.035,20.231,20.231,0,0,1-2.05.009,1.979,1.979,0,0,1-2.026-2.107c0-.293,0-.586,0-.879m3.966-.977h-1.92v1.929h1.92Z" transform="translate(-19.671 -44.641)" fill="#3d8fa0"/>
    <path id="Path_173" data-name="Path 173" d="M50.205,72.653c0-.313-.008-.625,0-.937a1.986,1.986,0,0,1,2.02-2.058c.644-.025,1.29-.023,1.934,0A2.007,2.007,0,0,1,56.2,71.705c.019.644.02,1.29,0,1.934a1.978,1.978,0,0,1-1.945,2.015c-.642.038-1.289.027-1.933.011a1.989,1.989,0,0,1-2.12-2.133c-.005-.293,0-.586,0-.879m3.98-.946h-1.94v1.9h1.94Z" transform="translate(-32.184 -44.645)" fill="#3d8fa0"/>
    <path id="Path_174" data-name="Path 174" d="M17.121,72.69c0,.312.007.625,0,.938a1.958,1.958,0,0,1-1.976,2.034,20.451,20.451,0,0,1-2.05,0,1.982,1.982,0,0,1-1.969-2.051q-.02-.937,0-1.875a2,2,0,0,1,2.017-2.071c.624-.027,1.25-.018,1.875,0a1.992,1.992,0,0,1,2.1,2.094c.007.313,0,.625,0,.938m-2.036-.951H13.161v1.894h1.924Z" transform="translate(-7.125 -44.648)" fill="#3d8fa0"/>
    <path id="Path_175" data-name="Path 175" d="M36.661,33.664c0,.371.016.743,0,1.113a1.967,1.967,0,0,1-1.889,1.881c-.741.027-1.486.03-2.226,0a1.948,1.948,0,0,1-1.864-1.9q-.035-1.083,0-2.168a1.946,1.946,0,0,1,1.914-1.908c.683-.021,1.367-.016,2.051,0a1.976,1.976,0,0,1,2.02,2.05c.006.313,0,.625,0,.938Zm-2.007-.942H32.708v1.9h1.945Z" transform="translate(-19.656 -19.659)" fill="#3d8fa0"/>
    <path id="Path_176" data-name="Path 176" d="M30.691,53.2c0-.391-.019-.782,0-1.172a1.906,1.906,0,0,1,1.756-1.809,20.965,20.965,0,0,1,2.459,0,1.894,1.894,0,0,1,1.756,1.809c.036.76.034,1.524,0,2.285a1.976,1.976,0,0,1-1.961,1.875c-.683.028-1.368.029-2.051,0a1.988,1.988,0,0,1-1.968-2.05c-.006-.313,0-.625,0-.938h.005m2.026.956h1.922V52.247H32.717Z" transform="translate(-19.67 -32.173)" fill="#3d8fa0"/>
    <path id="Path_177" data-name="Path 177" d="M50.218,33.668c0-.391-.023-.783,0-1.171A1.928,1.928,0,0,1,52.1,30.682c.683-.024,1.367-.016,2.051-.006A1.983,1.983,0,0,1,56.2,32.644c.029.682.029,1.368,0,2.051a1.989,1.989,0,0,1-2.05,1.97c-.625.011-1.25.009-1.875,0a1.968,1.968,0,0,1-2.067-2c-.012-.331,0-.664,0-1h.01m3.956-.958H52.252v1.932h1.922Z" transform="translate(-32.184 -19.659)" fill="#3d8fa0"/>
    <path id="Path_178" data-name="Path 178" d="M17.1,33.686c0,.371.018.743,0,1.113a1.935,1.935,0,0,1-1.838,1.86c-.76.035-1.524.034-2.285,0A1.956,1.956,0,0,1,11.118,34.8a20.738,20.738,0,0,1,0-2.226,1.969,1.969,0,0,1,2-1.894c.644-.013,1.289-.01,1.934,0A1.961,1.961,0,0,1,17.1,32.69c.01.332,0,.664,0,1H17.1m-2.029-.969H13.149v1.927h1.919Z" transform="translate(-7.108 -19.663)" fill="#3d8fa0"/>
    <path id="Path_179" data-name="Path 179" d="M17.113,53.17c0,.351.012.7,0,1.055a1.968,1.968,0,0,1-1.93,1.963c-.7.034-1.407.033-2.109,0a1.994,1.994,0,0,1-1.951-2.015c-.019-.664-.02-1.329,0-1.992A1.965,1.965,0,0,1,13.094,50.2c.644-.023,1.289-.018,1.934-.005a1.965,1.965,0,0,1,2.088,2.1c.005.293,0,.586,0,.879h0m-3.975.983h1.943v-1.91H13.138Z" transform="translate(-7.12 -32.173)" fill="#3d8fa0"/>
    <path id="Path_180" data-name="Path 180" d="M53.234,50.208c.332,0,.665-.013,1,0a1.966,1.966,0,0,1,1.955,1.938c.033.7.034,1.407,0,2.109a1.977,1.977,0,0,1-1.906,1.937,19.834,19.834,0,0,1-2.167,0A1.957,1.957,0,0,1,50.2,54.218c-.023-.683-.024-1.368,0-2.051a1.938,1.938,0,0,1,1.981-1.96c.351-.014.7,0,1.055,0v0m-1.009,3.956h1.937V52.248H52.226Z" transform="translate(-32.17 -32.183)" fill="#3d8fa0"/>
    <path id="Path_181" data-name="Path 181" d="M55.912,112.6c.013-.268.029-.6.047-.97H57.91v1.015c1.5.445,2.8,1.083,3.026,2.941-.642,0-1.221.008-1.8-.008a.471.471,0,0,1-.267-.177,2.883,2.883,0,0,0-3.581-.332c-.476.371-.5.775.042,1.053a7.616,7.616,0,0,0,1.6.47,15.227,15.227,0,0,1,2.352.6,2.527,2.527,0,0,1,1.628,2.373,2.637,2.637,0,0,1-1.571,2.419,13.136,13.136,0,0,1-1.377.572c-.017.305-.037.649-.057,1.021H55.968c-.021-.356-.041-.7-.061-1.053-1.493-.417-2.74-1.081-3.013-2.913.642,0,1.235-.008,1.828.008.093,0,.2.1.271.182a2.911,2.911,0,0,0,3.539.349c.5-.37.53-.822-.031-1.1a4.815,4.815,0,0,0-1.663-.446,5.3,5.3,0,0,1-2.6-.782,2.542,2.542,0,0,1,.041-4.48,12.918,12.918,0,0,1,1.632-.746" transform="translate(-33.909 -71.564)" fill="#3d8fa0"/>
  </g>
</svg>
