<svg xmlns="http://www.w3.org/2000/svg" width="53.708" height="50.188" viewBox="0 0 53.708 50.188">
  <g id="Group_391" data-name="Group 391" transform="translate(-260 -1959)">
    <g id="Group_390" data-name="Group 390">
      <g id="Group_389" data-name="Group 389">
        <path id="Path_48" data-name="Path 48" d="M283.986,1995H262.8a1.807,1.807,0,0,1-1.8-1.8v-30.4a1.807,1.807,0,0,1,1.8-1.8h44.6s1.8.362,1.6,1.353v20.5a1.3,1.3,0,0,0,1.105.9c.5,0,.895-.9.895-.9V1962.6a3.6,3.6,0,0,0-3.6-3.6H263.6a3.6,3.6,0,0,0-3.6,3.6v30.373s1.28,3.6,3.271,4.024h20.715c.495-.421.9-.827.9-1.322S283.986,1995,283.986,1995Z" fill="#3d8fa0"/>
        <path id="Path_49" data-name="Path 49" d="M313.708,1995.678a13.5,13.5,0,1,0-3.954,9.556h0A13.457,13.457,0,0,0,313.708,1995.678Zm-4.621,8.041-2.557-2.558a8.013,8.013,0,0,0,1.72-4.161h3.621A11.627,11.627,0,0,1,309.087,2003.719Zm-8.889-14.346a6.3,6.3,0,1,1-6.3,6.3A6.312,6.312,0,0,1,300.2,1989.373ZM311.772,1995h-3.621a8.108,8.108,0,0,0-7.151-7.151v-3.621A11.733,11.733,0,0,1,311.772,1995Zm-23.38,3c-1.3-7.614,3.87-13.484,10.608-14v3.621a8.107,8.107,0,1,0,5.962,14.384l2.558,2.557a11.917,11.917,0,0,1-13.021,1.583A11.032,11.032,0,0,1,288.392,1998Z" fill="#3d8fa0"/>
        <path id="Path_50" data-name="Path 50" d="M287.589,1973.161a2.619,2.619,0,0,0-.361-1.315l2.963-3.386a2.579,2.579,0,0,0,1.982,0l2.963,3.386a2.7,2.7,0,1,0,5.044,1.315,2.618,2.618,0,0,0-.36-1.315l2.963-3.386a2.59,2.59,0,0,0,.991.2,2.7,2.7,0,1,0-2.7-2.7,2.618,2.618,0,0,0,.36,1.315l-2.963,3.386a2.579,2.579,0,0,0-1.982,0l-2.963-3.386a2.7,2.7,0,1,0-5.044-1.315,2.618,2.618,0,0,0,.36,1.315l-2.963,3.386a2.591,2.591,0,0,0-.99-.2,2.7,2.7,0,1,0,2.7,2.7Zm16.212-8.106a.9.9,0,1,1-.9.9A.9.9,0,0,1,303.8,1965.055Zm-5.4,8.106a.9.9,0,1,1-.9-.9A.9.9,0,0,1,298.4,1973.161Zm-7.206-8.106a.9.9,0,1,1-.9.9A.9.9,0,0,1,291.191,1965.055Zm-6.3,9.007a.9.9,0,1,1,.9-.9A.9.9,0,0,1,284.887,1974.062Z" fill="#3d8fa0"/>
        <path id="Path_51" data-name="Path 51" d="M264.9,1992h3.2a.9.9,0,0,0,.9-.9v-10.2a.9.9,0,0,0-.9-.9h-3.2a.9.9,0,0,0-.9.9v10.2A.9.9,0,0,0,264.9,1992Zm1.1-10h2v8h-2Z" fill="#3d8fa0"/>
        <path id="Path_52" data-name="Path 52" d="M272,1977.9v13.2a.9.9,0,0,0,.9.9h3.2a.9.9,0,0,0,.9-.9v-13.2a.9.9,0,0,0-.9-.9h-3.2A.9.9,0,0,0,272,1977.9Zm3,12.1h-2v-12h2Z" fill="#3d8fa0"/>
        <path id="Path_53" data-name="Path 53" d="M279.9,1992h3.2a.9.9,0,0,0,.9-.9v-7.2a.9.9,0,0,0-.9-.9h-3.2a.9.9,0,0,0-.9.9v7.2A.9.9,0,0,0,279.9,1992Zm.1-7h2v5h-2Z" fill="#3d8fa0"/>
        <path id="Path_54" data-name="Path 54" d="M265.072,1965h1.8a.826.826,0,0,0,.9-.846,1.422,1.422,0,0,0-.9-1.154h-1.8a1.422,1.422,0,0,0-.9,1.154A.826.826,0,0,0,265.072,1965Z" fill="#3d8fa0"/>
        <path id="Path_55" data-name="Path 55" d="M270.476,1965h7.2a.826.826,0,0,0,.9-.846,1.422,1.422,0,0,0-.9-1.154h-7.2a1.422,1.422,0,0,0-.9,1.154A.826.826,0,0,0,270.476,1965Z" fill="#3d8fa0"/>
        <path id="Path_56" data-name="Path 56" d="M265.072,1970h1.8c.5-.441.9-.847.9-1.342s-.4-.9-.9-.658h-1.8c-.5-.243-.9.162-.9.658S264.576,1969.559,265.072,1970Z" fill="#3d8fa0"/>
        <path id="Path_57" data-name="Path 57" d="M270.476,1970h7.2c.5-.441.9-.847.9-1.342s-.4-.9-.9-.658h-7.2c-.5-.243-.9.162-.9.658S269.98,1969.559,270.476,1970Z" fill="#3d8fa0"/>
        <path id="Path_58" data-name="Path 58" d="M265.072,1974h1.8a.817.817,0,0,0,.9-.839,1.441,1.441,0,0,0-.9-1.161h-1.8a1.441,1.441,0,0,0-.9,1.161A.817.817,0,0,0,265.072,1974Z" fill="#3d8fa0"/>
        <path id="Path_59" data-name="Path 59" d="M278.582,1973.161a1.441,1.441,0,0,0-.9-1.161h-7.2a1.441,1.441,0,0,0-.9,1.161.817.817,0,0,0,.9.839h7.2A.817.817,0,0,0,278.582,1973.161Z" fill="#3d8fa0"/>
      </g>
    </g>
  </g>
</svg>
