<svg xmlns="http://www.w3.org/2000/svg" width="56.969" height="57.683" viewBox="0 0 56.969 57.683">
  <g id="Group_385" data-name="Group 385" transform="translate(-260.25 -1555.254)">
    <g id="Group_384" data-name="Group 384">
      <g id="Group_372" data-name="Group 372">
        <g id="Group_362" data-name="Group 362">
          <path id="Path_23" data-name="Path 23" d="M284.75,1566.75h-24.5v-4.533l12.25-6.963,12.25,6.963Zm-22-2.5h19.5v-.578l-9.75-5.543-9.75,5.543Z" fill="#3d8fa0"/>
        </g>
        <g id="Group_363" data-name="Group 363">
          <path id="Path_24" data-name="Path 24" d="M262.75,1582h-2.5v-5.75H283v2.5H262.75Z" fill="#3d8fa0"/>
        </g>
        <g id="Group_364" data-name="Group 364">
          <rect id="Rectangle_382" data-name="Rectangle 382" width="17" height="2.5" transform="translate(262 1580.25)" fill="#3d8fa0"/>
        </g>
        <g id="Group_371" data-name="Group 371">
          <g id="Group_367" data-name="Group 367">
            <g id="Group_365" data-name="Group 365">
              <rect id="Rectangle_383" data-name="Rectangle 383" width="2.5" height="10" transform="translate(262.25 1565)" fill="#3d8fa0"/>
            </g>
            <g id="Group_366" data-name="Group 366">
              <rect id="Rectangle_384" data-name="Rectangle 384" width="2.5" height="10" transform="translate(267.25 1568)" fill="#3d8fa0"/>
            </g>
          </g>
          <g id="Group_370" data-name="Group 370">
            <g id="Group_368" data-name="Group 368">
              <rect id="Rectangle_385" data-name="Rectangle 385" width="2.5" height="10" transform="translate(280.25 1565)" fill="#3d8fa0"/>
            </g>
            <g id="Group_369" data-name="Group 369">
              <rect id="Rectangle_386" data-name="Rectangle 386" width="2.5" height="10" transform="translate(275.25 1568)" fill="#3d8fa0"/>
            </g>
          </g>
        </g>
      </g>
      <g id="Group_375" data-name="Group 375">
        <g id="Group_373" data-name="Group 373">
          <path id="Path_25" data-name="Path 25" d="M307.7,1603.919a4.938,4.938,0,0,1-4.857-4.192,12.2,12.2,0,0,1,0-3.59,4.91,4.91,0,0,1,9.715,0,12.2,12.2,0,0,1,0,3.59A4.94,4.94,0,0,1,307.7,1603.919Zm0-9.474a2.424,2.424,0,0,0-2.384,2.058,9.7,9.7,0,0,0,0,2.857,2.411,2.411,0,0,0,4.77,0,9.762,9.762,0,0,0,0-2.856A2.427,2.427,0,0,0,307.7,1594.445Z" fill="#3d8fa0"/>
        </g>
        <g id="Group_374" data-name="Group 374">
          <path id="Path_26" data-name="Path 26" d="M307.7,1612.937a17.263,17.263,0,0,1-6.753-1.371l-.424-.18a3.834,3.834,0,0,1-2.247-4.415,10.885,10.885,0,0,1,.889-2.416,3.079,3.079,0,0,1,2.382-1.665l1.262-.153.3,2.483-1.263.152a.588.588,0,0,0-.453.316,8.379,8.379,0,0,0-.68,1.841,1.344,1.344,0,0,0,.79,1.556l.424.181a14.81,14.81,0,0,0,11.546,0l.422-.18a1.34,1.34,0,0,0,.8-1.538,8.474,8.474,0,0,0-.683-1.859.589.589,0,0,0-.456-.317l-1.261-.152.3-2.483,1.263.153a3.084,3.084,0,0,1,2.382,1.664,10.86,10.86,0,0,1,.882,2.391,3.839,3.839,0,0,1-2.241,4.441l-.421.179A17.25,17.25,0,0,1,307.7,1612.937Z" fill="#3d8fa0"/>
        </g>
      </g>
      <g id="Group_376" data-name="Group 376">
        <path id="Path_27" data-name="Path 27" d="M303.179,1588.238l-.6-2.425a8.153,8.153,0,0,0-1.975-16.063H286v-2.5h14.6a10.653,10.653,0,0,1,2.579,20.988Z" fill="#3d8fa0"/>
      </g>
      <g id="Group_377" data-name="Group 377">
        <path id="Path_28" data-name="Path 28" d="M294,1607.75H280.689A10.653,10.653,0,0,1,277,1587.1l.866,2.346a8.153,8.153,0,0,0,2.826,15.8H294Z" fill="#3d8fa0"/>
      </g>
      <g id="Group_383" data-name="Group 383">
        <g id="Group_381" data-name="Group 381">
          <g id="Group_378" data-name="Group 378">
            <path id="Path_29" data-name="Path 29" d="M290.449,1592.422a3.886,3.886,0,0,1-3.094-1.449l1.985-1.52a1.389,1.389,0,0,0,1.109.469c.728,0,1.235-.427,1.235-.811,0-.471-.706-.711-1.3-.829-1.9-.377-3.029-1.531-3.029-3.088a3.335,3.335,0,0,1,3.507-3.122,3.657,3.657,0,0,1,2.873,1.326l-1.965,1.547a1.153,1.153,0,0,0-.908-.373c-.576,0-1.007.328-1.007.622,0,.413.847.6,1.017.637,2.988.594,3.311,2.491,3.311,3.28A3.546,3.546,0,0,1,290.449,1592.422Z" fill="#3d8fa0"/>
          </g>
          <g id="Group_379" data-name="Group 379">
            <rect id="Rectangle_387" data-name="Rectangle 387" width="2.5" height="2" transform="translate(289.25 1591)" fill="#3d8fa0"/>
          </g>
          <g id="Group_380" data-name="Group 380">
            <rect id="Rectangle_388" data-name="Rectangle 388" width="2.5" height="1" transform="translate(289.25 1582)" fill="#3d8fa0"/>
          </g>
        </g>
        <g id="Group_382" data-name="Group 382">
          <path id="Path_30" data-name="Path 30" d="M290.5,1597.75a10.25,10.25,0,1,1,10.25-10.25A10.261,10.261,0,0,1,290.5,1597.75Zm0-18a7.75,7.75,0,1,0,7.75,7.75A7.759,7.759,0,0,0,290.5,1579.75Z" fill="#3d8fa0"/>
        </g>
      </g>
    </g>
  </g>
</svg>
