<svg xmlns="http://www.w3.org/2000/svg" xmlns:xlink="http://www.w3.org/1999/xlink" width="59.986" height="60" viewBox="0 0 59.986 60">
  <defs>
    <clipPath id="clip-path">
      <rect id="Rectangle_1114" data-name="Rectangle 1114" width="59.987" height="60" fill="#3d8fa0"/>
    </clipPath>
  </defs>
  <g id="Group_1071" data-name="Group 1071" transform="translate(0 0)">
    <g id="Group_1070" data-name="Group 1070" transform="translate(0 0)" clip-path="url(#clip-path)">
      <path id="Path_305" data-name="Path 305" d="M29.422,0A30,30,0,1,1,0,30.45,30.02,30.02,0,0,1,29.422,0M37.745,27.88a8.749,8.749,0,0,1,12.982-2.9,8.3,8.3,0,0,1,3.412,6.093,8.708,8.708,0,0,1-4.286,8.432,12.891,12.891,0,0,1,4.987,3.382A28.024,28.024,0,0,0,10.88,9.436,27.858,27.858,0,0,0,5.152,42.889a12.894,12.894,0,0,1,4.955-3.378A8.777,8.777,0,0,1,8.26,25.865a8.4,8.4,0,0,1,6.591-2.622,8.659,8.659,0,0,1,7.385,4.64,8.812,8.812,0,0,1,15.51,0M19.237,55.916A28.2,28.2,0,0,0,28.169,58,27.787,27.787,0,0,0,40.293,56.1a.582.582,0,0,0,.329-.4,57.493,57.493,0,0,0-.115-5.794,10.592,10.592,0,0,0-20.883-.8,57.155,57.155,0,0,0-.387,6.808M38.7,31.96a6.772,6.772,0,1,0,6.676-6.795A6.795,6.795,0,0,0,38.7,31.96M14.515,38.715a6.775,6.775,0,1,0-6.781-6.69,6.8,6.8,0,0,0,6.781,6.69M29.995,25.166a6.775,6.775,0,1,0,6.771,6.7,6.782,6.782,0,0,0-6.771-6.7M42.574,55.026a1.576,1.576,0,0,0,.2-.054,28.271,28.271,0,0,0,10.869-9.878c.212-.325.087-.493-.1-.721A10.638,10.638,0,0,0,39.507,42.49a2.877,2.877,0,0,0-.291.272,12.768,12.768,0,0,1,3.362,9.269c-.028.983,0,1.967,0,3M20.8,42.783a2.2,2.2,0,0,0-.2-.2A10.677,10.677,0,0,0,6.364,44.457c-.245.314-.115.49.04.729a27.862,27.862,0,0,0,7.8,8c1,.681,2.071,1.273,3.282,2.01-.336-4.664-.055-8.966,3.308-12.408m20.24-3.358a9.191,9.191,0,0,1-3.312-3.5,9.145,9.145,0,0,1-3.289,3.509l3.294,1.85,3.307-1.862m-18.788-3.5a9.169,9.169,0,0,1-3.295,3.5l3.3,1.855,3.316-1.851a9.1,9.1,0,0,1-3.318-3.5" transform="translate(0 0)" fill="#3d8fa0"/>
      <path id="Path_306" data-name="Path 306" d="M40.784,11.987a3.563,3.563,0,0,1-.556.716q-1.841,1.522-3.728,2.983a.648.648,0,0,0-.246.865c.513,1.46.981,2.938,1.48,4.4a1.016,1.016,0,0,1-1.508,1.3c-1.534-.754-3.088-1.473-4.614-2.244a1.094,1.094,0,0,0-1.116.016c-1.509.761-3.04,1.478-4.554,2.229a1.066,1.066,0,0,1-1.291-.027,1.053,1.053,0,0,1-.221-1.271c.484-1.408.925-2.831,1.433-4.23a.851.851,0,0,0-.329-1.159c-1.224-.919-2.393-1.909-3.6-2.856a1,1,0,0,1,.432-1.884c1.571-.348,3.133-.736,4.706-1.082a1.209,1.209,0,0,0,.933-.725c.676-1.417,1.408-2.806,2.107-4.211a1.074,1.074,0,0,1,.949-.727,1.059,1.059,0,0,1,1,.741c.705,1.446,1.411,2.894,2.153,4.323a1.118,1.118,0,0,0,.642.509c1.658.419,3.325.8,4.992,1.181a1.112,1.112,0,0,1,.935,1.146M26.928,19.619c1.128-.548,2.145-.99,3.109-1.527a1.907,1.907,0,0,1,2.036-.01c.991.543,2.032.994,3.166,1.539-.385-1.162-.725-2.189-1.066-3.215-.31-.935-.263-1.107.486-1.708l2.957-2.371c-1.271-.3-2.429-.612-3.6-.835a1.731,1.731,0,0,1-1.379-1.1c-.464-1.036-1-2.041-1.559-3.17C30.5,8.361,29.961,9.367,29.483,10.4a1.756,1.756,0,0,1-1.389,1.088c-1.157.219-2.3.53-3.546.827l2.96,2.375c.746.6.8.777.487,1.709-.341,1.026-.679,2.052-1.066,3.219" transform="translate(-1.093 -0.208)" fill="#3d8fa0"/>
    </g>
  </g>
</svg>
