<svg xmlns="http://www.w3.org/2000/svg" xmlns:xlink="http://www.w3.org/1999/xlink" width="71.991" height="60" viewBox="0 0 71.991 60">
  <defs>
    <clipPath id="clip-path">
      <rect id="Rectangle_1118" data-name="Rectangle 1118" width="71.991" height="60" fill="#3d8fa0"/>
    </clipPath>
  </defs>
  <g id="Group_1073" data-name="Group 1073" transform="translate(0 0)">
    <g id="Group_1072" data-name="Group 1072" transform="translate(0 0)" clip-path="url(#clip-path)">
      <path id="Path_307" data-name="Path 307" d="M36.031,0H67.524c2.917,0,4.466,1.562,4.466,4.5q0,25.5,0,50.995c0,2.967-1.549,4.5-4.54,4.5H4.54C1.548,60,0,58.464,0,55.5V4.5C0,1.529,1.542,0,4.54,0H36.031m33.56,12.053H2.4V55.437c0,1.716.453,2.163,2.186,2.163H67.412c1.725,0,2.179-.453,2.179-2.171V12.053ZM2.4,9.547H69.591V4.628c0-1.786-.435-2.228-2.194-2.228H4.578c-.225,0-.451-.01-.674.007A1.5,1.5,0,0,0,2.414,3.9C2.383,5.765,2.4,7.635,2.4,9.547" transform="translate(0 0)" fill="#3d8fa0"/>
      <path id="Path_308" data-name="Path 308" d="M41.951,58.406A18.01,18.01,0,1,1,59.975,40.38,18.042,18.042,0,0,1,41.951,58.406m10.714-6.753a15.555,15.555,0,0,0-11.934-26.8A15.611,15.611,0,0,0,26.7,37.334c-1.267,6.411,1.93,12.34,4.811,14.4.044-.151.088-.29.125-.432a14.273,14.273,0,0,1,4.022-7.063,8.742,8.742,0,0,1,7.822-2.51,9.774,9.774,0,0,1,6.73,4.834,53.763,53.763,0,0,1,2.458,5.087M41.841,55.988a15.856,15.856,0,0,0,7.907-2.066.791.791,0,0,0,.479-.943,11.611,11.611,0,0,0-4-7.326c-2.041-1.679-4.349-2.294-6.819-1.046-3.483,1.759-5.087,4.844-5.67,8.553a.952.952,0,0,0,.444.714,15.194,15.194,0,0,0,7.655,2.114" transform="translate(-5.982 -5.584)" fill="#3d8fa0"/>
      <rect id="Rectangle_1115" data-name="Rectangle 1115" width="23.894" height="2.315" transform="translate(4.858 4.849)" fill="#3d8fa0"/>
      <rect id="Rectangle_1116" data-name="Rectangle 1116" width="2.309" height="2.307" transform="translate(54.046 4.834)" fill="#3d8fa0"/>
      <rect id="Rectangle_1117" data-name="Rectangle 1117" width="2.315" height="2.329" transform="translate(62.428 4.829)" fill="#3d8fa0"/>
      <path id="Path_309" data-name="Path 309" d="M45.959,28.781a6,6,0,1,1-5.991,5.948,6,6,0,0,1,5.991-5.948m.005,2.4a3.6,3.6,0,1,0,3.6,3.634,3.606,3.606,0,0,0-3.6-3.634" transform="translate(-9.97 -7.18)" fill="#3d8fa0"/>
    </g>
  </g>
</svg>
