<svg xmlns="http://www.w3.org/2000/svg" width="45.454" height="62.501" viewBox="0 0 45.454 62.501">
  <g id="bg2gUg" transform="translate(-291.659 -2435)">
    <g id="Group_497" data-name="Group 497">
      <path id="Path_132" data-name="Path 132" d="M299.634,2482.639a18.617,18.617,0,0,1,1.845-1.614c.963-.66,2.013-1.192,3.024-1.783.644-.377,1.291-.749,1.924-1.146,1.176-.738,2.3-1.562,3.523-2.22a5.533,5.533,0,0,1,3.848-.653,3.064,3.064,0,0,1,2.3,4.275,5.072,5.072,0,0,1-2.377,2.516c-1.5.86-2.993,1.749-4.487,2.629-.1.059-.188.139-.381.284,1.357.073,2.589.135,3.82.206,1.262.073,2.525.138,3.784.24a3.2,3.2,0,0,0,2.12-.553c2.462-1.635,4.946-3.236,7.414-4.861a5.783,5.783,0,0,1,3.3-1.1,2.621,2.621,0,0,1,2.74,1.629,26.4,26.4,0,0,1,2.777-.072,3.048,3.048,0,0,1,1.408.555,1.924,1.924,0,0,1,.533,2.766,3.572,3.572,0,0,1-.91.98q-7.149,4.964-14.324,9.888a9.521,9.521,0,0,1-5.618,1.65c-5.227-.019-10.454.12-15.681.188a1.466,1.466,0,0,0-1.063.407,2.525,2.525,0,0,1-1.429.582c-1.388.09-2.784.076-4.176.065a1.792,1.792,0,0,1-1.808-1.8q-.066-6.075-.079-12.151a1.64,1.64,0,0,1,1.544-1.753,40.225,40.225,0,0,1,4.812-.062C298.546,2481.759,299.049,2482.293,299.634,2482.639Zm.077,12.1c5.881-.092,11.684-.19,17.487-.266a4.279,4.279,0,0,0,2.238-.682c2.054-1.275,4.134-2.513,6.127-3.879,3.09-2.117,6.122-4.32,9.16-6.513a3.408,3.408,0,0,0,.626-.886c-.331-.164-.677-.488-.99-.459a7.262,7.262,0,0,0-2.339.5c-2.292,1.055-4.581,2.133-6.781,3.365a10.564,10.564,0,0,1-5.679,1.238,69.85,69.85,0,0,1-11.885-1.028c-.447-.091-.928-.057-1.1-.584a1.2,1.2,0,0,1,.506-1.3,8.439,8.439,0,0,1,1.3-1.04c1.494-.919,3.008-1.806,4.524-2.688a3.448,3.448,0,0,0,1.605-1.6,1.331,1.331,0,0,0-1.058-2.014,3.958,3.958,0,0,0-2.056.245c-1.248.587-2.409,1.363-3.6,2.071-.861.512-1.712,1.043-2.569,1.563-1.017.619-2.078,1.175-3.038,1.871-.775.561-1.415,1.306-2.143,1.938a1.165,1.165,0,0,0-.442.991c.04,2.828.053,5.656.077,8.484C299.678,2494.256,299.7,2494.444,299.711,2494.739Zm-6.291-11.379a2.549,2.549,0,0,0-.093.4c.021,3.872.049,7.745.064,11.617,0,.408.222.439.537.431,1.112-.031,2.224-.08,3.335-.06.575.01.768-.143.756-.752-.058-2.866-.064-5.733-.087-8.6-.007-.856.009-1.713-.03-2.567-.007-.16-.225-.442-.35-.445C296.168,2483.348,294.783,2483.36,293.42,2483.36Zm27.555,1.927.074.2a6.769,6.769,0,0,0,1.741-.311c2.4-1.125,4.76-2.316,7.121-3.513a.938.938,0,0,0,.417-.638c.014-.11-.334-.342-.549-.4a3.314,3.314,0,0,0-2.658.643c-1.508.972-3,1.963-4.506,2.946Q321.8,2484.753,320.975,2485.287Z" fill="#3d8fa0"/>
      <path id="Path_133" data-name="Path 133" d="M323.755,2465.6a3.368,3.368,0,0,1-.409.595c-.78.795-1.6,1.551-2.362,2.363a1.151,1.151,0,0,0-.259.83c.144,1.081.392,2.148.524,3.23a1.25,1.25,0,0,1-.283,1.012,1.342,1.342,0,0,1-1.1-.007c-.974-.438-1.918-.948-2.847-1.477a.947.947,0,0,0-1.054.013c-.915.511-1.836,1.017-2.79,1.448a1.583,1.583,0,0,1-1.123.059c-.463-.188-.4-.678-.318-1.126.2-1.052.395-2.1.53-3.165a1.15,1.15,0,0,0-.275-.829c-.763-.81-1.6-1.548-2.355-2.368a1.225,1.225,0,0,1-.32-.992,1.276,1.276,0,0,1,.87-.592c1.09-.219,2.194-.375,3.3-.5a.8.8,0,0,0,.705-.53c.481-1,.955-2.011,1.493-2.983.153-.276.523-.614.78-.6a1.256,1.256,0,0,1,.855.6c.548.966.99,1.992,1.524,2.967a1.131,1.131,0,0,0,.69.51c1.113.211,2.24.351,3.361.523A.909.909,0,0,1,323.755,2465.6Zm-7.269-2.926c-.418.84-.734,1.594-1.16,2.28a1.65,1.65,0,0,1-.912.669c-.791.2-1.613.271-2.466.4.609.627,1.147,1.2,1.711,1.754a1.2,1.2,0,0,1,.383,1.21c-.164.769-.263,1.552-.41,2.453.759-.395,1.432-.706,2.064-1.086a1.393,1.393,0,0,1,1.561,0c.632.367,1.3.679,2.059,1.073-.147-.884-.246-1.625-.4-2.355a1.255,1.255,0,0,1,.406-1.324c.585-.52,1.139-1.075,1.812-1.715-.965-.142-1.74-.271-2.519-.366a1.2,1.2,0,0,1-1.024-.754C317.26,2464.2,316.9,2463.5,316.486,2462.675Z" fill="#3d8fa0"/>
      <path id="Path_134" data-name="Path 134" d="M325.416,2464.783c.142-.842.323-1.768.437-2.7a1.074,1.074,0,0,0-.236-.769c-.578-.63-1.206-1.216-1.829-1.8-.334-.316-.636-.706-.375-1.115a1.645,1.645,0,0,1,.965-.6c.832-.189,1.693-.249,2.532-.416a1,1,0,0,0,.6-.442c.4-.707.746-1.444,1.1-2.175.2-.413.393-.839.938-.848.58-.01.778.446.99.873.332.671.7,1.328.987,2.017a.988.988,0,0,0,.907.657,20.474,20.474,0,0,1,2.411.365,1.369,1.369,0,0,1,.888.654c.093.253-.147.721-.372.978a19.133,19.133,0,0,1-1.737,1.715,1.008,1.008,0,0,0-.342,1.073,24.46,24.46,0,0,1,.408,2.469,1.214,1.214,0,0,1-.3.948,1.175,1.175,0,0,1-.989.03,17.432,17.432,0,0,1-2.219-1.154,1.064,1.064,0,0,0-1.235.018c-.72.419-1.465.8-2.215,1.164S325.376,2465.69,325.416,2464.783Zm6.371-1.327c-.1-.628-.162-1.117-.273-1.592a1.3,1.3,0,0,1,.449-1.434c.393-.32.761-.669,1.14-1l-.1-.178c-.5-.074-1-.166-1.5-.216a1.275,1.275,0,0,1-1.178-.833c-.2-.49-.465-.953-.744-1.514a12.173,12.173,0,0,0-.631,1.266,1.527,1.527,0,0,1-1.538,1.111,10.025,10.025,0,0,0-1.334.216c.464.477.841.885,1.239,1.27a1.129,1.129,0,0,1,.357,1.157c-.124.545-.183,1.1-.287,1.76.607-.317,1.106-.558,1.585-.833a1.123,1.123,0,0,1,1.21,0C330.663,2462.9,331.164,2463.138,331.787,2463.456Z" fill="#3d8fa0"/>
      <path id="Path_135" data-name="Path 135" d="M307.556,2463.635c0,.832-.589,1.218-1.272.889-.79-.381-1.572-.782-2.328-1.224a.984.984,0,0,0-1.114.007,20.3,20.3,0,0,1-2.222,1.148,1.244,1.244,0,0,1-1.041-.012,1.287,1.287,0,0,1-.3-1c.076-.828.249-1.649.406-2.468a.921.921,0,0,0-.311-.963,20.889,20.889,0,0,1-1.825-1.807,1.247,1.247,0,0,1-.31-.994,1.3,1.3,0,0,1,.867-.595,22.493,22.493,0,0,1,2.535-.39.846.846,0,0,0,.759-.566c.339-.738.724-1.456,1.081-2.186.194-.4.4-.765.926-.756s.72.39.913.781c.37.748.717,1.51,1.13,2.233a1.094,1.094,0,0,0,.666.463c.859.172,1.74.238,2.6.424.313.068.748.312.818.563a1.291,1.291,0,0,1-.3,1.005,22.567,22.567,0,0,1-1.821,1.811.888.888,0,0,0-.315.951C307.287,2461.866,307.416,2462.8,307.556,2463.635Zm-4.16-8.155a12.679,12.679,0,0,1-.832,1.6,1.886,1.886,0,0,1-.908.668,13.746,13.746,0,0,1-1.861.321c.469.443.8.8,1.184,1.107a1.376,1.376,0,0,1,.481,1.54c-.11.464-.161.941-.259,1.541.621-.326,1.117-.568,1.6-.844a1.119,1.119,0,0,1,1.207,0c.5.281,1.018.525,1.6.822-.1-.627-.151-1.18-.282-1.714a1.173,1.173,0,0,1,.413-1.256c.4-.363.8-.74,1.293-1.2-.718-.114-1.239-.228-1.765-.271a1.222,1.222,0,0,1-1.111-.818C303.941,2456.5,303.679,2456.039,303.4,2455.48Z" fill="#3d8fa0"/>
      <path id="Path_136" data-name="Path 136" d="M319.759,2457.091a2.505,2.505,0,0,1-.372-.127c-.973-.489-1.942-.985-2.912-1.478q-1.425.736-2.849,1.476a.754.754,0,0,1-1.042-.146,1.378,1.378,0,0,1-.225-.881c.1-.848.266-1.69.429-2.53a.913.913,0,0,0-.3-.964,22.66,22.66,0,0,1-1.869-1.854,1.176,1.176,0,0,1-.283-.948,1.215,1.215,0,0,1,.809-.589,22.3,22.3,0,0,1,2.6-.393.839.839,0,0,0,.752-.569c.354-.755.746-1.492,1.11-2.243.188-.386.429-.789.891-.67a1.536,1.536,0,0,1,.835.66c.436.734.754,1.537,1.18,2.278a1.169,1.169,0,0,0,.7.5c.858.177,1.742.233,2.594.429a1.308,1.308,0,0,1,.849.629,1.18,1.18,0,0,1-.313.944,22.546,22.546,0,0,1-1.826,1.807.942.942,0,0,0-.307,1.018c.177.836.311,1.683.439,2.529A.883.883,0,0,1,319.759,2457.091Zm-6.877-6.588c.488.461.857.836,1.254,1.178a1.265,1.265,0,0,1,.429,1.376c-.12.5-.169,1.023-.264,1.632.6-.312,1.1-.548,1.578-.827a1.1,1.1,0,0,1,1.2,0c.487.279,1,.515,1.6.819-.1-.608-.133-1.1-.258-1.57a1.3,1.3,0,0,1,.474-1.478c.388-.318.754-.663,1.129-1a5.313,5.313,0,0,0-1.562-.363,1.361,1.361,0,0,1-1.26-.918c-.189-.47-.448-.911-.713-1.439-.287.572-.555,1.058-.777,1.564a1.164,1.164,0,0,1-1.018.755C314.149,2450.294,313.61,2450.392,312.882,2450.5Z" fill="#3d8fa0"/>
      <path id="Path_137" data-name="Path 137" d="M309.037,2443.351c-.2.185-.4.507-.689.621a.743.743,0,0,1-.989-.48c-.223-.532-.409-1.079-.612-1.62-.459-1.222-.922-2.441-1.374-3.665-.22-.6-.069-1.066.379-1.258.5-.213.957.014,1.194.636.654,1.72,1.293,3.445,1.935,5.169C308.933,2442.892,308.957,2443.04,309.037,2443.351Z" fill="#3d8fa0"/>
      <path id="Path_138" data-name="Path 138" d="M325.074,2444.01c-.809.019-1.245-.505-1.036-1.089.66-1.854,1.357-3.695,2.068-5.53a.766.766,0,0,1,1.066-.447.781.781,0,0,1,.481,1.1c-.659,1.787-1.309,3.577-2.007,5.348C325.532,2443.679,325.2,2443.882,325.074,2444.01Z" fill="#3d8fa0"/>
      <path id="Path_139" data-name="Path 139" d="M296.975,2442.145a3.947,3.947,0,0,1,.749.508c1.231,1.4,2.442,2.811,3.659,4.22a.838.838,0,0,1,.008,1.257c-.367.374-.871.316-1.284-.156-1.228-1.4-2.459-2.8-3.644-4.233a1.264,1.264,0,0,1-.185-.981C296.338,2442.525,296.706,2442.368,296.975,2442.145Z" fill="#3d8fa0"/>
      <path id="Path_140" data-name="Path 140" d="M332.125,2448.483c-.282-.217-.629-.351-.7-.574a1.177,1.177,0,0,1,.1-.937c.533-.719,1.155-1.373,1.742-2.052.629-.728,1.254-1.459,1.887-2.183.441-.506.941-.6,1.333-.273a.9.9,0,0,1-.032,1.357c-1.171,1.36-2.343,2.721-3.533,4.066A5.047,5.047,0,0,1,332.125,2448.483Z" fill="#3d8fa0"/>
      <path id="Path_141" data-name="Path 141" d="M315.635,2438.786c0-.942,0-1.885,0-2.827a.831.831,0,0,1,.812-.956c.5-.042.869.365.872.968.01,1.863,0,3.726,0,5.589a.84.84,0,0,1-.821.955c-.505.045-.856-.355-.863-.967C315.627,2440.628,315.635,2439.707,315.635,2438.786Z" fill="#3d8fa0"/>
    </g>
  </g>
</svg>
