<svg xmlns="http://www.w3.org/2000/svg" width="58" height="58" viewBox="0 0 58 58">
  <g id="Fono-Coop" transform="translate(-654 -475)">
    <path id="Subtraction_1" data-name="Subtraction 1" d="M24.108,40.5h0a24.3,24.3,0,0,1-4.541-2.184A40.13,40.13,0,0,1,9.591,30.5,39.2,39.2,0,0,1,1.253,17.53,16.559,16.559,0,0,1,.058,12.352,1.6,1.6,0,0,0,0,12.077v-.571c.02-.156.037-.315.054-.469.035-.322.071-.655.135-.977A6.02,6.02,0,0,1,1.8,6.957c.263-.27.529-.547.786-.815.837-.873,1.7-1.774,2.623-2.577A3.841,3.841,0,0,1,7.98,2.377h.047a3.837,3.837,0,0,1,2.788,1.254c1.7,1.6,3.483,3.4,5.448,5.506a3.714,3.714,0,0,1,.029,5c-.735.837-1.541,1.634-2.321,2.406q-.333.329-.664.659a.417.417,0,0,0-.11.578,22.949,22.949,0,0,0,3.985,5.439,27.482,27.482,0,0,0,5.285,4.457c.382.243.776.455,1.192.68.191.1.387.208.583.318q.34-.345.675-.687c.429-.438.872-.891,1.309-1.322s.892-.879,1.371-1.277a3.728,3.728,0,0,1,4.9.07c.3.29.609.583.906.87a18.359,18.359,0,0,0-2.02,1.308l-.2-.192a1.573,1.573,0,0,0-1.15-.545H30a1.572,1.572,0,0,0-1.138.491c-.135.116-.264.244-.384.366l-.874.874c-.631.632-1.282,1.283-1.927,1.919a1.749,1.749,0,0,1-2.159.417,25.877,25.877,0,0,1-2.353-1.3,30.584,30.584,0,0,1-6.684-5.875,21.835,21.835,0,0,1-3.5-5.137c-.69-1.5-.6-1.962.6-3.119.852-.821,1.839-1.78,2.768-2.767a1.515,1.515,0,0,0,.028-2.232c-.085-.1-.165-.194-.244-.274-1.706-1.71-3.29-3.295-4.844-4.846a2.448,2.448,0,0,0-.587-.43,1.671,1.671,0,0,0-.742-.172,1.7,1.7,0,0,0-1.347.67c-.383.376-.768.764-1.139,1.14C4.963,7.143,4.433,7.678,3.9,8.189a4.6,4.6,0,0,0-1.5,3.657l.032.357,0,.018c.03.343.062.7.1,1.047a6.01,6.01,0,0,0,.123.639,26.15,26.15,0,0,0,3.39,8.03,39.878,39.878,0,0,0,16.577,15.3,19.354,19.354,0,0,0,1.875.875,18.3,18.3,0,0,0-.394,2.385ZM33,20.164a1.2,1.2,0,0,1-1.169-.956,20.521,20.521,0,0,0-.836-2.674A11.109,11.109,0,0,0,22.68,9.955,1.191,1.191,0,1,1,23.038,7.6,13.74,13.74,0,0,1,34.145,18.635,1.195,1.195,0,0,1,33,20.164Zm7.562-.375a1.167,1.167,0,0,1-1.115-.816c-.116-.407-.215-.826-.31-1.232-.109-.465-.222-.946-.363-1.408a20.183,20.183,0,0,0-15.528-13.9c-.9-.17-1.323-.593-1.3-1.293A1.278,1.278,0,0,1,22.847,0h.571c.3.077.6.152.9.225.636.157,1.295.32,1.93.516a21.957,21.957,0,0,1,8.1,4.553,22.626,22.626,0,0,1,5.828,7.956,22.118,22.118,0,0,1,1.54,5.175,1.177,1.177,0,0,1-.881,1.331A1.155,1.155,0,0,1,40.56,19.789Z" transform="translate(654 475)" fill="#3d8fa0"/>
    <g id="_24_7" data-name="24/7">
      <g id="Ellipse_2" data-name="Ellipse 2" transform="translate(680 501)" fill="none" stroke="#3d8fa0" stroke-width="2">
        <circle cx="16" cy="16" r="16" stroke="none"/>
        <circle cx="16" cy="16" r="15" fill="none"/>
      </g>
      <path id="Path_8" data-name="Path 8" d="M.559-.949A.96.96,0,0,0,1.638,0h4.94a.86.86,0,0,0,.871-.858.871.871,0,0,0-.871-.871H3.406L4.888-2.873C6.5-4.121,7.28-4.875,7.28-6.4v-.026c0-1.7-1.248-2.808-3.133-2.808A3.583,3.583,0,0,0,1.183-7.891a1,1,0,0,0-.234.624.9.9,0,0,0,.91.91.914.914,0,0,0,.676-.286,1.922,1.922,0,0,1,1.482-.793A1.116,1.116,0,0,1,5.239-6.253c0,.754-.442,1.261-1.573,2.184L1.079-1.95A1.264,1.264,0,0,0,.559-.949Zm12.519.078a.938.938,0,0,0,.949.949.949.949,0,0,0,.962-.949V-1.963h.481a.8.8,0,0,0,.819-.806.816.816,0,0,0-.819-.819h-.481V-8.294a.949.949,0,0,0-.962-.949,1.468,1.468,0,0,0-1.248.676L8.827-3.978a1.62,1.62,0,0,0-.468,1.092.939.939,0,0,0,.975.923h3.744ZM10.66-3.588l2.418-2.834v2.834Z" transform="translate(684 517)" fill="#3d8fa0"/>
      <path id="Path_9" data-name="Path 9" d="M1.476-.756a.867.867,0,0,0,.948.828.98.98,0,0,0,.888-.624l3.372-6.12a2.028,2.028,0,0,0,.264-.9.767.767,0,0,0-.84-.828H1.548a.8.8,0,0,0-.8.8.794.794,0,0,0,.8.792H4.764L1.644-1.332A1.365,1.365,0,0,0,1.476-.756Z" transform="translate(699 527)" fill="#3d8fa0"/>
      <line id="Line_1" data-name="Line 1" x1="11.698" y2="13.825" transform="translate(692.65 511.677)" fill="none" stroke="#3d8fa0" stroke-linecap="round" stroke-width="1"/>
    </g>
  </g>
</svg>
