<svg id="Group_1075" data-name="Group 1075" xmlns="http://www.w3.org/2000/svg" xmlns:xlink="http://www.w3.org/1999/xlink" width="59.873" height="60" viewBox="0 0 59.873 60">
  <defs>
    <clipPath id="clip-path">
      <rect id="Rectangle_1122" data-name="Rectangle 1122" width="59.873" height="60" fill="#3d8fa0"/>
    </clipPath>
  </defs>
  <g id="Group_1074" data-name="Group 1074" clip-path="url(#clip-path)">
    <path id="Path_310" data-name="Path 310" d="M19.042,73.723A8.864,8.864,0,0,1,13.836,70.5c-.632-.691-1.321-1.329-1.984-1.992q-4.8-4.8-9.609-9.61a6.764,6.764,0,0,1-.022-10.043c1.35-1.355,2.7-2.706,4.017-4.021l7.2,7.2c-.675.657-1.4,1.359-2.118,2.066-.543.534-1.088,1.067-1.613,1.618a.933.933,0,0,0-.1,1.323c1.083,1.114,2.2,2.191,3.357,3.327.149-.424.276-.808.418-1.185a6.636,6.636,0,0,1,5.281-4.452c1.954-.369,3.913-.712,5.87-1.069.151-.028.3-.073.639-.158a3,3,0,0,0-.514-.659,9.878,9.878,0,0,1-4.215-5.914.78.78,0,0,0-.41-.465,3.891,3.891,0,0,1-2.747-3.923c0-2.168-.009-4.335,0-6.5a12.562,12.562,0,0,1,25.065-1.289c.182,2.447.086,4.916.1,7.375.012,1.719,0,3.437,0,5.155a2.9,2.9,0,0,1-3.194,3.2,2.767,2.767,0,0,0-2.661,1.091,9.183,9.183,0,0,1-1.572,1.3,3.729,3.729,0,0,0-.465.652l3.357.627c1.207.226,2.428.4,3.62.687a6.384,6.384,0,0,1,4.724,4.146c.828,2.228,1.528,4.5,2.282,6.759a.972.972,0,0,1,0,.231H28.036l-.064.119,1.509,1.266c-2.018,1.809-3.857,3.5-5.743,5.132a6.869,6.869,0,0,1-3.055,1.236ZM29.857,59.615c-1.3-1.305-2.573-2.568-3.825-3.853a.846.846,0,0,0-.875-.264c-2.03.389-4.066.743-6.1,1.118a4.784,4.784,0,0,0-3.889,3.313c-.187.533-.352,1.074-.547,1.6a.573.573,0,0,0,.155.718c.586.545,1.133,1.131,1.705,1.69a1,1,0,0,0,1.589.033c.947-.845,1.883-1.7,2.824-2.552.415-.374.833-.744,1.284-1.146,1.136,1.142,2.245,2.239,3.331,3.358a1.226,1.226,0,0,0,.967.411q9.4-.018,18.8-.009h.663c-.49-1.468-.924-2.859-1.42-4.229a4.723,4.723,0,0,0-3.8-3.184c-1.782-.337-3.587-.571-5.346-1a2.026,2.026,0,0,0-2.273.714c-1.007,1.133-2.131,2.161-3.246,3.273m.018-26.028a11.187,11.187,0,0,0,9.679,4.32V39l.944.364c0-1.278.023-2.5,0-3.728a10.567,10.567,0,0,0-13.117-9.971c-7.06,1.908-8.743,7.723-8.059,13.675l.915-.365V37.9a11.188,11.188,0,0,0,9.642-4.311m.03,14.964c1.636,0,3.232.006,4.828,0,.619,0,1.49.2,1.8-.121a6.307,6.307,0,0,0,.9-2.114.528.528,0,0,0,.027-.173c.049-2.007.1-4.015.123-6.022,0-.118-.294-.324-.468-.345a12.544,12.544,0,0,1-6.936-3.112,3.42,3.42,0,0,0-.347-.24,12.469,12.469,0,0,1-7.258,3.338c-.335.035-.468.153-.463.508.018,1.523-.029,3.047.018,4.568a7.724,7.724,0,0,0,9.234,7.442A7.24,7.24,0,0,0,34.93,50.5H29.905ZM3.854,50a4.843,4.843,0,0,0-.325,7.457q2.891,2.906,5.8,5.8c2.361,2.36,4.708,4.733,7.084,7.077a4.833,4.833,0,0,0,7.273-.391l-4.408-4.425a2.884,2.884,0,0,1-4.066-.117c-2.3-2.28-4.6-4.565-6.863-6.884a3.619,3.619,0,0,1-.789-1.4,2.8,2.8,0,0,1,.707-2.723L3.854,50M26.471,67.446,22.044,63l-1.1,1L25.4,68.44l1.076-.995M5.378,48.516l4.358,4.357.9-.925L6.256,47.562l-.878.954M29.9,56.692l2.71-2.714a9.9,9.9,0,0,1-5.4.028L29.9,56.692m8.916-8.2c1.584.3,1.923-.433,1.571-2.35-.364.193-.867.293-1.025.581a8.6,8.6,0,0,0-.546,1.769M20.181,41.1a1.9,1.9,0,0,0-.927,1.858,1.718,1.718,0,0,0,.927,1.41ZM39.6,41.2v3.153a1.835,1.835,0,0,0,0-3.153" transform="translate(0 -13.723)" fill="#3d8fa0"/>
    <path id="Path_311" data-name="Path 311" d="M102.51,19.366c.337-1.979.654-3.84.981-5.762-.187-.017-.351-.043-.515-.044-.683-.005-1.368.018-2.05-.008a2.87,2.87,0,0,1-2.9-2.848q-.063-3.923,0-7.848A2.858,2.858,0,0,1,100.979.007q6.706-.014,13.412,0a2.841,2.841,0,0,1,2.96,2.894q.046,3.865,0,7.731a2.86,2.86,0,0,1-2.824,2.919,1.665,1.665,0,0,1-.351,0,5.98,5.98,0,0,0-4.4,1.257c-2.193,1.49-4.483,2.836-6.733,4.242-.131.082-.266.156-.533.312m2.657-4.025a.744.744,0,0,0,.191-.028c1.176-.731,2.414-1.381,3.511-2.215a7.046,7.046,0,0,1,5.269-1.509c.973.107,1.3-.293,1.3-1.267q0-3.484,0-6.968c0-1.138-.272-1.409-1.418-1.409H102.428c-.488,0-.976-.014-1.464.007a.915.915,0,0,0-1,.983q-.018,3.835,0,7.671a.925.925,0,0,0,.982,1c.214.01.429,0,.644,0h4.2l-.624,3.732" transform="translate(-57.5 0)" fill="#3d8fa0"/>
    <path id="Path_312" data-name="Path 312" d="M37.911,8.257l-.552,1.761c-8.341-2.26-16.014-1.007-22.89,4.245a24.65,24.65,0,0,0-8.986,13.81l1.352-.8L8.112,26.5,9.1,28.154l-5.663,3.4L.045,25.9,1.692,24.9l1.811,3A27.075,27.075,0,0,1,37.911,8.257" transform="translate(-0.026 -4.098)" fill="#3d8fa0"/>
    <path id="Path_313" data-name="Path 313" d="M123.955,47.438l-1.724,2.851-1.655-.988,3.4-5.666,5.664,3.4-.993,1.654-2.781-1.654c2.768,9.356,1.214,17.854-4.662,25.653-.293-.234-.533-.423-.769-.616s-.476-.395-.729-.6a25.526,25.526,0,0,0,4.252-24.027" transform="translate(-70.242 -25.605)" fill="#3d8fa0"/>
    <rect id="Rectangle_1119" data-name="Rectangle 1119" width="11.544" height="1.858" transform="translate(44.424 3.906)" fill="#3d8fa0"/>
    <rect id="Rectangle_1120" data-name="Rectangle 1120" width="7.686" height="1.867" transform="translate(44.405 7.778)" fill="#3d8fa0"/>
    <rect id="Rectangle_1121" data-name="Rectangle 1121" width="1.849" height="1.869" transform="translate(54.093 7.777)" fill="#3d8fa0"/>
  </g>
</svg>
