<svg id="Group_1077" data-name="Group 1077" xmlns="http://www.w3.org/2000/svg" xmlns:xlink="http://www.w3.org/1999/xlink" width="83.932" height="60" viewBox="0 0 83.932 60">
  <defs>
    <clipPath id="clip-path">
      <rect id="Rectangle_1123" data-name="Rectangle 1123" width="83.932" height="60" fill="#3d8fa0"/>
    </clipPath>
  </defs>
  <g id="Group_1076" data-name="Group 1076" clip-path="url(#clip-path)">
    <path id="Path_314" data-name="Path 314" d="M0,18.819a.539.539,0,0,0,.1-.126,3.791,3.791,0,0,1,4.121-2.9q14.673-.006,29.346,0,16.886,0,33.772.015c.661,0,.931-.168,1.1-.835,1.032-4.016,2.115-8.02,3.2-12.023A3.75,3.75,0,0,1,76.331.117,12.684,12.684,0,0,1,77.753.5a3.77,3.77,0,0,1,2.476,4.568c-.116.475-.238.948-.373,1.48.251.119.49.231.727.345a5.747,5.747,0,0,1,3.164,6.68c-.616,2.433-1.283,4.853-1.935,7.277-.251.931-.834,1.337-1.581,1.13s-1.051-.833-.8-1.776c.624-2.375,1.276-4.742,1.892-7.119A3.239,3.239,0,0,0,79.226,9.03c-.088.282-.184.556-.259.835-.63,2.345-1.2,4.708-1.906,7.03a10.239,10.239,0,0,0-.178,3.144c.015,5.821.008,11.642.008,17.464q0,4.837,0,9.675a2.751,2.751,0,0,1-.072.81,1.138,1.138,0,0,1-1.306.87A1.12,1.12,0,0,1,74.444,47.8a6.117,6.117,0,0,1-.019-.819q0-9.306,0-18.611V27.6l-.163-.027q-.511,1.917-1.022,3.835c-.466,1.739-.938,3.477-1.4,5.218-.734,2.775-1.566,3.484-4.458,3.732-.252.921-.508,1.864-.769,2.806-.289,1.045-.87,1.472-1.664,1.229-.7-.214-.958-.875-.715-1.825.074-.291.127-.589.224-.872.4-1.17.68-2.17-.629-3.148-1.034-.772-1.093-2.133-.754-3.41q2.113-7.95,4.218-15.9c.076-.285.147-.572.246-.961H4.436c-1.636,0-1.971.334-1.971,1.958q0,17.668,0,35.337c0,1.548.386,1.934,1.936,1.935H30.141c.246,0,.492-.01.738.006a1.219,1.219,0,0,1,.142,2.429,4.934,4.934,0,0,1-.9.031c-8.388,0-16.777-.045-25.165.03C2.6,60.02.863,59.342,0,57.031V18.819m73.174,3.189c1.583-5.94,3.138-11.758,4.676-17.579A1.224,1.224,0,0,0,77.068,2.9a5.692,5.692,0,0,0-1.1-.313c-1.242-.271-1.694.01-2.018,1.226q-1.539,5.768-3.076,11.537c-.5,1.863-.98,3.728-1.485,5.651l3.784,1m-.63,2.381-3.8-1c-.647,2.445-1.262,4.772-1.888,7.138l3.787,1,1.9-7.142m-6.329,8.527c-.279,1.055-.568,2.019-.782,3a1.291,1.291,0,0,0,.974,1.572c1.417.517,2.254.428,2.678-.289a1.218,1.218,0,0,0,.123-.3c.261-.966.519-1.934.794-2.964l-3.787-1.019" transform="translate(-0.001 0)" fill="#3d8fa0"/>
    <path id="Path_315" data-name="Path 315" d="M39.754,65.345q-10.409,0-20.818,0c-2.334,0-3.542-1.195-3.555-3.516-.006-1.038-.021-2.077.006-3.115A3.07,3.07,0,0,1,18.6,55.523q21.187-.014,42.374,0a3.066,3.066,0,0,1,3.22,3.186q.043,1.721,0,3.443a3.081,3.081,0,0,1-3.3,3.191q-10.573.01-21.146,0m-.048-2.467q10.444,0,20.889,0c1.018,0,1.131-.115,1.138-1.129.005-.792,0-1.584,0-2.376,0-1.345-.043-1.388-1.375-1.388H19.236c-.164,0-.328.006-.491,0-.618-.024-.9.27-.895.888.01.9,0,1.8,0,2.7,0,1.237.067,1.3,1.293,1.3H39.706" transform="translate(-9.705 -35.053)" fill="#3d8fa0"/>
    <path id="Path_316" data-name="Path 316" d="M94.37,127.541c1.352-1.539,2.592-2.947,3.83-4.358,1.036-1.181,1.573-1.13,2.637,0a29.505,29.505,0,0,0,3.277,3.066c1.214.949,1.865.86,3.1-.063.721-.54,1.4-1.14,2.136-1.655a3.43,3.43,0,0,1,4.819.311,3.5,3.5,0,0,0,4.4.7,1.208,1.208,0,0,1,1.757.471,1.256,1.256,0,0,1-.642,1.716,5.772,5.772,0,0,1-6.838-.774c-1.116-1-1.3-1.007-2.5-.105-.718.543-1.406,1.13-2.142,1.648a4,4,0,0,1-4.693.243c-1.421-.891-2.7-2-4.15-3.093-.084.09-.3.319-.508.549-1.2,1.307-2.361,2.655-3.615,3.909-1.318,1.318-2.356,1.022-2.924-.771-.311-.984-.558-1.989-.889-3.182-.464,1.25-.862,2.324-1.261,3.4-.1.255-.181.516-.295.763a1.223,1.223,0,0,1-1.52.762,1.2,1.2,0,0,1-.777-1.585c.993-2.773,2-5.542,3.089-8.278a1.68,1.68,0,0,1,1.216-.707c.611-.073.957.419,1.09,1.012q.567,2.515,1.136,5.03c.06.265.141.525.266.984" transform="translate(-55.243 -76.088)" fill="#3d8fa0"/>
    <path id="Path_317" data-name="Path 317" d="M115.32,149.109q-8.93,0-17.86,0a3.386,3.386,0,0,1-.971-.088,1.209,1.209,0,0,1,.232-2.36,8.726,8.726,0,0,1,.9-.015h35.146c1.665,0,2.033-.365,2.035-2.008,0-.738-.017-1.476.008-2.212a1.182,1.182,0,0,1,1.149-1.243,1.2,1.2,0,0,1,1.289,1.2,25.1,25.1,0,0,1-.029,3.356,3.751,3.751,0,0,1-3.96,3.374c-4.833.015-9.667.005-14.5.005H115.32" transform="translate(-60.379 -89.138)" fill="#3d8fa0"/>
    <path id="Path_318" data-name="Path 318" d="M33.309,92.862q-7.986,0-15.971,0a5.436,5.436,0,0,1-.9-.041,1.093,1.093,0,0,1-.985-1.126,1.11,1.11,0,0,1,.952-1.237,4.367,4.367,0,0,1,.9-.052q16.012,0,32.024,0c1.254,0,1.855.394,1.869,1.215s-.6,1.244-1.834,1.244q-8.026,0-16.053,0" transform="translate(-9.758 -57.08)" fill="#3d8fa0"/>
    <path id="Path_319" data-name="Path 319" d="M33.411,107.886q-8.068,0-16.136-.006a1.894,1.894,0,0,1-1.1-.175,1.594,1.594,0,0,1-.594-1.122,1.7,1.7,0,0,1,.748-1.027,1.936,1.936,0,0,1,1.031-.135q16.014-.009,32.027,0c.137,0,.273,0,.41,0,.92.035,1.506.55,1.477,1.292-.029.725-.571,1.173-1.484,1.174q-8.191.009-16.382,0" transform="translate(-9.84 -66.558)" fill="#3d8fa0"/>
  </g>
</svg>
