<svg xmlns="http://www.w3.org/2000/svg" width="60" height="60" viewBox="0 0 60 60">
  <g id="Foto_Depósito" data-name="Foto Depósito" transform="translate(-181 -76)">
    <rect id="Rectangle_5" data-name="Rectangle 5" width="60" height="60" transform="translate(181 76)" fill="rgba(255,255,255,0)"/>
    <g id="Rectangle_1" data-name="Rectangle 1" transform="translate(182 89)" fill="none" stroke="#3d8fa0" stroke-width="2">
      <rect width="59" height="33" rx="5" stroke="none"/>
      <rect x="1" y="1" width="57" height="31" rx="4" fill="none"/>
    </g>
    <path id="Path_1" data-name="Path 1" d="M685.082,422.858v-3.14h2.647" transform="translate(-497.417 -325.978)" fill="none" stroke="#3d8fa0" stroke-linecap="round" stroke-linejoin="round" stroke-width="1"/>
    <path id="Path_4" data-name="Path 4" d="M685.082,419.719v3.14h2.647" transform="translate(-497.417 -305.685)" fill="none" stroke="#3d8fa0" stroke-linecap="round" stroke-linejoin="round" stroke-width="1"/>
    <path id="Path_2" data-name="Path 2" d="M687.729,422.858v-3.14h-2.647" transform="translate(-454.611 -325.978)" fill="none" stroke="#3d8fa0" stroke-linecap="round" stroke-linejoin="round" stroke-width="1"/>
    <path id="Path_3" data-name="Path 3" d="M687.729,419.719v3.14h-2.647" transform="translate(-454.611 -305.685)" fill="none" stroke="#3d8fa0" stroke-linecap="round" stroke-linejoin="round" stroke-width="1"/>
    <g id="Check">
      <rect id="Rectangle_3" data-name="Rectangle 3" width="41" height="18" rx="1" transform="translate(190 97)" fill="#3d8fa0"/>
      <path id="Icon_metro-dollar2" data-name="Icon metro-dollar2" d="M14.2,7.587a1.729,1.729,0,0,1-.452,1.2,1.951,1.951,0,0,1-1.174.62v.8a.14.14,0,0,1-.145.145h-.613a.147.147,0,0,1-.145-.145V9.4a2.864,2.864,0,0,1-.579-.141,2.79,2.79,0,0,1-.8-.42,2.59,2.59,0,0,1-.211-.17q-.057-.055-.08-.082a.138.138,0,0,1-.009-.186l.468-.613a.141.141,0,0,1,.1-.055.113.113,0,0,1,.109.041l.009.009a2.373,2.373,0,0,0,1.1.568,1.587,1.587,0,0,0,.336.036,1.1,1.1,0,0,0,.647-.2.636.636,0,0,0,.279-.554.461.461,0,0,0-.068-.241.851.851,0,0,0-.152-.191,1.247,1.247,0,0,0-.266-.17q-.182-.093-.3-.145T11.9,6.747l-.279-.114q-.1-.041-.279-.12t-.284-.141q-.107-.061-.257-.161a1.6,1.6,0,0,1-.243-.193,2.831,2.831,0,0,1-.2-.223,1.112,1.112,0,0,1-.161-.264,1.822,1.822,0,0,1-.1-.3,1.577,1.577,0,0,1-.039-.354,1.554,1.554,0,0,1,.445-1.1,2.079,2.079,0,0,1,1.159-.609V2.349a.147.147,0,0,1,.145-.145h.613a.14.14,0,0,1,.145.145v.8a2.527,2.527,0,0,1,.5.1,2.911,2.911,0,0,1,.4.152,2.189,2.189,0,0,1,.289.17q.136.1.177.132T14,3.771a.131.131,0,0,1,.023.173l-.368.663a.124.124,0,0,1-.1.073.145.145,0,0,1-.123-.032q-.014-.014-.066-.055t-.177-.12a2.345,2.345,0,0,0-.266-.145,2.029,2.029,0,0,0-.338-.118,1.516,1.516,0,0,0-.388-.052,1.181,1.181,0,0,0-.7.2.611.611,0,0,0-.234.722.511.511,0,0,0,.134.189,2,2,0,0,0,.179.15,1.6,1.6,0,0,0,.254.141q.17.08.275.123t.318.125q.241.091.368.143t.345.159a2.745,2.745,0,0,1,.343.193,2.9,2.9,0,0,1,.282.227,1.176,1.176,0,0,1,.241.289,1.647,1.647,0,0,1,.143.348,1.5,1.5,0,0,1,.059.427Z" transform="translate(184.788 97.254)" fill="#fff"/>
      <line id="Line_2" data-name="Line 2" x2="21.728" transform="translate(194.141 110.156)" fill="none" stroke="#fff" stroke-linecap="round" stroke-width="1"/>
      <line id="Line_3" data-name="Line 3" x2="21.728" transform="translate(194.141 112.194)" fill="none" stroke="#fff" stroke-linecap="round" stroke-width="1"/>
      <line id="Line_4" data-name="Line 4" x2="7.771" transform="translate(219.621 112.194)" fill="none" stroke="#fff" stroke-linecap="round" stroke-width="1"/>
      <g id="Rectangle_4" data-name="Rectangle 4" transform="translate(203 100)" fill="none" stroke="#fff" stroke-width="1">
        <rect width="24" height="5" rx="1" stroke="none"/>
        <rect x="0.5" y="0.5" width="23" height="4" rx="0.5" fill="none"/>
      </g>
      <path id="Path_5" data-name="Path 5" d="M1091.931,495.369c2.385.053,2.975-.4,3.082-1.014s-.683-1.042-1.438-.616,0,1.806,1.618,1.63,1.46-1.072,2.014-1.154.481.546.2.825,2.026-.685,2.026-.685" transform="translate(-872.041 -384.413)" fill="none" stroke="#fff" stroke-linecap="round" stroke-linejoin="round" stroke-width="0.75"/>
    </g>
    <rect id="Rectangle_6" data-name="Rectangle 6" width="8" height="2.174" rx="1.087" transform="translate(237.5 101) rotate(90)" fill="#3d8fa0"/>
  </g>
</svg>
