<svg id="Group_1089" data-name="Group 1089" xmlns="http://www.w3.org/2000/svg" xmlns:xlink="http://www.w3.org/1999/xlink" width="59.993" height="60" viewBox="0 0 59.993 60">
  <defs>
    <clipPath id="clip-path">
      <rect id="Rectangle_1136" data-name="Rectangle 1136" width="59.993" height="60" fill="#3d8fa0"/>
    </clipPath>
  </defs>
  <g id="Group_1088" data-name="Group 1088" clip-path="url(#clip-path)">
    <path id="Path_357" data-name="Path 357" d="M23.223,15.485V14.223q0-4.566,0-9.132A4.839,4.839,0,0,1,28.312,0q13.3,0,26.605,0a4.838,4.838,0,0,1,5.073,5.1q.006,5.5,0,11.007a4.854,4.854,0,0,1-3.622,5.026c-.073.025-.145.052-.248.09v35.44c0,2.212-1.13,3.332-3.358,3.332H3.362C1.128,60,0,58.883,0,56.671V18.814c0-2.214,1.126-3.329,3.36-3.329H23.223Zm30.963,9.726a1.763,1.763,0,0,0-.242-.045c-4.372,0-8.746-.006-13.118.011a.747.747,0,0,0-.526.339,2.949,2.949,0,0,1-1.78,1.449,2.851,2.851,0,0,1-3.248-1.142,1.564,1.564,0,0,0-1.41-.678q-15.6.035-31.194.017H1.936V56.618c0,1.187.261,1.446,1.457,1.446H52.723c1.2,0,1.462-.258,1.462-1.441q0-15.387,0-30.774ZM38.7,19.356h.787q7.767,0,15.536,0a2.89,2.89,0,0,0,3.026-2.994q.015-5.714,0-11.427A2.877,2.877,0,0,0,55.089,1.94q-13.481-.011-26.961,0A2.879,2.879,0,0,0,25.161,4.93q-.013,5.713,0,11.427a2.894,2.894,0,0,0,3.022,3c1.229.008,2.459.019,3.687-.009a.978.978,0,0,1,.863.413c1.276,1.559,2.572,3.1,3.86,4.651.366.441.724.921,1.4.694.7-.233.722-.821.715-1.436-.015-1.408,0-2.817,0-4.313M33.065,23.2c-.532-.639-.989-1.217-1.486-1.758a.835.835,0,0,0-.547-.141c-1.008-.013-2.015.006-3.022-.01a4.83,4.83,0,0,1-4.55-3.356c-.055-.166-.107-.333-.155-.484a2.293,2.293,0,0,0-.229-.025q-10,0-20.007,0c-.781,0-1.127.363-1.133,1.16-.007,1.129,0,2.257,0,3.386V23.2Zm21.106-1.855H40.68v1.841H54.171Z" fill="#3d8fa0"/>
    <path id="Path_358" data-name="Path 358" d="M56.747,43.73V45.6a2.809,2.809,0,0,1,2.779,2.343,9.751,9.751,0,0,1,0,3.121,2.8,2.8,0,0,1-2.779,2.34v1.835a8.318,8.318,0,0,1,1.084.307,2.793,2.793,0,0,1,1.787,2.577c.037.7.025,1.411,0,2.116a2.866,2.866,0,0,1-2.84,2.806q-7.8.028-15.6,0a2.87,2.87,0,0,1-2.841-2.867c-.013-.524,0-1.048,0-1.572a2.982,2.982,0,0,1,2.874-3.327V53.407a2.818,2.818,0,0,1-2.774-2.345,9.821,9.821,0,0,1,0-3.121A2.818,2.818,0,0,1,41.22,45.6v-1.85c-.267-.058-.539-.1-.8-.177a2.889,2.889,0,0,1-2.072-2.684c-.02-.7-.022-1.411,0-2.116a2.863,2.863,0,0,1,2.838-2.807q7.8-.027,15.6,0a2.87,2.87,0,0,1,2.844,2.865c.013.524,0,1.048,0,1.572a2.99,2.99,0,0,1-2.88,3.33M48.984,41.76c2.519,0,5.039,0,7.559,0,.788,0,1.136-.359,1.147-1.148q.012-.786,0-1.572c-.011-.79-.359-1.141-1.149-1.146-1.25-.008-2.5,0-3.749,0q-5.654,0-11.308,0c-.867,0-1.2.341-1.208,1.209,0,.463,0,.927,0,1.39,0,.947.323,1.269,1.271,1.269q3.718,0,7.438,0m.024,5.807q-3.779,0-7.558,0c-.828,0-1.165.35-1.174,1.182-.006.463,0,.928,0,1.391,0,.984.314,1.294,1.306,1.3q4.988,0,9.977,0c1.653,0,3.3,0,4.958,0,.826,0,1.165-.351,1.175-1.183.006-.484,0-.967,0-1.451-.006-.9-.334-1.233-1.245-1.234q-3.718,0-7.438,0m-.025,9.678c-2.519,0-5.039,0-7.559,0-.79,0-1.136.357-1.147,1.147-.007.5-.006,1.008,0,1.512.007.867.342,1.206,1.209,1.209,1.391.006,2.782,0,4.172,0q5.412,0,10.824,0c.866,0,1.2-.342,1.21-1.209,0-.463,0-.927,0-1.39,0-.947-.323-1.268-1.271-1.269q-3.718,0-7.438,0m5.778-13.507H43.227V45.6H54.761Zm.013,9.686H43.219v1.841H54.774Z" transform="translate(-7.377 -6.921)" fill="#3d8fa0"/>
    <path id="Path_359" data-name="Path 359" d="M17.856,33.559A10.645,10.645,0,1,1,7.191,44.2,10.659,10.659,0,0,1,17.856,33.559m8.638,11.669a2.085,2.085,0,0,0-.278-.052c-2.556,0-5.112-.011-7.668.011a1.08,1.08,0,0,0-.648.338c-1.705,1.682-3.4,3.379-5.088,5.073-.124.124-.233.262-.349.393a8.523,8.523,0,0,0,8.719,1.237,8.713,8.713,0,0,0,5.312-7M23.177,37.4c-3.079-2.68-8.124-2.385-10.571-.058l5.32,5.314L23.177,37.4M10.99,49.485l5.256-5.249-5.3-5.3a8.444,8.444,0,0,0,.043,10.549m13.722-10.6L20.4,43.205h6.065a8.379,8.379,0,0,0-1.751-4.318" transform="translate(-1.384 -6.461)" fill="#3d8fa0"/>
    <rect id="Rectangle_1129" data-name="Rectangle 1129" width="21.232" height="1.86" transform="translate(7.768 50.355)" fill="#3d8fa0"/>
    <rect id="Rectangle_1130" data-name="Rectangle 1130" width="17.34" height="1.861" transform="translate(11.638 54.226)" fill="#3d8fa0"/>
    <rect id="Rectangle_1131" data-name="Rectangle 1131" width="5.729" height="1.861" transform="translate(3.92 54.236)" fill="#3d8fa0"/>
    <rect id="Rectangle_1132" data-name="Rectangle 1132" width="1.856" height="1.882" transform="translate(3.915 50.347)" fill="#3d8fa0"/>
    <path id="Path_360" data-name="Path 360" d="M67.191,7.233v9.6H65.3V11.606l-.134-.031q-.568,1.674-1.138,3.349H60.7l-1.131-3.348-.1.017v5.246H57.557v-9.6h2.615c.582,1.746,1.17,3.518,1.767,5.288.055.161.13.387.256.44.336.143.48-.066.585-.388.579-1.78,1.18-3.551,1.782-5.352Z" transform="translate(-11.081 -1.393)" fill="#3d8fa0"/>
    <path id="Path_361" data-name="Path 361" d="M45.588,7.2c1.694,0,3.345-.041,4.993.015A2.683,2.683,0,0,1,53,8.862a2.829,2.829,0,0,1-.408,3.112c.818,1.7.826,1.764.672,4.844H51.351c0-.839,0-1.7,0-2.555,0-.944-.324-1.263-1.273-1.265-.841,0-1.684,0-2.57,0v3.821H45.588ZM47.5,11.058c1.007,0,1.948.017,2.889-.006a.946.946,0,0,0,.953-.9.925.925,0,0,0-.841-1c-.994-.04-1.99-.012-3-.012Z" transform="translate(-8.777 -1.383)" fill="#3d8fa0"/>
    <path id="Path_362" data-name="Path 362" d="M41.266,13.032a3.85,3.85,0,0,1-7.69.266,13.749,13.749,0,0,1,.126-3.185,3.786,3.786,0,0,1,4.159-2.9,3.853,3.853,0,0,1,3.405,3.809H39.4c-.046-.174-.086-.365-.148-.55a1.923,1.923,0,0,0-3.753.439,22.172,22.172,0,0,0,0,2.234,1.923,1.923,0,0,0,3.752.448c.057-.171.091-.35.145-.56Z" transform="translate(-6.458 -1.383)" fill="#3d8fa0"/>
    <rect id="Rectangle_1133" data-name="Rectangle 1133" width="1.868" height="1.857" transform="translate(3.91 19.39)" fill="#3d8fa0"/>
    <rect id="Rectangle_1134" data-name="Rectangle 1134" width="1.857" height="1.868" transform="translate(7.774 19.384)" fill="#3d8fa0"/>
    <rect id="Rectangle_1135" data-name="Rectangle 1135" width="1.856" height="1.868" transform="translate(11.656 19.395)" fill="#3d8fa0"/>
  </g>
</svg>
