<svg id="Group_843" data-name="Group 843" xmlns="http://www.w3.org/2000/svg" xmlns:xlink="http://www.w3.org/1999/xlink" width="48.427" height="50" viewBox="0 0 48.427 50">
  <defs>
    <clipPath id="clip-path">
      <rect id="Rectangle_1067" data-name="Rectangle 1067" width="48.427" height="50" fill="#3d8fa0"/>
    </clipPath>
  </defs>
  <g id="Group_837" data-name="Group 837" clip-path="url(#clip-path)">
    <path id="Path_271" data-name="Path 271" d="M25.281,0c.709.159,1.433.269,2.124.485A10.832,10.832,0,0,1,34.23,6.47c.13.276.236.418.595.395a9.509,9.509,0,0,1,9.986,11.681.512.512,0,0,0,.258.627,7.886,7.886,0,0,1-4.476,14.337c-.5.006-1,0-1.553,0,0,.96,0,1.867,0,2.773a2.135,2.135,0,0,1-2.222,2.493.5.5,0,0,0-.317.269c-.3.682-.593,1.37-.859,2.067a.533.533,0,0,0,.062.449,2.1,2.1,0,0,1-.118,3.191c-.63.635-1.26,1.271-1.9,1.9a2.044,2.044,0,0,1-3.038.041.412.412,0,0,0-.542-.086c-.649.3-1.306.578-1.976.824a.415.415,0,0,0-.327.446A2.071,2.071,0,0,1,25.569,50c-.927,0-1.855.005-2.782,0a2.058,2.058,0,0,1-2.175-2.077.473.473,0,0,0-.382-.51c-.746-.27-1.478-.581-2.254-.892-.044.038-.129.11-.212.185a2.066,2.066,0,0,1-3.045-.054q-.992-.975-1.966-1.968a2.047,2.047,0,0,1-.063-3.071.418.418,0,0,0,.073-.548c-.293-.65-.575-1.308-.821-1.977a.413.413,0,0,0-.447-.324,2.07,2.07,0,0,1-2.12-2.234c-.005-.988,0-1.975,0-3.014-.506,0-.958,0-1.409,0A7.852,7.852,0,0,1,.007,25.278a7.567,7.567,0,0,1,3.339-6.1.514.514,0,0,0,.257-.627A9.513,9.513,0,0,1,13.588,6.862a.5.5,0,0,0,.577-.348,10.871,10.871,0,0,1,8.7-6.429A1.745,1.745,0,0,0,23.133,0Zm5.212,33.509c-.658,0-1.291.014-1.924,0a.934.934,0,0,1-.945-.87.961.961,0,0,1,.817-1.046,3.3,3.3,0,0,1,.583-.029q5.639,0,11.278,0a7,7,0,0,0,1.071-.05,5.942,5.942,0,0,0,1.934-11.135c-.729-.4-.8-.723-.624-1.516A10.844,10.844,0,0,0,43.1,16.08a7.552,7.552,0,0,0-8.953-7.171c-.76.131-1.095-.07-1.36-.817A9.066,9.066,0,0,0,15.622,8.1a1.026,1.026,0,0,1-1.368.806,7.593,7.593,0,0,0-8.589,9.827c.311.962.207,1.2-.654,1.694a5.718,5.718,0,0,0-3.052,4.911,5.9,5.9,0,0,0,5.969,6.218c3.824.011,7.649,0,11.473,0a3.4,3.4,0,0,1,.535.022.966.966,0,0,1,.854,1.017.943.943,0,0,1-.962.907,12.7,12.7,0,0,1-1.464,0c-.4-.033-.531.131-.594.5a6.525,6.525,0,1,0,12.724-.491M25.77,48.044c.046-.094.071-.122.072-.151.008-.341.01-.682.018-1.023a.967.967,0,0,1,.82-1.053A11.657,11.657,0,0,0,30,44.445a.933.933,0,0,1,1.319.173c.263.262.48.57.706.843l2.415-2.441c-.237-.22-.508-.452-.757-.705a.979.979,0,0,1-.175-1.4,11.7,11.7,0,0,0,1.351-3.275.97.97,0,0,1,1.05-.823,5.407,5.407,0,0,1,.683,0c.373.039.521-.077.5-.481-.031-.8-.007-1.594-.011-2.391,0-.138-.023-.276-.034-.4H32.579a8.552,8.552,0,0,1-7.742,10.081,8.114,8.114,0,0,1-5.985-1.9,8.467,8.467,0,0,1-3.01-8.188H11.364v3.206a.5.5,0,0,0,.125.052c.325.006.65.007.975.012a.979.979,0,0,1,1.092.832,11.531,11.531,0,0,0,1.353,3.273.972.972,0,0,1-.187,1.4c-.253.249-.549.455-.808.666L16.4,45.453c.235-.28.468-.6.74-.873a.93.93,0,0,1,1.243-.158,11.8,11.8,0,0,0,3.407,1.409.94.94,0,0,1,.767.994c.009.309-.021.621.017.926a.406.406,0,0,0,.274.279c.975.021,1.95.013,2.927.013" transform="translate(0)" fill="#3d8fa0"/>
    <path id="Path_272" data-name="Path 272" d="M106.882,153.417a.971.971,0,0,1-.991-1.364c.563-1.522,1.149-3.035,1.726-4.551q.917-2.411,1.835-4.823c.272-.711.635-1.005,1.219-1s.93.3,1.2,1.021q1.748,4.621,3.491,9.244c.315.838-.139,1.537-.939,1.472a.927.927,0,0,1-.831-.651c-.181-.469-.339-.949-.554-1.4a.619.619,0,0,0-.438-.314c-1.3-.025-2.6-.005-3.9-.021a.436.436,0,0,0-.48.36c-.165.475-.353.942-.541,1.408a.9.9,0,0,1-.8.624m2.266-4.37h3.037L110.657,145c-.512,1.344-.979,2.57-1.444,3.8-.027.072-.04.149-.066.247" transform="translate(-95.46 -127.816)" fill="#3d8fa0"/>
    <path id="Path_273" data-name="Path 273" d="M237.351,149.065c0,1.134,0,2.172,0,3.209a.977.977,0,0,1-.8,1.066.958.958,0,0,1-1.149-1c-.014-1.057,0-2.115,0-3.173q0-3.173,0-6.346c0-.864.346-1.205,1.217-1.207s1.725-.012,2.587.005a3.726,3.726,0,0,1,.279,7.439c-.689.06-1.388.01-2.131.01m.023-1.967a19.033,19.033,0,0,0,2.079-.015,1.758,1.758,0,0,0,1.5-1.726,1.8,1.8,0,0,0-1.533-1.759,19.93,19.93,0,0,0-2.048-.014Z" transform="translate(-212.364 -127.75)" fill="#3d8fa0"/>
    <path id="Path_274" data-name="Path 274" d="M342.894,147.486q0-2.219,0-4.438a4.156,4.156,0,0,1,.019-.535.958.958,0,0,1,1.872-.122,2.373,2.373,0,0,1,.058.579q.005,4.511,0,9.023c0,.081,0,.163,0,.244a.979.979,0,0,1-1.013,1.018.949.949,0,0,1-.931-1.037c-.011-1.577,0-3.154,0-4.731Z" transform="translate(-309.344 -127.825)" fill="#3d8fa0"/>
    <path id="Path_275" data-name="Path 275" d="M238.442,324.589a.959.959,0,0,1-1-.964.974.974,0,1,1,1.949,0,.957.957,0,0,1-.952.96" transform="translate(-214.213 -291.081)" fill="#3d8fa0"/>
  </g>
</svg>
