<svg xmlns="http://www.w3.org/2000/svg" xmlns:xlink="http://www.w3.org/1999/xlink" width="55.793" height="60" viewBox="0 0 55.793 60">
  <defs>
    <clipPath id="clip-path">
      <rect id="Rectangle_1124" data-name="Rectangle 1124" width="55.793" height="60" fill="#3d8fa0"/>
    </clipPath>
  </defs>
  <g id="Group_1078" data-name="Group 1078" clip-path="url(#clip-path)">
    <path id="Path_320" data-name="Path 320" d="M27.707,47.811h-.73c-4.974,0-9.948-.058-14.921.025a4.415,4.415,0,0,1-4.593-4.592c.063-5.036.018-10.073.018-15.109v-.824H3.27a3.007,3.007,0,0,1-2.1-5.368c2.022-1.9,4.037-3.808,6.082-5.684a1.476,1.476,0,0,0,.518-1.225c-.022-2.693-.013-5.386-.009-8.079a2.294,2.294,0,0,1,2.584-2.576h3.761c1.916,0,2.7.725,2.833,2.738.207-.177.369-.306.52-.448C19.333,4.912,21.2,3.147,23.082,1.4a4.284,4.284,0,0,1,6.363.036q10.9,10.231,21.819,20.452a3.1,3.1,0,0,1,1.1,3.194A2.89,2.89,0,0,1,49.529,27.3c-1.476.021-2.952,0-4.466,0-.021.2-.051.359-.051.515,0,1.3.011,2.59-.01,3.885a.582.582,0,0,0,.5.676A13.8,13.8,0,0,1,55.551,43.521a14.069,14.069,0,1,1-27.7,4.947c-.039-.2-.089-.4-.147-.657m-8.815-2.242V44.8c0-3.7-.01-7.4,0-11.1a4.028,4.028,0,0,1,3.949-4.138q3.389-.081,6.782,0a4.023,4.023,0,0,1,3.951,4.067c0,.229,0,.457,0,.8a14.413,14.413,0,0,1,9.172-2.553V26.661a1.915,1.915,0,0,1,1.578-1.576c1.6,0,3.206-.006,4.809,0,.43,0,.842-.016,1.029-.488s-.127-.769-.438-1.052c-.061-.055-.12-.112-.18-.169L27.826,3a2.058,2.058,0,0,0-3.2.023L17.617,9.6c-1.073,1.008-1.063.992-2.435.421a.734.734,0,0,1-.527-.827c.032-.832.009-1.666.009-2.52H10.008V7.4c0,2.775-.01,5.55,0,8.326a2.237,2.237,0,0,1-.766,1.735q-3.3,3.064-6.574,6.151c-.281.262-.527.531-.359.961s.536.507.955.5c1.5-.008,3,.025,4.5-.017a1.746,1.746,0,0,1,1.449.592,1.569,1.569,0,0,1,.537,1.289c-.05.592-.011,1.192-.011,1.788,0,4.769.046,9.539-.024,14.308a2.228,2.228,0,0,0,2.525,2.551c1.969-.085,3.945-.02,5.918-.02Zm22.791,12.2A11.84,11.84,0,1,0,29.865,45.9,11.84,11.84,0,0,0,41.68,57.769M27.615,45.545a12.737,12.737,0,0,1,2.543-7.584,5.456,5.456,0,0,0,1.206-3.993c-.087-1.482-.711-2.169-2.217-2.171h-5.8c-1.536,0-2.218.683-2.218,2.22V45.546Z" fill="#3d8fa0"/>
    <path id="Path_321" data-name="Path 321" d="M123.034,135.223V136.6h-2.219v-1.678l-2.356-.372c.1-.734.2-1.436.315-2.209,1.294.189,2.547.369,3.8.556a1.682,1.682,0,0,0,2.02-1.093,1.607,1.607,0,0,0-1.3-2.07c-.99-.179-1.987-.319-2.979-.482a3.857,3.857,0,0,1,.224-7.677c.061-.006.12-.023.238-.046v-1.371h2.241v1.665l2.373.38-.325,2.2c-1.288-.186-2.524-.357-3.758-.545a1.67,1.67,0,0,0-2.089,1.228,1.625,1.625,0,0,0,1.541,1.958c.93.162,1.864.3,2.8.453a3.859,3.859,0,0,1-.216,7.673c-.078.008-.155.027-.305.054" transform="matrix(0.998, 0.07, -0.07, 0.998, -86.972, -118.632)" fill="#3d8fa0"/>
    <g id="_24_7" data-name="24/7" transform="translate(-651 -469)">
      <text id="_24" data-name="24" transform="translate(683 515)" fill="#3d8fa0" font-size="12" font-family="GothamRounded-Bold, Gotham Rounded" font-weight="700" letter-spacing="-0.114em"><tspan x="0" y="0">24</tspan></text>
      <text id="_7" data-name="7" transform="translate(695 524)" fill="#3d8fa0" font-size="11" font-family="GothamRounded-Bold, Gotham Rounded" font-weight="700"><tspan x="0" y="0">7</tspan></text>
      <line id="Line_1" data-name="Line 1" x1="7" y2="6" transform="translate(691.5 513.5)" fill="none" stroke="#3d8fa0" stroke-linecap="round" stroke-width="1"/>
    </g>
  </g>
</svg>
