<svg xmlns="http://www.w3.org/2000/svg" width="50.279" height="58.347" viewBox="0 0 50.279 58.347">
  <g id="Group_517" data-name="Group 517" transform="translate(-1358.483 -2439)">
    <g id="Group_499" data-name="Group 499">
      <g id="Group_498" data-name="Group 498">
        <path id="Path_142" data-name="Path 142" d="M1404.993,2471.175a3.235,3.235,0,0,1-.414.7c-1.163,1.192-2.35,2.361-3.525,3.541a1.043,1.043,0,0,1-1.3.213c-.681-.318-1.379-.6-2.057-.926a.933.933,0,0,0-.881.007c-1.117.5-2.263.939-3.385,1.428a1.052,1.052,0,0,0-.519.473c-.319.724-.586,1.471-.865,2.212a1.083,1.083,0,0,1-1.132.772q-2.439-.021-4.877,0a1.065,1.065,0,0,1-1.129-.768c-.27-.744-.546-1.487-.865-2.211a1.062,1.062,0,0,0-.521-.476q-1.71-.747-3.448-1.432a1.058,1.058,0,0,0-.7-.029c-.755.294-1.492.636-2.231.971a1.013,1.013,0,0,1-1.245-.231q-1.785-1.791-3.574-3.576a.986.986,0,0,1-.214-1.2c.325-.722.67-1.437.951-2.176a1.222,1.222,0,0,0-.015-.8c-.443-1.142-.917-2.273-1.411-3.394a1.151,1.151,0,0,0-.512-.56c-.721-.322-1.468-.59-2.21-.864a1.044,1.044,0,0,1-.741-1.089q.008-2.469,0-4.937a1.053,1.053,0,0,1,.748-1.087,6.953,6.953,0,0,0,2.435-1.021,7.1,7.1,0,0,0,1.03-2.407,2.822,2.822,0,0,1,.355-.749,1.731,1.731,0,0,0,.033-2.164c-.262-.463-.441-.973-.663-1.459a.981.981,0,0,1,.215-1.2q1.785-1.789,3.573-3.577a1.016,1.016,0,0,1,1.247-.223c.7.321,1.4.66,2.121.927a1.335,1.335,0,0,0,.867-.02c1.126-.43,2.238-.9,3.34-1.384a1.238,1.238,0,0,0,.593-.553c.32-.7.581-1.43.846-2.154a1.032,1.032,0,0,1,1.074-.757q2.5.015,5,0a1.015,1.015,0,0,1,1.045.714c.29.758.563,1.523.888,2.266a1.058,1.058,0,0,0,.517.478q1.711.746,3.449,1.429a1.054,1.054,0,0,0,.7.021c.719-.279,1.421-.6,2.12-.93a1.1,1.1,0,0,1,1.4.237q1.708,1.74,3.447,3.45a1.079,1.079,0,0,1,.254,1.345c-.322.7-.652,1.4-.927,2.122a1.149,1.149,0,0,0,.009.761c.449,1.16.926,2.309,1.423,3.45a1.06,1.06,0,0,0,.482.511c.7.312,1.43.58,2.155.846a1.1,1.1,0,0,1,.817,1.158q-.028,2.438,0,4.877a1.1,1.1,0,0,1-.818,1.158c-.724.265-1.449.535-2.153.848a1.053,1.053,0,0,0-.484.51c-.489,1.123-.959,2.255-1.4,3.4a1.247,1.247,0,0,0-.029.813c.262.7.6,1.379.9,2.069C1404.856,2470.71,1404.9,2470.9,1404.993,2471.175Zm-18.478-30.262c-.32.823-.583,1.638-.958,2.4a1.609,1.609,0,0,1-.853.79,20.4,20.4,0,0,0-4.322,1.792,1.547,1.547,0,0,1-1.108.062c-.711-.232-1.375-.607-2.076-.876a.689.689,0,0,0-.6.108c-.765.719-1.487,1.485-2.246,2.211a.493.493,0,0,0-.1.67c.3.644.572,1.3.879,1.948a1.354,1.354,0,0,1-.045,1.239q-.939,2.108-1.772,4.261a1.364,1.364,0,0,1-.846.907c-.651.234-1.287.512-1.941.737a.563.563,0,0,0-.456.637c.028,1.01.026,2.022,0,3.033a.522.522,0,0,0,.428.588c.672.235,1.326.522,1.995.766a1.324,1.324,0,0,1,.812.865q.849,2.176,1.795,4.315a1.323,1.323,0,0,1,.041,1.186c-.3.646-.573,1.306-.882,1.947a.525.525,0,0,0,.117.721c.748.708,1.452,1.463,2.206,2.166a.748.748,0,0,0,.642.121c.685-.258,1.349-.571,2.012-.881a1.32,1.32,0,0,1,1.185.058c1.408.619,2.828,1.213,4.262,1.766a1.38,1.38,0,0,1,.914.842c.243.67.521,1.327.758,2a.494.494,0,0,0,.544.405c1.05-.02,2.1.008,3.151-.024a.687.687,0,0,0,.5-.344c.306-.686.51-1.421.849-2.087a1.8,1.8,0,0,1,.83-.747c1.406-.623,2.847-1.166,4.252-1.789a1.4,1.4,0,0,1,1.292-.047c.622.3,1.269.557,1.9.853a.528.528,0,0,0,.721-.117c.708-.749,1.464-1.453,2.165-2.207a.756.756,0,0,0,.117-.647c-.246-.667-.546-1.315-.849-1.96a1.432,1.432,0,0,1,.071-1.3q.917-2.053,1.717-4.156a1.406,1.406,0,0,1,.874-.957c.654-.228,1.289-.508,1.942-.738a.529.529,0,0,0,.429-.594c-.024-1.03.011-2.062-.026-3.092a.752.752,0,0,0-.374-.539c-.645-.3-1.313-.552-1.985-.787a1.363,1.363,0,0,1-.848-.908c-.56-1.432-1.189-2.838-1.736-4.274a1.929,1.929,0,0,1-.056-1.17,14.769,14.769,0,0,1,.845-1.96.534.534,0,0,0-.11-.727c-.745-.712-1.45-1.466-2.2-2.169a.755.755,0,0,0-.645-.116c-.685.256-1.35.566-2.014.875a1.167,1.167,0,0,1-1.183-.068,14.887,14.887,0,0,0-4.26-1.767,1.2,1.2,0,0,1-.911-.84c-.239-.671-.494-1.337-.778-1.99-.07-.161-.274-.37-.422-.374C1388.942,2440.9,1387.734,2440.913,1386.515,2440.913Z" fill="#3d8fa0"/>
        <path id="Path_143" data-name="Path 143" d="M1365.081,2482.232c1.841-1.065,3.637-2.1,5.435-3.143a7.66,7.66,0,0,1,3.99-1.373,9.971,9.971,0,0,1,2.483.483c2.389.7,4.756,1.476,7.148,2.167a3.248,3.248,0,0,1,2.382,3.874c-.019.094-.021.191-.039.374.3-.16.542-.28.775-.416q3.723-2.166,7.442-4.335a8.555,8.555,0,0,1,3.941-1.373,3.183,3.183,0,0,1,3.432,2.254,3.39,3.39,0,0,1-1.535,4c-4.583,2.828-9.176,5.642-13.752,8.482a6.512,6.512,0,0,1-5.4.8c-2.957-.814-5.927-1.576-8.879-2.407a1.7,1.7,0,0,0-1.873.429c.157.284.334.586.493.9a2.1,2.1,0,0,1-.8,2.884c-.728.441-1.468.863-2.223,1.256a2.058,2.058,0,0,1-2.834-.8q-3.268-5.726-6.491-11.478a2.059,2.059,0,0,1,.828-2.869c.663-.4,1.338-.771,2.013-1.145a2.124,2.124,0,0,1,3.128.871C1364.837,2481.828,1364.94,2482,1365.081,2482.232Zm4.56,8.082a5.481,5.481,0,0,0,.7-.394,2.193,2.193,0,0,1,2.121-.287c3.221.9,6.456,1.747,9.689,2.6a4.072,4.072,0,0,0,3.268-.439q7.144-4.374,14.271-8.779a1.467,1.467,0,0,0,.567-1.68,1.261,1.261,0,0,0-1.243-.924,2.757,2.757,0,0,0-1.054.1,17.229,17.229,0,0,0-2.377,1.056c-2.532,1.436-5.038,2.918-7.553,4.384a5.15,5.15,0,0,1-3.579.826c-2.326-.452-4.624-1.055-6.926-1.626a.916.916,0,0,1-.647-1.17.966.966,0,0,1,1.172-.652c.155.033.3.085.458.126,1.511.4,3.017.823,4.534,1.2a1.279,1.279,0,0,0,1.634-.9,1.344,1.344,0,0,0-1.005-1.533c-2.535-.77-5.079-1.511-7.594-2.341a3.984,3.984,0,0,0-3.219.15c-1.2.615-2.363,1.289-3.533,1.953-1.1.624-2.189,1.268-3.312,1.921Zm-6.782-8.035c-.78.44-1.526.842-2.244,1.29-.094.059-.122.4-.047.529,2.061,3.676,4.142,7.342,6.209,11.015.184.327.364.342.661.161a17.77,17.77,0,0,1,1.6-.905c.471-.224.453-.456.218-.867q-3.047-5.334-6.061-10.688C1363.1,2482.646,1362.991,2482.487,1362.859,2482.279Z" fill="#3d8fa0"/>
        <path id="Path_144" data-name="Path 144" d="M1402.217,2459.341a13.752,13.752,0,1,1-13.656-13.792A13.739,13.739,0,0,1,1402.217,2459.341Zm-1.911,0a11.842,11.842,0,1,0-11.924,11.8A11.811,11.811,0,0,0,1400.306,2459.34Z" fill="#3d8fa0"/>
        <path id="Path_145" data-name="Path 145" d="M1363.353,2484.452a.916.916,0,0,1-.9.915.934.934,0,0,1-.922-.9.947.947,0,0,1,.909-.92A.932.932,0,0,1,1363.353,2484.452Z" fill="#3d8fa0"/>
        <path id="Path_146" data-name="Path 146" d="M1384.6,2453.489a5.422,5.422,0,0,0,1.358,8.664,1.573,1.573,0,0,1,1,1.67c-.049,1.425-.007,2.854-.017,4.281a1,1,0,0,1-.963,1.126.942.942,0,0,1-.937-1.013c-.014-1.268-.023-2.537,0-3.8a.852.852,0,0,0-.48-.843,7.37,7.37,0,0,1,.312-12.7,1.648,1.648,0,0,1,1.109-.126c.45.12.528.579.526,1.026-.008,1.725.009,3.449-.012,5.174a.928.928,0,0,0,.442.8,2.121,2.121,0,0,0,3.041.013.9.9,0,0,0,.443-.8c-.021-1.684-.012-3.37-.008-5.055,0-1.2.7-1.6,1.741-1a7.375,7.375,0,0,1,.332,12.58,1.088,1.088,0,0,0-.573,1.09c.031,1.188.026,2.378,0,3.567-.017.87-.811,1.387-1.436.921a1.3,1.3,0,0,1-.448-.891c-.044-1.6-.01-3.211-.025-4.817-.006-.626.373-.89.868-1.135a5.447,5.447,0,0,0,2.146-7.945,2.182,2.182,0,0,0-.7-.679v1.632c0,.892-.009,1.784,0,2.676a1.068,1.068,0,0,1-.582,1.022c-.894.509-1.788,1.02-2.674,1.545a1.1,1.1,0,0,1-1.227-.014c-.868-.516-1.744-1.018-2.624-1.513a1.171,1.171,0,0,1-.626-1.126c.009-1.209,0-2.418,0-3.627Z" fill="#3d8fa0"/>
      </g>
    </g>
  </g>
</svg>
