<svg id="Group_1081" data-name="Group 1081" xmlns="http://www.w3.org/2000/svg" xmlns:xlink="http://www.w3.org/1999/xlink" width="57.008" height="60" viewBox="0 0 57.008 60">
  <defs>
    <clipPath id="clip-path">
      <rect id="Rectangle_1125" data-name="Rectangle 1125" width="57.008" height="60" fill="#3d8fa0"/>
    </clipPath>
  </defs>
  <g id="Group_1080" data-name="Group 1080" clip-path="url(#clip-path)">
    <path id="Path_322" data-name="Path 322" d="M55.62,51.784c.969-.84,2.039-.55,3.055-.4.238.034.5.475.6.778.2.63.279,1.3.467,1.938.062.211.3.38.478.541.086.077.249.064.344.136,1.053.8,1.975.457,2.865-.3a4.928,4.928,0,0,1,.628-.408.983.983,0,0,1,1.311.133q1.161,1.137,2.3,2.3a1,1,0,0,1,.121,1.363c-.37.579-.761,1.146-1.1,1.744a1.028,1.028,0,0,0-.039.664c.052.237.259.445.3.682.155,1,.824,1.275,1.716,1.429,2.052.354,1.978.435,1.956,2.424-.007.646.006,1.291,0,1.937a1.043,1.043,0,0,1-.949,1.181l-.3.077a5.079,5.079,0,0,0-1.942.546c-.455.377-.58,1.165-.812,1.786a.733.733,0,0,0,.061.553c.348.591.734,1.161,1.108,1.736a1.026,1.026,0,0,1-.147,1.413c-.732.741-1.469,1.476-2.2,2.217a1.041,1.041,0,0,1-1.462.143c-.5-.333-1.015-.654-1.523-.979a2.694,2.694,0,0,0-.319-.2,4.038,4.038,0,0,0-2.4,1.166c-.143.629-.268,1.262-.416,1.889a1.064,1.064,0,0,1-1.222.981,7.051,7.051,0,0,1-1.123-.01,13.458,13.458,0,0,1-1.352-.342c0,1.029.03,2.2-.007,3.373a4.805,4.805,0,0,1-2.98,4.527,5.18,5.18,0,0,1-2.053.433q-10.969.046-21.938.013a4.967,4.967,0,0,1-5.017-5.055c-.015-4.562-.006-9.124,0-13.685,0-.788.375-1.245,1-1.246s1,.458,1,1.245q0,6.717,0,13.435a3.023,3.023,0,0,0,3.289,3.311q10.719,0,21.438,0a3.016,3.016,0,0,0,3.273-3.265q0-15.216,0-30.432v-.437c0-3.441.113-3.869,1.016-3.854.878.015.983.423.984,3.824v.7m.041,9.6v16.2l1.857-.468c.125-.568.289-1.234.413-1.907a1.274,1.274,0,0,1,.939-1.041c.838-.3,1.661-.651,2.467-1.03a1.243,1.243,0,0,1,1.347.058c.483.327.972.646,1.479.931a.6.6,0,0,0,.522.012c.386-.276.729-.611,1.091-.925-.452-.707-.8-1.293-1.193-1.855a1.27,1.27,0,0,1-.078-1.4c.382-.8.722-1.631,1.027-2.467a1.243,1.243,0,0,1,.99-.914c.691-.134,1.374-.306,2.068-.464V64.391c-.674-.148-1.321-.307-1.975-.428A1.347,1.347,0,0,1,65.5,62.935a16.845,16.845,0,0,0-.949-2.3,1.289,1.289,0,0,1,.044-1.507c.174-.232.317-.488.474-.734.677-1.058.668-1.048-.254-1.939-.237-.229-.408-.277-.688-.08-.475.337-.982.628-1.468.95a1.212,1.212,0,0,1-1.292.058c-.827-.384-1.668-.741-2.524-1.055a1.236,1.236,0,0,1-.9-1c-.131-.689-.3-1.371-.425-1.924l-1.863-.5v6.351c.384,0,.736,0,1.087,0a5.993,5.993,0,0,1,2.684,11.292c-.7.369-1.269.262-1.569-.295s-.087-1.073.625-1.464a3.9,3.9,0,0,0,2.076-2.883,3.989,3.989,0,0,0-4.895-4.523" transform="translate(-13.619 -27.256)" fill="#3d8fa0"/>
    <path id="Path_323" data-name="Path 323" d="M13.977,51.626A14,14,0,1,1,28,37.634,14.005,14.005,0,0,1,13.977,51.626m9.2-6.337A11.97,11.97,0,0,0,5.151,29.545a11.815,11.815,0,0,0-.315,15.726c.073-.1.146-.2.212-.308a6.88,6.88,0,0,1,6-3.33c2.02-.025,4.04-.033,6.059,0a6.8,6.8,0,0,1,5.437,2.735c.227.29.42.607.633.916M6.355,46.777a12,12,0,0,0,15.246.034,4.812,4.812,0,0,0-4.485-3.176c-2.059-.024-4.12-.045-6.178,0a4.9,4.9,0,0,0-4.583,3.137" transform="translate(0 -13.628)" fill="#3d8fa0"/>
    <path id="Path_324" data-name="Path 324" d="M85.575,31.625c-1.935,0-3.871.006-5.806,0a4,4,0,1,1,.022-8q5.806-.008,11.612,0a4,4,0,1,1-.022,8c-1.935,0-3.871,0-5.806,0m.049-6q-2.874,0-5.748,0a3.151,3.151,0,0,0-.743.061,1.994,1.994,0,0,0,.543,3.932q5.841.013,11.684,0a2.011,2.011,0,1,0,.013-4q-2.874-.005-5.748,0" transform="translate(-43.601 -13.624)" fill="#3d8fa0"/>
    <path id="Path_325" data-name="Path 325" d="M39.69,0q5.34,0,10.68,0a5.006,5.006,0,0,1,5.256,5.256c0,.562.014,1.125-.005,1.686a1,1,0,1,1-1.989-.014c-.017-.645.005-1.291-.008-1.936a2.969,2.969,0,0,0-2.975-2.987q-11.024-.021-22.047,0A2.971,2.971,0,0,0,25.628,5c-.012.624.007,1.249-.006,1.873A1.014,1.014,0,0,1,24.628,8a1,1,0,0,1-1-1.117,17.641,17.641,0,0,1,.1-2.737,4.9,4.9,0,0,1,4.9-4.134C32.32-.009,36,0,39.69,0" transform="translate(-13.625 0)" fill="#3d8fa0"/>
    <path id="Path_326" data-name="Path 326" d="M47.754,101.209h-8.5a3.059,3.059,0,0,1-.561-.016.992.992,0,0,1,0-1.967,3.515,3.515,0,0,1,.624-.016h17a3.555,3.555,0,0,1,.624.016.992.992,0,0,1,0,1.967,3.059,3.059,0,0,1-.561.016H47.754" transform="translate(-21.816 -57.212)" fill="#3d8fa0"/>
    <path id="Path_327" data-name="Path 327" d="M45.766,120.112q-3.344,0-6.687,0c-.8,0-1.254-.357-1.269-.976-.016-.641.455-1.021,1.284-1.022q6.718,0,13.437,0c.8,0,1.254.357,1.269.975.016.64-.458,1.021-1.285,1.023q-3.375,0-6.749,0" transform="translate(-21.805 -68.116)" fill="#3d8fa0"/>
    <path id="Path_328" data-name="Path 328" d="M42.767,110.663c-1.25,0-2.5,0-3.75,0-.749,0-1.191-.37-1.206-.975-.015-.626.445-1.02,1.222-1.021q3.78-.006,7.561,0c.744,0,1.192.373,1.207.974.015.623-.45,1.019-1.223,1.022-1.27.006-2.541,0-3.812,0" transform="translate(-21.806 -62.666)" fill="#3d8fa0"/>
    <path id="Path_329" data-name="Path 329" d="M56,9.454c.937,0,1.874-.007,2.812,0,.724.007,1.175.413,1.16,1.02a1.014,1.014,0,0,1-1.143.974q-2.844.013-5.687,0c-.723,0-1.174-.414-1.159-1.021a1.016,1.016,0,0,1,1.144-.974c.958-.01,1.916,0,2.874,0" transform="translate(-29.98 -5.451)" fill="#3d8fa0"/>
    <path id="Path_330" data-name="Path 330" d="M9.451,99.817a1,1,0,1,1,1.994-.032,1.065,1.065,0,0,1-1.074,1.049.916.916,0,0,1-.92-1.017" transform="translate(-5.45 -56.953)" fill="#3d8fa0"/>
    <path id="Path_331" data-name="Path 331" d="M10.47,108.207a1.01,1.01,0,0,1,.975,1,1.072,1.072,0,0,1-1.051,1.074.925.925,0,0,1-.944-1.055,1.012,1.012,0,0,1,1.02-1.023" transform="translate(-5.449 -62.403)" fill="#3d8fa0"/>
    <path id="Path_332" data-name="Path 332" d="M9.451,118.734a1,1,0,1,1,2-.069,1.071,1.071,0,0,1-1.057,1.069.916.916,0,0,1-.939-1" transform="translate(-5.45 -67.853)" fill="#3d8fa0"/>
    <path id="Path_333" data-name="Path 333" d="M26.243,47.8a5,5,0,1,1,5.019-4.993A5.014,5.014,0,0,1,26.243,47.8m3.018-4.989a3,3,0,1,0-2.976,2.99,3.01,3.01,0,0,0,2.976-2.99" transform="translate(-12.264 -21.803)" fill="#3d8fa0"/>
  </g>
</svg>
