<svg xmlns="http://www.w3.org/2000/svg" width="56.846" height="56.756" viewBox="0 0 56.846 56.756">
  <g id="Group_2" data-name="Group 2" transform="translate(-214 -716)">
    <path id="Subtraction_1" data-name="Subtraction 1" d="M36.681,56.756A20.143,20.143,0,0,1,17.273,42H0V0H44V17.819a20.153,20.153,0,0,1-6.16,38.9C37.46,56.745,37.07,56.756,36.681,56.756ZM29.37,46.362C31.1,51.394,33.895,54.4,36.852,54.4h.005a5.9,5.9,0,0,0,4.272-2.214,16.75,16.75,0,0,0,3.205-5.823,36.483,36.483,0,0,1-14.965,0Zm24.782-4.608a19.078,19.078,0,0,1-7.7,4.09,18.96,18.96,0,0,1-4.09,7.7A18.244,18.244,0,0,0,54.152,41.754Zm-34.609-.019a18.249,18.249,0,0,0,11.8,11.795,19.1,19.1,0,0,1-4.091-7.7,18.953,18.953,0,0,1-7.7-4.091l0,0Zm17.309,3.585h.075a32.65,32.65,0,0,0,8.017-1c.142-.566.271-1.147.384-1.727l.18.047a.383.383,0,0,0,.085.013l.418.014h.012a.41.41,0,0,0,.232-.074l1.066-.735c-.1.63-.213,1.253-.339,1.854A16.826,16.826,0,0,0,52.806,40.5a5.9,5.9,0,0,0,2.214-4.269,5.9,5.9,0,0,0-2.214-4.27,16.839,16.839,0,0,0-5.823-3.214c.108.517.2,1.032.287,1.529l-.1-.1a.42.42,0,0,0-.105-.074l-.181-.089a.38.38,0,0,0-.167-.042l-1.136-.027-.244-.063c-.113-.58-.243-1.169-.388-1.749a33.3,33.3,0,0,0-16.185,0c-.08.318-.157.648-.23.981l-.546.044-1.289-.24c.01-.048.02-.1.03-.144l.007-.031c-.1.034-.205.071-.338.119l-.131-.024-.61-.333a.392.392,0,0,0-.178-.049l-.986-.038h-.014a.368.368,0,0,0-.131.023l-.925.327a.487.487,0,0,0-.239.2l-.477.742a.664.664,0,0,0-.1.385l.024.575a10.278,10.278,0,0,0-2.884,2.585,5.058,5.058,0,0,0-1.046,2.976c0,1.893,1.217,3.723,3.519,5.292l-.1.523a.743.743,0,0,0-.01.184l.039.5a.6.6,0,0,0,.208.425l.274.222a.411.411,0,0,0,.26.1.4.4,0,0,0,.159-.034l.14-.062a.459.459,0,0,0,.192-.157L23.537,43l.025-.015h.024l.343.12a.553.553,0,0,0,.064.016l.222.037a.353.353,0,0,0,.066.006.385.385,0,0,0,.106-.015l.275-.078a.432.432,0,0,0,.11-.05l.07-.045c.6.266,1.23.516,1.889.742-.038-.181-.086-.42-.131-.655l.1.127a.559.559,0,0,0,.067.071l.262.231a.42.42,0,0,0,.22.106l.345.05a.374.374,0,0,0,.057,0,.423.423,0,0,0,.3-.137.621.621,0,0,0,.16-.345l.252-.029.124,0c.082.387.174.784.272,1.179a32.827,32.827,0,0,0,8.039,1ZM2,9V40H16.868a20.931,20.931,0,0,1-.333-3.65A19.977,19.977,0,0,1,42,17.057V9Zm40.377,9.941a19.092,19.092,0,0,1,4.091,7.7,18.943,18.943,0,0,1,7.7,4.091A18.236,18.236,0,0,0,42.377,18.941Zm-11.019-.026A18.274,18.274,0,0,0,19.552,30.721a19.083,19.083,0,0,1,7.7-4.091h.006A19.308,19.308,0,0,1,31.358,18.914Zm5.505,6.418a36.531,36.531,0,0,1,7.483.776,16.843,16.843,0,0,0-3.213-5.821,5.9,5.9,0,0,0-4.269-2.216,5.9,5.9,0,0,0-4.269,2.215,16.834,16.834,0,0,0-3.213,5.822A36.534,36.534,0,0,1,36.863,25.332ZM2,2V7H42V2ZM14,36H5V34h9v2Zm2-7H5V27H16v2Zm5-7H5V20H21v2Zm19-7H5V13H40v2ZM39,5H22V3H39V5ZM14,5H12V3h2V5ZM11,5H9V3h2V5ZM7,5H5V3H7V5Z" transform="translate(214 716)" fill="#3d8fa0"/>
    <g id="Group_1" data-name="Group 1">
      <path id="Path_1" data-name="Path 1" d="M317.462,241.411l-.129-.134.074-.231-.074-.227.039-.791.175-.935-.006-.127-.144-.038-.153.1-.141.139-.123.068-.813-.062-.419-.1-.18-.17-.155.024-.843-.6-.06.066-.036.016-.049.006-.1.03.061-.151,0-.057-.033-.049-.031-.131-.3.222-.27-.065-.316-.175-.584-.131-.221-.166-.176-.071-1.152-.022-.409-.086-.235-.022-.164.041-.3.177-.218.042-.292-.062-1.067-.453.1.31.262.259.327.167.3.037v.143l-.6.179-.276-.016-.115-.234-.067-.271-.148-.164-.133-.188-.033-.343-.175.087-.153.119-.289.3-.065-.107-.131-.163-.04-.117-.4.235-.957-.306-.83.24-1.418-.428-1.537.305-.715-.209-1.164-.011-.294.055-.48-.175-.48-.061-1.028.1-.705.156-.271-.017-.678-.237-.256-.033-1.988.131-1.79-.273-.652-.291-.962-.03-.9.261-.466.592.024.469.123.33.022.287-.294.346-.254.16-.344.143-.381.085-.38-.012-.112.472.145.561.271.474.252.2.322.043.24.126.191.2.608,1.025.071.158-.016.213-.1.21-.148.158-.179.063-.191,1.679v.387l-.033.12-.161.281-.053.126.383.119.174.09.072.1-.061.142-.139.074-.164.049-.13.07-.147.282-.1.434.037.4.268.177.136-.049.218-.243.194-.094.193-.006.4.115.216.03.267-.063.3-.155.251-.213.124-.227.327.153.717.114.3.123.406.431.256.186.336.041.008-.18.033-.13.071-.079.1-.011.2.019.275-.027.562.019.379-.058.415-.119.357-.194.207-.286h-.248v-.139l.23-.141.242-.054.164.079-.016.255h.739l.543.216.137.032.739-.1.31.027.122.215.131-.054.128-.088.284.148.215-.044.187-.122.188-.1.594-.034.266-.051.253-.186.133.139.4-.155.309.2.291.343.353.271.367.043.516-.352.418-.1.3-.019.161.037.226.123.1.106.064.129.1.106.172.047.5.049.256.062.207-.056.352-.314.169.125.074.112-.046.094-.2.057.01.087.024.055.077.115.144-.09.175-.015.2.007.223-.017,1.061-.564.371-.093.552.015.128-.015.532-.213.218-.046.371.034.412.088.409.012,1.153-.65.573-.58.044-.123.013-.27.094-.118.417-.09.092-.057.066-.292.314-.712.563-.81.314-.311.3-.134.354-.084.333-.161.315-.109.3.084.2-.336.5-.186.045-.253-.131-.167Z" transform="translate(-52 510)" fill="none" stroke="#3d8fa0" stroke-linejoin="round" stroke-width="1"/>
      <path id="Path_3" data-name="Path 3" d="M237.652,748.418l3.218,2.261-3.616,5.1,8.639-2.079v-4.445l5.686-2,2.762,3.421-1.884,4.376,2.5,2.438,4.4-3.378-.359-6.324,2.8,2.887,3.572,1.278" fill="none" stroke="#3d8fa0" stroke-linecap="round" stroke-linejoin="round" stroke-width="0.5"/>
      <path id="Path_4" data-name="Path 4" d="M242.423,747.258l-1.69,3.684,5,2.76-1.294,2.753,8.211-1.425-6.646-5.607,8.3,1.519,4.949,3.127,2.434,1.317v-4.831" fill="none" stroke="#3d8fa0" stroke-linecap="round" stroke-linejoin="round" stroke-width="0.5"/>
      <path id="Path_5" data-name="Path 5" d="M240.733,750.814l5.55-1.578-1.553-2.406" fill="none" stroke="#3d8fa0" stroke-linecap="round" stroke-linejoin="round" stroke-width="0.5"/>
      <path id="Path_12" data-name="Path 12" d="M1,0A1,1,0,1,1,0,1,1,1,0,0,1,1,0Z" transform="translate(240 750)" fill="#3d8fa0"/>
      <path id="Path_11" data-name="Path 11" d="M1,0A1,1,0,1,1,0,1,1,1,0,0,1,1,0Z" transform="translate(245 748)" fill="#3d8fa0"/>
      <path id="Path_10" data-name="Path 10" d="M1,0A1,1,0,1,1,0,1,1,1,0,0,1,1,0Z" transform="translate(245 753)" fill="#3d8fa0"/>
      <path id="Path_9" data-name="Path 9" d="M1,0A1,1,0,1,1,0,1,1,1,0,0,1,1,0Z" transform="translate(253 750)" fill="#3d8fa0"/>
      <path id="Path_8" data-name="Path 8" d="M1,0A1,1,0,1,1,0,1,1,1,0,0,1,1,0Z" transform="translate(251 754)" fill="#3d8fa0"/>
      <path id="Path_7" data-name="Path 7" d="M1,0A1,1,0,1,1,0,1,1,1,0,0,1,1,0Z" transform="translate(258 753)" fill="#3d8fa0"/>
      <path id="Path_6" data-name="Path 6" d="M1,0A1,1,0,1,1,0,1,1,1,0,0,1,1,0Z" transform="translate(261 750)" fill="#3d8fa0"/>
    </g>
  </g>
</svg>
