<svg xmlns="http://www.w3.org/2000/svg" width="56.843" height="56.609" viewBox="0 0 56.843 56.609">
  <g id="Group_394" data-name="Group 394" transform="translate(-260 -1408)">
    <g id="Group_393" data-name="Group 393">
      <g id="Group_392" data-name="Group 392">
        <path id="Path_60" data-name="Path 60" d="M265,1411h2v2h-2Z" fill="#3d8fa0"/>
        <path id="Path_61" data-name="Path 61" d="M269,1411h2v2h-2Z" fill="#3d8fa0"/>
        <path id="Path_62" data-name="Path 62" d="M272,1411h2v2h-2Z" fill="#3d8fa0"/>
        <path id="Path_63" data-name="Path 63" d="M282,1411h17v2H282Z" fill="#3d8fa0"/>
        <path id="Path_64" data-name="Path 64" d="M304,1425.819V1408H260v42h17.273A20.154,20.154,0,1,0,304,1425.819Zm-7.148,36.579c-3.07,0-5.831-3.226-7.482-8.037a36.463,36.463,0,0,0,14.965,0C302.694,1459.172,299.923,1462.4,296.852,1462.4Zm0-9.079a32.743,32.743,0,0,1-8.092-1,33.3,33.3,0,0,1,0-16.184,33.307,33.307,0,0,1,16.184,0,33.306,33.306,0,0,1,0,16.184A32.6,32.6,0,0,1,296.852,1453.319Zm7.494-19.211a36.463,36.463,0,0,0-14.965,0c1.651-4.811,4.423-8.037,7.482-8.037S302.694,1429.3,304.346,1434.108Zm-17.094.521a18.989,18.989,0,0,0-7.7,4.091,18.239,18.239,0,0,1,11.806-11.806,19.213,19.213,0,0,0-4.1,7.715Zm-.521,2.117a36.463,36.463,0,0,0,0,14.965c-4.811-1.651-8.037-4.423-8.037-7.482S281.92,1438.4,286.731,1436.746Zm20.253,0c4.811,1.652,8.037,4.423,8.037,7.483s-3.226,5.831-8.037,7.482a36.463,36.463,0,0,0,0-14.965Zm7.183,1.985a18.852,18.852,0,0,0-7.7-4.091,18.993,18.993,0,0,0-4.09-7.7A18.207,18.207,0,0,1,314.167,1438.731ZM262,1410h40v5H262Zm0,38v-31h40v8.056a19.979,19.979,0,0,0-25.465,19.294,20.845,20.845,0,0,0,.333,3.65Zm17.548,1.738a18.858,18.858,0,0,0,7.7,4.091,19.006,19.006,0,0,0,4.091,7.7,18.211,18.211,0,0,1-11.795-11.795Zm22.814,11.806a18.861,18.861,0,0,0,4.09-7.7,18.982,18.982,0,0,0,7.7-4.091A18.207,18.207,0,0,1,302.362,1461.544Z" fill="#3d8fa0"/>
        <path id="Path_65" data-name="Path 65" d="M265,1421h35v2H265Z" fill="#3d8fa0"/>
        <path id="Path_66" data-name="Path 66" d="M265,1428h16v2H265Z" fill="#3d8fa0"/>
        <path id="Path_67" data-name="Path 67" d="M265,1435h11v2H265Z" fill="#3d8fa0"/>
        <path id="Path_68" data-name="Path 68" d="M265,1442h9v2h-9Z" fill="#3d8fa0"/>
      </g>
    </g>
  </g>
</svg>
