<svg xmlns="http://www.w3.org/2000/svg" xmlns:xlink="http://www.w3.org/1999/xlink" width="60.013" height="60" viewBox="0 0 60.013 60">
  <defs>
    <clipPath id="clip-path">
      <rect id="Rectangle_1107" data-name="Rectangle 1107" width="60.013" height="60" fill="#3d8fa0"/>
    </clipPath>
  </defs>
  <g id="Group_1059" data-name="Group 1059" transform="translate(0 0)">
    <g id="Group_1058" data-name="Group 1058" transform="translate(0 0)" clip-path="url(#clip-path)">
      <path id="Path_276" data-name="Path 276" d="M70.479,21.122v-.266a1.824,1.824,0,0,0-.318-1.163,1.121,1.121,0,0,0-.93-.4h-.511v3.359h.5a1.127,1.127,0,0,0,.93-.4,1.8,1.8,0,0,0,.328-1.137" transform="translate(-25.531 -7.17)" fill="#3d8fa0"/>
      <path id="Path_277" data-name="Path 277" d="M59.96,12.2c-.835-2.97-2.471-4.21-5.556-4.211-1.094,0-2.188.014-3.281-.011a1.071,1.071,0,0,1-.661-.253A8.935,8.935,0,0,0,38.7,6.749c-.048.033-.1.061-.085.052-1.152-.607-2.269-1.186-3.373-1.79A.6.6,0,0,1,35,4.6,4.977,4.977,0,0,0,31.254.082c-.03-.009-.049-.055-.074-.083H28.837c-.025.028-.044.074-.074.083A5.009,5.009,0,0,0,25,4.594a.807.807,0,0,1-.443.5,13.657,13.657,0,0,0-3.879,2.476A1.531,1.531,0,0,1,19.538,8q-7.176-.023-14.353-.006A4.916,4.916,0,0,0,.03,12.747Q-.034,29,.026,45.26a4.82,4.82,0,0,0,4.3,4.666c1.3.128,2.613.067,3.919.089.244,0,.488,0,.772,0v.733c0,1.992-.008,3.984,0,5.976A3.263,3.263,0,0,0,11.552,59.9a3.328,3.328,0,0,0,2.864-.647Q20.6,54.817,26.8,50.406a2.161,2.161,0,0,1,1.168-.375Q41.211,50,54.45,50.016c3.023,0,4.724-1.3,5.5-4.209a.4.4,0,0,1,.062-.1v-33.4a.543.543,0,0,1-.053-.1M46.6,13.641a3.016,3.016,0,0,1,.255-1.278,1.916,1.916,0,0,1,.731-.848,2.285,2.285,0,0,1,2.507.171,1.914,1.914,0,0,1,.615,1.309H49.672a1.049,1.049,0,0,0-.272-.706,1.006,1.006,0,0,0-.71-.219.881.881,0,0,0-.776.371,2.081,2.081,0,0,0-.264,1.153v.38a2.228,2.228,0,0,0,.247,1.192.863.863,0,0,0,.779.376,1.022,1.022,0,0,0,.716-.219.987.987,0,0,0,.272-.679H50.7a1.783,1.783,0,0,1-.6,1.278,2.106,2.106,0,0,1-1.425.466,1.892,1.892,0,0,1-1.522-.651,2.671,2.671,0,0,1-.554-1.788Zm-4.447-2.353H43.7a2.35,2.35,0,0,1,1.187.3,2.083,2.083,0,0,1,.818.85A2.625,2.625,0,0,1,46,13.69v.231a2.63,2.63,0,0,1-.288,1.248,2.068,2.068,0,0,1-.814.847,2.377,2.377,0,0,1-1.185.3H42.153Zm-5,0H38.19v2.038h2.021V11.288h1.036v5.031H40.211V14.163H38.19v2.156H37.153ZM26.174,6.64a1.1,1.1,0,0,0,.861-1.38,2.986,2.986,0,1,1,5.947.01,1.129,1.129,0,0,0,.869,1.38c.738.3,1.464.634,2.18.986a10.736,10.736,0,0,1,1.021.65A9.424,9.424,0,0,0,35.265,11.9,8.961,8.961,0,0,0,41.44,22.6c.434.127.579.292.573.749-.026,2.088,0,4.178-.018,6.267a1.731,1.731,0,0,0,.558,1.35c1.2,1.17,2.381,2.369,3.568,3.556.979.979.979.978.849,2.443h-33.9a2.3,2.3,0,0,1,.769-2.414c1.27-1.124,2.411-2.391,3.628-3.577a1.747,1.747,0,0,0,.557-1.351q-.018-5.711,0-11.423A11.842,11.842,0,0,1,26.174,6.64M33.8,39.04a3.847,3.847,0,0,1-3.893,2.949,3.8,3.8,0,0,1-3.68-2.949Zm20.791,8.973q-13.535,0-27.069-.009a2.516,2.516,0,0,0-1.564.512Q19.642,53.073,13.3,57.6c-.721.517-1.31.583-1.8.072a1.827,1.827,0,0,1-.472-1.121c-.042-2.4-.019-4.8-.022-7.206,0-1-.324-1.324-1.337-1.327-1.465,0-2.93,0-4.394,0A3.032,3.032,0,0,1,2,44.719q0-15.7,0-31.405a3.029,3.029,0,0,1,3.3-3.322q6.27-.006,12.539,0h.648a13.052,13.052,0,0,0-2.1,4.817,21.494,21.494,0,0,0-.366,3.541c-.047,3.554-.023,7.109-.01,10.663a1.23,1.23,0,0,1-.4.977c-1.287,1.253-2.538,2.544-3.824,3.8a2.352,2.352,0,0,0-.788,1.931c.025.37,0,.742.005,1.112a2.01,2.01,0,0,0,2.2,2.18q5.1.009,10.2,0h.679a6.065,6.065,0,0,0,2.641,4,5.8,5.8,0,0,0,3.552.968c2.807-.136,4.775-1.84,5.676-4.969h.669q5.01,0,10.019,0c1.614,0,2.276-.757,2.388-2.366A3.958,3.958,0,0,0,47.563,33.1c-1.148-.994-2.176-2.13-3.242-3.218a.984.984,0,0,1-.3-.589c-.021-2.012-.011-4.024-.007-6.035a1.12,1.12,0,0,1,.059-.239,8.853,8.853,0,0,0,7.574-4.272,8.9,8.9,0,0,0,.491-8.652,28.866,28.866,0,0,1,3.642.033,2.816,2.816,0,0,1,2.224,2.686c.016.214.01.43.01.645q0,15.556,0,31.112c0,2.246-1.187,3.442-3.424,3.442" transform="translate(0 0)" fill="#3d8fa0"/>
    </g>
  </g>
</svg>
