<svg id="Group_1061" data-name="Group 1061" xmlns="http://www.w3.org/2000/svg" xmlns:xlink="http://www.w3.org/1999/xlink" width="56.779" height="60" viewBox="0 0 56.779 60">
  <defs>
    <clipPath id="clip-path">
      <rect id="Rectangle_1108" data-name="Rectangle 1108" width="56.779" height="60" fill="#3d8fa0"/>
    </clipPath>
  </defs>
  <g id="Group_1060" data-name="Group 1060" clip-path="url(#clip-path)">
    <path id="Path_278" data-name="Path 278" d="M49.239,22.5v.779c0,3.049.013,6.1,0,9.148a4.8,4.8,0,0,1-4.167,5.006,35.065,35.065,0,0,1-3.544.06c-.431,0-.862,0-1.348,0-.013.279-.031.5-.032.723q0,5.974,0,11.948c0,1.617.006,3.233,0,4.85A4.684,4.684,0,0,1,35.156,60Q20.065,60,4.974,60A4.676,4.676,0,0,1,0,55.062q0-25.048,0-50.1A4.677,4.677,0,0,1,4.946,0Q20.068,0,35.19,0a4.671,4.671,0,0,1,4.95,4.954c.012,3.027,0,6.055,0,9.082v.752h3.083a6.864,6.864,0,0,1,3.426-5.014,6.526,6.526,0,0,1,4.563-.772,6.75,6.75,0,0,1,5.557,7.057,6.52,6.52,0,0,1-2.385,4.817A7.055,7.055,0,0,1,49.239,22.5m-11,15c-2.358,0-4.637-.025-6.915.029a1.406,1.406,0,0,0-.9.642c-.808,1.229-1.55,2.5-2.324,3.753a2.854,2.854,0,0,1-5.1.014c-.767-1.232-1.542-2.458-2.274-3.71a1.33,1.33,0,0,0-1.372-.749c-.206.017-.415,0-.622,0a4.849,4.849,0,0,1-5.177-5.17q-.01-6.161,0-12.322a6.234,6.234,0,0,1,.1-1.3,4.851,4.851,0,0,1,4.96-3.87q9.428-.014,18.857,0h.742V10.008H1.926V49.993h36.31Zm-7.691-20.81h-.933c-3.693,0-7.385-.009-11.077,0a2.927,2.927,0,0,0-3.092,2.838c-.032,4.418-.024,8.837,0,13.256a2.8,2.8,0,0,0,2.112,2.688,5.666,5.666,0,0,0,1.662.132,3.229,3.229,0,0,1,3.21,1.8c.682,1.209,1.44,2.375,2.173,3.554.567.911,1.313.917,1.874.014.766-1.232,1.545-2.457,2.273-3.712a3.134,3.134,0,0,1,2.974-1.656c4.128.023,8.256.012,12.384.007a2.974,2.974,0,0,0,3.257-3.239c.008-3.278,0-6.555.011-9.833a.768.768,0,0,0-.479-.812,6.563,6.563,0,0,1-3.513-4.506c-.105-.448-.27-.549-.7-.547-4.045.015-8.09.009-12.136.009M1.873,51.946c0,1.026,0,1.98,0,2.933q0,3.243,3.247,3.248H35.04c.187,0,.374.006.56-.006a2.657,2.657,0,0,0,2.565-2.149,37.472,37.472,0,0,0,.033-4.026ZM38.266,8.06c0-1.032,0-2,0-2.978,0-2.125-1.092-3.208-3.222-3.208H10.281c-1.846,0-3.692-.01-5.537,0A2.735,2.735,0,0,0,1.92,4.258C1.815,5.508,1.9,6.773,1.9,8.06Zm6.812,7.645a4.92,4.92,0,1,0,9.839.023,4.979,4.979,0,0,0-5.151-4.933,4.88,4.88,0,0,0-4.688,4.91" transform="translate(0 0)" fill="#3d8fa0"/>
    <path id="Path_279" data-name="Path 279" d="M63.46,71.141H51.827c-1.005,0-1.461-.3-1.457-.943s.452-.936,1.466-.937h23.2c.145,0,.291-.005.436,0,.656.034,1.03.363,1.045.912.015.578-.363.954-1.053.957-2.592.014-5.184.008-7.776.008H63.46" transform="translate(-32.054 -44.075)" fill="#3d8fa0"/>
    <path id="Path_280" data-name="Path 280" d="M69.347,55.767q4.29,0,8.58,0c.785,0,1.239.493,1.067,1.154a.973.973,0,0,1-1.093.717q-2.829,0-5.658,0-5.689,0-11.379,0a2.2,2.2,0,0,1-.73-.091.837.837,0,0,1-.569-.986.855.855,0,0,1,.829-.782,5.308,5.308,0,0,1,.559-.009h8.394" transform="translate(-37.898 -35.487)" fill="#3d8fa0"/>
    <path id="Path_281" data-name="Path 281" d="M69.35,82.831q4.29,0,8.58,0c.823,0,1.313.607,1.033,1.276a1.051,1.051,0,0,1-1.124.594q-5.5-.013-11.005,0H60.928c-.949,0-1.38-.3-1.373-.952.008-.632.42-.915,1.339-.915H69.35" transform="translate(-37.899 -52.711)" fill="#3d8fa0"/>
    <path id="Path_282" data-name="Path 282" d="M52.419,150.584a7.73,7.73,0,0,1-.806-.005.845.845,0,0,1-.793-.818.783.783,0,0,1,.627-.939,7.5,7.5,0,0,1,1.9-.008.784.784,0,0,1,.648.924.842.842,0,0,1-.772.836,6.064,6.064,0,0,1-.805.007v0" transform="translate(-32.336 -94.666)" fill="#3d8fa0"/>
    <path id="Path_283" data-name="Path 283" d="M47.222,11.138c1.138,0,2.277-.005,3.415,0,.738.005,1.163.34,1.178.9.016.582-.434.967-1.189.97-2.256.009-4.512,0-6.767,0a2,2,0,0,1-.37-.033.88.88,0,0,1-.793-.951.869.869,0,0,1,.927-.881c1.2-.023,2.4-.007,3.6-.007v-.005" transform="translate(-27.17 -7.086)" fill="#3d8fa0"/>
  </g>
</svg>
