<svg id="Group_1063" data-name="Group 1063" xmlns="http://www.w3.org/2000/svg" xmlns:xlink="http://www.w3.org/1999/xlink" width="59.982" height="60" viewBox="0 0 59.982 60">
  <defs>
    <clipPath id="clip-path">
      <rect id="Rectangle_1109" data-name="Rectangle 1109" width="59.982" height="60" fill="#3d8fa0"/>
    </clipPath>
  </defs>
  <g id="Group_1062" data-name="Group 1062" clip-path="url(#clip-path)">
    <path id="Path_284" data-name="Path 284" d="M.587,60c-.4-.289-.726-.621-.527-1.167s.648-.6,1.15-.594q9.576.01,19.151,0h.725c-.218-2.065-.431-4.06-.64-6.055-.267-2.542-.552-5.082-.791-7.627a2.568,2.568,0,0,1,2.6-2.882c.855-.024,1.71,0,2.612,0V36.443c-.177.059-.339.1-.49.165-1.717.743-3.439,1.475-5.147,2.24A6.828,6.828,0,0,0,14.9,45.475c-.028,3.221-.006,6.442-.007,9.663a4.019,4.019,0,0,1-.015.585.814.814,0,0,1-.776.747.8.8,0,0,1-.9-.594,2.14,2.14,0,0,1-.067-.634c0-3.241-.031-6.482,0-9.722a8.588,8.588,0,0,1,5.514-8.341c1.4-.62,2.816-1.224,4.326-1.88-.243-.112-.388-.185-.538-.246A7.089,7.089,0,0,1,19.478,24.17a10.181,10.181,0,0,0,2.364-5.136,29.449,29.449,0,0,0,.078-3.392,18.358,18.358,0,0,1,.8-6.409A13.876,13.876,0,0,1,36.761.051,13.7,13.7,0,0,1,49.307,11.488a35.365,35.365,0,0,1,.226,5.487A10.477,10.477,0,0,0,50.677,22.4a7.8,7.8,0,0,0,.873,1.312,7.178,7.178,0,0,1-3.057,11.524c.237.115.411.208.592.285,1.289.554,2.6,1.069,3.867,1.664a8.5,8.5,0,0,1,5.261,8.092c.051,4.08.012,8.16.012,12.24v.7c.643.062,1.383-.136,1.757.608V60H.587M49.4,58.224c.116-1.081.227-2.106.336-3.132.369-3.473.746-6.945,1.1-10.419.1-.937-.2-1.241-1.155-1.241q-13.559,0-27.118,0c-.956,0-1.232.293-1.134,1.251q.541,5.3,1.106,10.6c.1.981.219,1.96.329,2.946Zm-5.641-53.4A23.8,23.8,0,0,1,27.414,15.612a3.082,3.082,0,0,0-.035.315c0,2.245-.04,4.491.017,6.735a6.575,6.575,0,0,0,5.239,6.364,23.372,23.372,0,0,0,5.239.168,6.2,6.2,0,0,0,4.446-2.317,6.542,6.542,0,0,0,1.53-3.166c-.506.372-.9.682-1.317.964s-.871.522-1.281.818a2.061,2.061,0,0,0-.608.633,2.462,2.462,0,0,1-1.994,1.45,15.311,15.311,0,0,1-2.859-.021,2.491,2.491,0,0,1-2.132-2.6A2.558,2.558,0,0,1,36.1,22.5c.526-.025,1.055.014,1.58-.019a2.826,2.826,0,0,1,2.888,1.343,6.068,6.068,0,0,0,3.182-2.994,2.228,2.228,0,0,0,.244-.883c.026-1.307,0-2.616.018-3.923,0-.353-.125-.465-.457-.6a34.088,34.088,0,0,1-3.4-1.521c-.834-.445-1-.983-.662-1.492s.832-.482,1.622.037a9.79,9.79,0,0,0,6.68,1.526,12.156,12.156,0,0,0-4.041-9.147M23.664,13.9c6.772.648,14.942-3.715,18.6-10.146a11.787,11.787,0,0,0-12.316-.479A11.993,11.993,0,0,0,23.664,13.9M46.527,41.673c1.064,0,2.115,0,3.166,0a2.637,2.637,0,0,1,2.893,3.168c-.35,3.495-.743,6.985-1.115,10.477-.1.959-.192,1.918-.288,2.88h5.271c0-4.551.093-9.061-.036-13.566a6.238,6.238,0,0,0-3.69-5.589c-1.988-.984-4.07-1.78-6.111-2.656-.025-.011-.068.02-.148.047,0,1.6,0,3.222,0,4.84a3.257,3.257,0,0,0,.058.4M31.87,30.751c-.909,2.462-1.684,3.328-3.791,4.248-1.422.62-1.407.62-1.416,2.167,0,.4.1.58.5.683a32.977,32.977,0,0,0,16.84-.1c.56-.149.671-.394.732-.943a1.447,1.447,0,0,0-1.185-1.761,5.809,5.809,0,0,1-4-4.227c-.008-.03-.056-.048-.07-.059a22.832,22.832,0,0,1-7.613,0M23.684,15.725c0,.485-.019.912,0,1.336a11.62,11.62,0,0,1-2.725,8.062,5.308,5.308,0,0,0,.427,7.177,5.628,5.628,0,0,0,7.287.367A4,4,0,0,0,30.084,30.5a.557.557,0,0,0-.278-.721,8.461,8.461,0,0,1-4.183-7.509c-.013-1.971,0-3.942,0-5.913,0-.205-.017-.41-.027-.63Zm22.079.092c0,2.072-.016,4.062,0,6.051a8.759,8.759,0,0,1-4.249,7.972.706.706,0,0,0-.215.608,3.619,3.619,0,0,0,1.393,2.172,5.53,5.53,0,0,0,5.191.932,5.328,5.328,0,0,0,2.625-8.289,13.456,13.456,0,0,1-2.125-3.678,12.186,12.186,0,0,1-.6-4.44c.014-.457,0-.916,0-1.387-.4.023-.715.048-1.026.057s-.616,0-1,0M44.671,39.371a34.557,34.557,0,0,1-17.967.171v2.078H44.671ZM37.258,24.252v0c-.35,0-.7-.013-1.049,0a.752.752,0,0,0-.777.782.718.718,0,0,0,.682.806,18.67,18.67,0,0,0,2.326-.006.713.713,0,0,0,.664-.819.742.742,0,0,0-.739-.757c-.368-.024-.738,0-1.107,0" transform="translate(0 0)" fill="#3d8fa0"/>
    <path id="Path_285" data-name="Path 285" d="M17.385,17.47c.4.243.77.456,1.129.685a1.205,1.205,0,0,1-.644,2.266c-2.692.006-5.386.059-8.076-.016A10.3,10.3,0,0,1,.012,10.777a10.188,10.188,0,1,1,20.358-.213,9.928,9.928,0,0,1-2.493,6.35c-.15.174-.3.345-.492.557m-1.685,1.1c-.615-.968-.562-1.394.307-2.237A8.221,8.221,0,0,0,18.613,10.5a8.429,8.429,0,1,0-16.854-.24,8.3,8.3,0,0,0,7.218,8.264c2.219.217,4.477.039,6.722.039" transform="translate(-0.001 -0.026)" fill="#3d8fa0"/>
    <path id="Path_286" data-name="Path 286" d="M59.965,88.713a3.312,3.312,0,0,1-3.3-3.366,3.336,3.336,0,1,1,3.3,3.366m.041-1.759a1.582,1.582,0,0,0,1.566-1.569A1.614,1.614,0,0,0,60,83.8a1.6,1.6,0,0,0-1.584,1.614,1.554,1.554,0,0,0,1.586,1.537" transform="translate(-23.864 -34.555)" fill="#3d8fa0"/>
    <path id="Path_287" data-name="Path 287" d="M10.875,16.142a.863.863,0,1,1-.835.921.845.845,0,0,1,.835-.921" transform="translate(-4.228 -6.798)" fill="#3d8fa0"/>
    <path id="Path_288" data-name="Path 288" d="M17.836,17.057a.864.864,0,0,1-1.724-.1.864.864,0,1,1,1.724.1" transform="translate(-6.785 -6.798)" fill="#3d8fa0"/>
    <path id="Path_289" data-name="Path 289" d="M23.909,16.979a.863.863,0,1,1-1.725.054.863.863,0,1,1,1.725-.054" transform="translate(-9.343 -6.799)" fill="#3d8fa0"/>
  </g>
</svg>
