<svg xmlns="http://www.w3.org/2000/svg" width="62.011" height="61" viewBox="0 0 62.011 61">
  <g id="_06-Coin" data-name=" 06-Coin" transform="translate(-1137.481 -1111.5)">
    <g id="filled">
      <path id="Path_90" data-name="Path 90" d="M1199.053,1129.1l-7.992-7.781a1.528,1.528,0,0,0-2.122,0,1.441,1.441,0,0,0-.439,1.032v3.145h-3V1117a5.506,5.506,0,0,0-5.5-5.5h-23a5.435,5.435,0,0,0-5.5,5.355V1148.5h-3V1145a1.5,1.5,0,0,0-2.561-1.061l-8.033,8.034a1.453,1.453,0,0,0,0,2.054l8.033,8.034A1.51,1.51,0,0,0,1148.5,1161v-2.5h3v8.5a5.506,5.506,0,0,0,5.5,5.5h23a5.435,5.435,0,0,0,5.5-5.355V1135.5h3v2.434a1.516,1.516,0,0,0,2.561,1.033l7.992-7.782A1.453,1.453,0,0,0,1199.053,1129.1Zm-42.139-14.6h23.172a2.461,2.461,0,0,1,2.414,2.5v2.5h-28V1117A2.461,2.461,0,0,1,1156.914,1114.5Zm23.172,55h-23.172a2.461,2.461,0,0,1-2.414-2.5v-2.5h28v2.5A2.461,2.461,0,0,1,1180.086,1169.5Zm11.414-34.121v-1.427a1.452,1.452,0,0,0-1.452-1.452H1178a1.5,1.5,0,0,0,0,3h4.5v26h-28v-3h4.5a1.5,1.5,0,0,0,0-3h-12.048a1.452,1.452,0,0,0-1.452,1.452v1.427l-4.379-4.379,4.379-4.379v.427a1.452,1.452,0,0,0,1.452,1.452H1159a1.5,1.5,0,0,0,0-3h-4.5v-26h28v3H1178a1.5,1.5,0,0,0,0,3h12.048a1.452,1.452,0,0,0,1.452-1.452v-.427l4.379,4.379Z" fill="#3d8fa0"/>
      <path id="Path_91" data-name="Path 91" d="M1166.586,1135.5h4.778a1.432,1.432,0,0,1,1.453,1.444,1.5,1.5,0,1,0,3,.011,4.506,4.506,0,0,0-4.5-4.455H1169.5V1130a1.5,1.5,0,0,0-3,0v2.5h-.457a5.5,5.5,0,1,0-.043,11h4.343a2.486,2.486,0,0,1,2.34,1.494,2.514,2.514,0,0,1-2.3,3.506H1165.6a1.431,1.431,0,0,1-1.453-1.444,1.5,1.5,0,1,0-3-.011,4.505,4.505,0,0,0,4.5,4.455h.85v2.5a1.5,1.5,0,0,0,3,0v-2.5h.457a5.5,5.5,0,1,0,.043-11h-3.377a2.487,2.487,0,0,1-2.34-1.494A2.514,2.514,0,0,1,1166.586,1135.5Z" fill="#3d8fa0"/>
    </g>
  </g>
</svg>
