<svg xmlns="http://www.w3.org/2000/svg" viewBox="0 0 62.01 61"><defs><style>.cls-1{fill:#fff;}</style></defs><g id="Layer_2" data-name="Layer 2"><g id="Layer_1-2" data-name="Layer 1"><g id="_06-Coin" data-name=" 06-Coin"><g id="filled"><path id="Path_90" data-name="Path 90" class="cls-1" d="M61.57,17.6l-8-7.78a1.53,1.53,0,0,0-2.12,0,1.43,1.43,0,0,0-.44,1V14H48V5.5A5.5,5.5,0,0,0,42.52,0h-23A5.43,5.43,0,0,0,14,5.36V37H11V33.5a1.5,1.5,0,0,0-2.56-1.06l-8,8a1.45,1.45,0,0,0,0,2.06l8,8a1.5,1.5,0,0,0,2.13,0,1.54,1.54,0,0,0,.43-1V47h3v8.5a5.5,5.5,0,0,0,5.5,5.5h23A5.43,5.43,0,0,0,48,55.65V24h3v2.43a1.52,1.52,0,0,0,1.58,1.46,1.58,1.58,0,0,0,1-.42l8-7.78a1.45,1.45,0,0,0,0-2.06ZM19.43,3H42.6A2.46,2.46,0,0,1,45,5.5V8H17V5.5A2.46,2.46,0,0,1,19.43,3ZM42.6,58H19.43A2.46,2.46,0,0,1,17,55.5V53H45v2.5A2.46,2.46,0,0,1,42.61,58ZM54,23.88V22.45A1.45,1.45,0,0,0,52.57,21h-12a1.5,1.5,0,0,0,0,3H45V50H17V47h4.5a1.5,1.5,0,0,0,0-3h-12A1.45,1.45,0,0,0,8,45.45H8v1.43L3.64,42.5,8,38.12v.43A1.45,1.45,0,0,0,9.47,40h12a1.5,1.5,0,0,0,0-3H17V11H45v3h-4.5a1.5,1.5,0,0,0,0,3h12A1.45,1.45,0,0,0,54,15.55h0v-.43L58.4,19.5Z"/><path id="Path_91" data-name="Path 91" class="cls-1" d="M29.11,24h4.77a1.44,1.44,0,0,1,1.46,1.41v0A1.49,1.49,0,0,0,36.83,27a1.51,1.51,0,0,0,1.51-1.49h0A4.51,4.51,0,0,0,33.84,21H32V18.5a1.5,1.5,0,0,0-3,0V21h-.46a5.5,5.5,0,1,0,0,11h4.34a2.5,2.5,0,0,1,1,4.8,2.53,2.53,0,0,1-1,.2H28.12a1.43,1.43,0,0,1-1.45-1.41v0a1.5,1.5,0,1,0-3,0h0A4.5,4.5,0,0,0,28.17,40H29v2.5a1.5,1.5,0,0,0,3,0V40h.45a5.5,5.5,0,0,0,.05-11H29.14a2.5,2.5,0,0,1-1-4.8A2.57,2.57,0,0,1,29.11,24Z"/></g></g></g></g></svg>