<svg xmlns="http://www.w3.org/2000/svg" width="60.5" height="60.131" viewBox="0 0 60.5 60.131">
  <g id="Group_388" data-name="Group 388" transform="translate(-260.25 -1818.619)">
    <g id="Group_387" data-name="Group 387">
      <path id="Path_40" data-name="Path 40" d="M279,1845.75v-2.5H263.75v-1.5H283v-2.5h-5.25V1831h-2.5v8.25h-5.5V1831h-2.5v8.25h-6V1845H262v.75Z" fill="#3d8fa0"/>
      <path id="Path_41" data-name="Path 41" d="M262.25,1838h2.5v-8.25h15.5V1838h2.5v-8.25h2V1825.3l-12.25-6.685-12.25,6.685v4.446h2Zm.5-11.212,9.75-5.321,9.75,5.321v.462h-19.5Z" fill="#3d8fa0"/>
      <path id="Path_42" data-name="Path 42" d="M307.092,1840.526a7.758,7.758,0,0,1-5.892,7.546l.6,2.426a10.277,10.277,0,0,0-2.489-20.248H286v2.5h13.315A7.785,7.785,0,0,1,307.092,1840.526Z" fill="#3d8fa0"/>
      <path id="Path_43" data-name="Path 43" d="M272.424,1858.474a7.807,7.807,0,0,1,5.08-7.3l-.866-2.346a10.278,10.278,0,0,0,3.562,19.918H293v-2.5H280.2A7.785,7.785,0,0,1,272.424,1858.474Z" fill="#3d8fa0"/>
      <path id="Path_44" data-name="Path 44" d="M289.987,1848.495c-.1-.019-.936-.2-.936-.562,0-.223.357-.547.917-.547a1.068,1.068,0,0,1,.833.339l1.964-1.547a3.56,3.56,0,0,0-2.8-1.292,3.752,3.752,0,0,0-.876.114h-.842v.314a3,3,0,0,0-1.7,2.619c0,1.52,1.1,2.646,2.949,3.014.45.089,1.206.3,1.206.746,0,.344-.486.729-1.136.729a1.314,1.314,0,0,1-1.024-.43l-1.986,1.518a3.567,3.567,0,0,0,1.69,1.168V1855h2.5v-.268a3.279,3.279,0,0,0,2.456-3.039C293.206,1850.924,292.892,1849.071,289.987,1848.495Z" fill="#3d8fa0"/>
      <path id="Path_45" data-name="Path 45" d="M290,1840.25a9.75,9.75,0,1,0,9.75,9.75A9.761,9.761,0,0,0,290,1840.25Zm0,17a7.25,7.25,0,1,1,7.25-7.25A7.258,7.258,0,0,1,290,1857.25Z" fill="#3d8fa0"/>
      <path id="Path_46" data-name="Path 46" d="M308.5,1851.619l-12.25,6.685v4.446h3V1871h2.5v-8.25h14.5V1871h2.5v-8.25h2V1858.3Zm-9.75,8.169,9.75-5.321,9.75,5.321v.462h-19.5Z" fill="#3d8fa0"/>
      <path id="Path_47" data-name="Path 47" d="M314.75,1864h-2.5v8.25h-6.5V1864h-2.5v8.25H299v2.5h19.25v1.5H303v2.5h16V1878h1.75v-5.75h-6Z" fill="#3d8fa0"/>
    </g>
  </g>
</svg>
