<svg xmlns="http://www.w3.org/2000/svg" width="103" height="102" viewBox="0 0 103 102">
  <g id="Group_758" data-name="Group 758" transform="translate(-1040.078 0.12)">
    <rect id="Rectangle_1034" data-name="Rectangle 1034" width="103" height="102" rx="4" transform="translate(1040.078 -0.12)" fill="#eef2f4"/>
    <path id="Icon_feather-phone" data-name="Icon feather-phone" d="M47.81,36.491v6.734a4.489,4.489,0,0,1-4.893,4.489,44.422,44.422,0,0,1-19.372-6.891A43.771,43.771,0,0,1,10.077,27.355,44.422,44.422,0,0,1,3.186,7.893,4.489,4.489,0,0,1,7.653,3h6.734a4.489,4.489,0,0,1,4.489,3.861,28.821,28.821,0,0,0,1.571,6.308,4.489,4.489,0,0,1-1.01,4.736l-2.851,2.851A35.915,35.915,0,0,0,30.055,34.224l2.851-2.851a4.489,4.489,0,0,1,4.736-1.01,28.821,28.821,0,0,0,6.308,1.571A4.489,4.489,0,0,1,47.81,36.491Z" transform="translate(1066.048 26.181)" fill="none" stroke="#3d8fa0" stroke-linecap="round" stroke-linejoin="round" stroke-width="3"/>
  </g>
</svg>
