<svg id="Group_1091" data-name="Group 1091" xmlns="http://www.w3.org/2000/svg" xmlns:xlink="http://www.w3.org/1999/xlink" width="59.988" height="60" viewBox="0 0 59.988 60">
  <defs>
    <clipPath id="clip-path">
      <rect id="Rectangle_1143" data-name="Rectangle 1143" width="59.989" height="60" fill="#3d8fa0"/>
    </clipPath>
  </defs>
  <g id="Group_1090" data-name="Group 1090" clip-path="url(#clip-path)">
    <path id="Path_363" data-name="Path 363" d="M46.281,60H13.709a1.415,1.415,0,0,1-.541-1.59A4.691,4.691,0,0,1,16.735,54.5c.155-.044.38-.124.421-.24.419-1.185.806-2.382,1.221-3.63h-.731q-7.322,0-14.645,0a2.807,2.807,0,0,1-3-2.952q0-18.6,0-37.207A2.81,2.81,0,0,1,2.988,7.5c1.914,0,3.827,0,5.741,0h.619L9.2,7.36a4.778,4.778,0,0,1,.631-1.6c1.714-1.818,3.5-3.57,5.291-5.313A1.625,1.625,0,0,1,16.144.018Q32.81-.015,49.476,0c.8,0,1.135.338,1.138,1.145.006,1.894,0,3.789,0,5.683V7.5h.7c1.875,0,3.749,0,5.624,0a4.207,4.207,0,0,1,.813.065,3.011,3.011,0,0,1,2.237,2.159V48.4c-.592,1.7-1.819,2.271-3.571,2.248-4.7-.063-9.4-.022-14.094-.022h-.711c.409,1.235.789,2.417,1.2,3.587.047.133.282.236.449.284a4.692,4.692,0,0,1,3.555,3.916A1.415,1.415,0,0,1,46.281,60M48.719,1.916H16.873c0,1.445,0,2.848,0,4.252,0,1.045-.281,1.33-1.306,1.331-1.269,0-2.538,0-3.806,0-.166,0-.332.022-.48.033V43.091H48.719ZM9.35,9.375c-2.142,0-4.229,0-6.315,0-.834,0-1.157.332-1.158,1.182q0,18.512,0,37.024c0,.838.331,1.165,1.176,1.165q26.942,0,53.884,0c.843,0,1.176-.329,1.176-1.167q0-18.512,0-37.024c0-.865-.33-1.181-1.218-1.182q-2.87,0-5.74,0c-.168,0-.337.021-.493.031V11.25c.884,0,1.723,0,2.561,0a2.813,2.813,0,0,1,3.015,2.993q0,13.884,0,27.768A2.8,2.8,0,0,1,53.276,45Q29.994,45,6.712,45a2.807,2.807,0,0,1-2.96-2.989q0-13.884,0-27.768a2.815,2.815,0,0,1,3.017-2.991c.853,0,1.705,0,2.581,0ZM9.336,43.122v-30H7.023c-1.15,0-1.4.25-1.4,1.413v27.17c0,.156-.007.313,0,.468a.912.912,0,0,0,.922.939c.914.024,1.829.007,2.785.007M50.655,13.128v30H52.97c1.146,0,1.4-.254,1.4-1.417V14.539c0-.156.008-.313,0-.468a.912.912,0,0,0-.925-.937c-.914-.023-1.829-.006-2.781-.006M19.13,54.332H40.861c-.366-1.106-.73-2.155-1.055-3.215a.6.6,0,0,0-.7-.5c-3.046.02-6.092.011-9.137.011-3.026,0-6.053,0-9.079.009-.2,0-.536.08-.582.205-.42,1.148-.79,2.316-1.18,3.493M15.254,58.1H44.726c.01-.065.03-.106.02-.138a1.036,1.036,0,0,0-.091-.214,2.882,2.882,0,0,0-2.716-1.5q-11.944.01-23.889,0c-.156,0-.313,0-.468.012A2.6,2.6,0,0,0,15.254,58.1m-.3-52.484V3.54L12.877,5.613Z" transform="translate(0 0)" fill="#3d8fa0"/>
    <path id="Path_364" data-name="Path 364" d="M72.625,30.248a9.374,9.374,0,1,1,9.347-9.314,9.386,9.386,0,0,1-9.347,9.314M72.6,28.371a7.5,7.5,0,1,0-7.5-7.543,7.506,7.506,0,0,0,7.5,7.543" transform="translate(-42.605 -7.749)" fill="#3d8fa0"/>
    <path id="Path_365" data-name="Path 365" d="M53.471,78.513c0,.859.006,1.719,0,2.578-.007.774-.34,1.125-1.1,1.128q-2.665.012-5.33,0c-.721,0-1.065-.359-1.068-1.094q-.011-2.666,0-5.331c0-.723.357-1.065,1.093-1.069q2.665-.011,5.33,0c.722,0,1.062.357,1.07,1.093.009.9,0,1.8,0,2.695m-1.919-1.888H47.881v3.7h3.671Z" transform="translate(-30.976 -50.347)" fill="#3d8fa0"/>
    <path id="Path_366" data-name="Path 366" d="M53.471,107.233c0,.879.007,1.757,0,2.636-.008.734-.349,1.088-1.071,1.092q-2.665.014-5.33,0a.952.952,0,0,1-1.091-1.071q-.014-2.666,0-5.331a.951.951,0,0,1,1.07-1.091q2.665-.013,5.33,0c.755,0,1.087.353,1.093,1.129.007.879,0,1.757,0,2.636m-1.914-1.848h-3.68v3.677h3.68Z" transform="translate(-30.976 -69.715)" fill="#3d8fa0"/>
    <rect id="Rectangle_1137" data-name="Rectangle 1137" width="19.609" height="1.807" transform="translate(24.399 29.091)" fill="#3d8fa0"/>
    <rect id="Rectangle_1138" data-name="Rectangle 1138" width="19.609" height="1.804" transform="translate(24.398 38.468)" fill="#3d8fa0"/>
    <rect id="Rectangle_1139" data-name="Rectangle 1139" width="15.86" height="1.805" transform="translate(28.147 25.342)" fill="#3d8fa0"/>
    <rect id="Rectangle_1140" data-name="Rectangle 1140" width="15.86" height="1.806" transform="translate(28.166 34.727)" fill="#3d8fa0"/>
    <rect id="Rectangle_1141" data-name="Rectangle 1141" width="1.8" height="1.802" transform="translate(24.413 25.338)" fill="#3d8fa0"/>
    <rect id="Rectangle_1142" data-name="Rectangle 1142" width="1.799" height="1.809" transform="translate(24.404 34.715)" fill="#3d8fa0"/>
    <path id="Path_367" data-name="Path 367" d="M78.488,34.627l1.355-1.456,1.039,1.265,4.985-5.06L87.3,30.955a3.21,3.21,0,0,0-.557.38C85.12,32.94,83.512,34.558,81.9,36.17c-.683.681-1.089.673-1.782,0-.543-.528-1.1-1.043-1.627-1.542" transform="translate(-52.887 -19.794)" fill="#3d8fa0"/>
  </g>
</svg>
