<svg id="Group_1083" data-name="Group 1083" xmlns="http://www.w3.org/2000/svg" xmlns:xlink="http://www.w3.org/1999/xlink" width="60.015" height="60" viewBox="0 0 60.015 60">
  <defs>
    <clipPath id="clip-path">
      <rect id="Rectangle_1126" data-name="Rectangle 1126" width="60.015" height="60" fill="#3d8fa0"/>
    </clipPath>
  </defs>
  <g id="Group_1082" data-name="Group 1082" clip-path="url(#clip-path)">
    <path id="Path_334" data-name="Path 334" d="M10.42,31.118c-.138-1.356-.371-2.659-.387-3.964A19.629,19.629,0,0,1,17.269,11.31a1.27,1.27,0,0,0,.529-1.1c-.034-1.522-.012-3.045-.012-4.647H15.741c-2.106,0-4.213.011-6.319-.009a.8.8,0,0,0-.911.587,4.365,4.365,0,0,1-5.287,2.58A4.491,4.491,0,0,1,.056,3.794,4.427,4.427,0,0,1,4.657.018,4.244,4.244,0,0,1,8.541,2.808a.724.724,0,0,0,.8.54c3.055-.019,6.11-.011,9.166-.01,1.141,0,1.5.354,1.5,1.482,0,1.476,0,2.952,0,4.511a20.051,20.051,0,0,1,20,0c0-1.555,0-3.028,0-4.5,0-1.14.353-1.494,1.488-1.495,3.032,0,6.064-.009,9.1.009a.8.8,0,0,0,.908-.589A4.369,4.369,0,0,1,56.786.174,4.491,4.491,0,0,1,59.959,5.1a4.434,4.434,0,0,1-4.6,3.781,4.293,4.293,0,0,1-3.918-2.85c-.133-.318-.251-.478-.629-.476-2.823.016-5.646.009-8.583.009v2a8.681,8.681,0,0,0,.079,3.025c.341.855,1.336,1.441,2.017,2.171A19.636,19.636,0,0,1,49.62,30.446c-.036.2-.052.406-.085.672,1.879,0,3.727,0,5.575,0,1.231,0,1.563.331,1.563,1.56,0,3.773.007,7.546-.009,11.319a.712.712,0,0,0,.531.8,4.377,4.377,0,0,1,2.74,4.847,4.436,4.436,0,1,1-6.023-4.873c.22-.1.514-.37.516-.563.031-3.587.023-7.174.023-10.872H52.659c-1.088,0-2.176.017-3.263-.009a.677.677,0,0,0-.76.5A19.718,19.718,0,0,1,34.242,46.181c-1,.24-2.045.333-3.124.5,0,1.432-.019,2.864.024,4.293.005.169.323.388.54.481a4.438,4.438,0,1,1-5.795,5.765,4.374,4.374,0,0,1,2.388-5.706.844.844,0,0,0,.639-.948c-.047-1.292-.015-2.586-.015-3.878-1.118-.184-2.2-.291-3.251-.546A19.7,19.7,0,0,1,11.4,33.907a.76.76,0,0,0-.844-.584c-1.638.032-3.277.012-4.955.012V44.581c.166.071.354.152.544.232a4.418,4.418,0,0,1,2.678,4.829,4.467,4.467,0,0,1-4.26,3.7A4.454,4.454,0,0,1,.128,49.864,4.32,4.32,0,0,1,2.621,44.9a1.036,1.036,0,0,0,.735-1.164c-.027-3.7-.014-7.408-.013-11.112,0-1.146.352-1.5,1.479-1.5,1.871,0,3.743,0,5.6,0M30.02,8.894A17.779,17.779,0,1,0,47.784,26.7,17.767,17.767,0,0,0,30.02,8.894M4.52,2.228A2.221,2.221,0,1,0,6.673,4.48,2.211,2.211,0,0,0,4.52,2.228m51.087,0a2.22,2.22,0,1,0,2.174,2.23,2.21,2.21,0,0,0-2.174-2.23M4.5,46.676a2.22,2.22,0,1,0,2.172,2.233A2.21,2.21,0,0,0,4.5,46.676m53.28,2.217a2.22,2.22,0,1,0-2.253,2.223,2.213,2.213,0,0,0,2.253-2.223m-27.739,4.45a2.22,2.22,0,1,0,2.185,2.219,2.211,2.211,0,0,0-2.185-2.219" transform="translate(0 -0.001)" fill="#3d8fa0"/>
    <path id="Path_335" data-name="Path 335" d="M68.9,40.838v.86q0,7.153,0,14.306c0,1.144-.357,1.51-1.478,1.51q-7.4,0-14.79,0c-1.165,0-1.508-.354-1.508-1.548q0-7.153,0-14.306v-.814a3.891,3.891,0,0,1-1.08-.021c-.362-.114-.842-.312-.967-.6a2.208,2.208,0,0,1,.119-1.211c.036-.155.241-.271.371-.4l9.329-9.331c.885-.885,1.342-.892,2.21-.024q4.691,4.688,9.375,9.383a2.53,2.53,0,0,1,.536.71,1.045,1.045,0,0,1-.862,1.484c-.386.041-.779.007-1.256.007m-1.8-2.251-7.085-7.061-7.107,7.061ZM62.2,40.882H57.824V50.8H62.2Zm4.433,12.232H53.392v2.149H66.635ZM53.374,50.807h2.143v-9.93H53.374Zm11.1-.016h2.161v-9.9H64.477Z" transform="translate(-29.999 -17.509)" fill="#3d8fa0"/>
  </g>
</svg>
