<svg xmlns="http://www.w3.org/2000/svg" width="59.85" height="54.566" viewBox="0 0 59.85 54.566">
  <g id="Group_386" data-name="Group 386" transform="translate(-259.763 -1692.976)">
    <path id="Path_31" data-name="Path 31" d="M276.25,1714.75h2V1726h2.5v-11.25h17.5V1726h2.5v-11.25h3v-4.8L290,1702.39l-13.75,7.561Zm2.5-3.32,11.25-6.187,11.25,6.187v.82h-22.5Z" fill="#3d8fa0"/>
    <path id="Path_32" data-name="Path 32" d="M268.2,1702.744c.454.045.794.3.794.494s-.332.494-.853.494a.992.992,0,0,1-.786-.321l-1.985,1.52a3.482,3.482,0,0,0,2.771,1.3,3.68,3.68,0,0,0,1.292-.232h.319v-.152a2.957,2.957,0,0,0,1.742-2.61,3.19,3.19,0,0,0-3.08-2.985c-.362-.025-.583-.23-.583-.331s.231-.333.66-.333a.793.793,0,0,1,.618.242l1.964-1.547a3.1,3.1,0,0,0-1.321-.943V1697h-2.5v.317a2.848,2.848,0,0,0-1.921,2.6A2.944,2.944,0,0,0,268.2,1702.744Z" fill="#3d8fa0"/>
    <path id="Path_33" data-name="Path 33" d="M310.933,1703.732a1,1,0,0,1-.785-.32l-1.986,1.518a3.482,3.482,0,0,0,2.771,1.3,3.685,3.685,0,0,0,1.293-.232h.524v-.252a2.927,2.927,0,0,0,1.537-2.51,3.19,3.19,0,0,0-3.08-2.985c-.362-.025-.583-.23-.583-.331s.231-.333.66-.333a.8.8,0,0,1,.619.243l1.963-1.549a3.074,3.074,0,0,0-1.116-.87V1697h-2.5v.257a2.871,2.871,0,0,0-2.126,2.665,2.944,2.944,0,0,0,2.869,2.822c.454.045.794.3.794.494S311.455,1703.732,310.933,1703.732Z" fill="#3d8fa0"/>
    <path id="Path_34" data-name="Path 34" d="M310.25,1734v.257a2.871,2.871,0,0,0-2.126,2.665,2.944,2.944,0,0,0,2.869,2.822c.454.045.794.3.794.494s-.332.494-.854.494a1,1,0,0,1-.785-.32l-1.986,1.518a3.385,3.385,0,0,0,2.088,1.228V1744h2.5v-1.252a2.927,2.927,0,0,0,1.537-2.51,3.19,3.19,0,0,0-3.08-2.985c-.362-.025-.583-.23-.583-.331s.231-.333.66-.333a.8.8,0,0,1,.619.243l1.963-1.549a3.074,3.074,0,0,0-1.116-.87V1734Z" fill="#3d8fa0"/>
    <path id="Path_35" data-name="Path 35" d="M268.3,1710.053a8.511,8.511,0,0,0,6.146-2.626l1.613,1.613,1.767-1.768-1.913-1.912a8.459,8.459,0,0,0,.926-3.845,8.549,8.549,0,0,0-8.539-8.539v2.5a6.035,6.035,0,1,1-5.008,2.663l-2.071-1.4a8.539,8.539,0,0,0,7.079,13.313Z" fill="#3d8fa0"/>
    <path id="Path_36" data-name="Path 36" d="M269.75,1744v-1.152a2.957,2.957,0,0,0,1.742-2.61,3.19,3.19,0,0,0-3.08-2.985c-.362-.025-.583-.23-.583-.331s.231-.333.66-.333a.793.793,0,0,1,.618.242l1.964-1.547a3.1,3.1,0,0,0-1.321-.943V1734h-2.5v.317a2.848,2.848,0,0,0-1.921,2.6,2.944,2.944,0,0,0,2.869,2.822c.454.045.794.3.794.494s-.332.494-.853.494a.992.992,0,0,1-.786-.321l-1.985,1.52a3.356,3.356,0,0,0,1.882,1.187V1744Z" fill="#3d8fa0"/>
    <path id="Path_37" data-name="Path 37" d="M311.074,1730.465v2.5a6.039,6.039,0,1,1-6.038,6.038,5.981,5.981,0,0,1,.625-2.68l-1.6-.793,1.087-1.087L302.707,1732h.043v-5.75h-7V1717h-2.5v9.25h-7.5V1717h-2.5v9.25h-7V1732H278v1.75h22.922l2.189,2.19a8.535,8.535,0,1,0,7.963-5.475ZM302.422,1732l-.422.422V1732Zm-2.172-3.25v2.5h-21.5v-2.5Z" fill="#3d8fa0"/>
    <path id="Path_38" data-name="Path 38" d="M302.564,1709.04l2.007-2.007A8.526,8.526,0,0,0,315.187,1709l-1.207-2.189a6.04,6.04,0,1,1,3.133-5.3h2.5a8.538,8.538,0,1,0-16.4,3.338l-2.419,2.419Z" fill="#3d8fa0"/>
    <path id="Path_39" data-name="Path 39" d="M276.06,1731.857l-1.432,1.432a8.529,8.529,0,1,0-2.106,13.138l-1.237-2.172A6.039,6.039,0,1,1,274.34,1739h2.5a8.476,8.476,0,0,0-.8-3.589l1.789-1.789Z" fill="#3d8fa0"/>
  </g>
</svg>
