<svg id="Group_839" data-name="Group 839" xmlns="http://www.w3.org/2000/svg" xmlns:xlink="http://www.w3.org/1999/xlink" width="63.591" height="50" viewBox="0 0 63.591 50">
  <defs>
    <clipPath id="clip-path">
      <rect id="Rectangle_1066" data-name="Rectangle 1066" width="63.591" height="50" fill="#3d8fa0"/>
    </clipPath>
  </defs>
  <g id="Group_836" data-name="Group 836" clip-path="url(#clip-path)">
    <path id="Path_250" data-name="Path 250" d="M3.576,39.73v-.86q0-15.936,0-31.872A6.755,6.755,0,0,1,9.149.111a7.818,7.818,0,0,1,1.43-.105Q31.772,0,52.966.007a6.673,6.673,0,0,1,6.825,5.225,8.874,8.874,0,0,1,.2,2.006Q60,23.01,59.995,38.782v.948c.813,0,1.587,0,2.361,0,.945.007,1.264.337,1.234,1.262a9.24,9.24,0,0,1-9.019,8.969c-3.852.067-7.706.022-11.56.023q-16.654,0-33.308,0A9.079,9.079,0,0,1,.786,44.363,12.743,12.743,0,0,1,.02,40.892C-.1,40.082.3,39.743,1.129,39.732c.781-.01,1.562,0,2.447,0M58.069,39.7v-.659q0-16,0-32.007a4.815,4.815,0,0,0-5.114-5.119q-21.164-.015-42.328,0a4.825,4.825,0,0,0-5.1,5.139q0,15.971,0,31.942c0,.23.019.46.03.7Zm3.468,1.983H2c.026.2.036.345.066.49a7.42,7.42,0,0,0,7.577,5.9q22.139.007,44.277,0a12.575,12.575,0,0,0,1.368-.076,7.3,7.3,0,0,0,6.248-6.307" transform="translate(0 0)" fill="#3d8fa0"/>
    <path id="Path_251" data-name="Path 251" d="M81.279,63.35H58.424c-1.238,0-1.479-.243-1.479-1.49q0-14.562,0-29.125,0-3.322,3.336-3.321h41.99c2.222,0,3.341,1.108,3.341,3.317q0,14.595,0,29.19c0,1.161-.265,1.428-1.411,1.428H81.279M58.85,61.37h44.855v-.687q0-13.943,0-27.885c0-1.191-.261-1.446-1.464-1.446h-41.8c-1.386,0-1.595.206-1.595,1.576q0,13.812,0,27.624v.818" transform="translate(-49.489 -25.563)" fill="#3d8fa0"/>
    <path id="Path_252" data-name="Path 252" d="M283.021,337.256c-2.74,0-5.481,0-8.221,0-.576,0-1.048-.132-1.189-.765a.9.9,0,0,1,.8-1.121,4.772,4.772,0,0,1,.651-.022h15.92c.152,0,.3,0,.457,0,.659.033,1.079.427,1.056.987a.955.955,0,0,1-1.063.909c-2.806.009-5.611,0-8.417,0" transform="translate(-237.772 -291.451)" fill="#3d8fa0"/>
    <path id="Path_253" data-name="Path 253" d="M118.309,337.322a.944.944,0,1,1-.035-1.886.943.943,0,1,1,.035,1.886" transform="translate(-101.97 -291.525)" fill="#3d8fa0"/>
    <path id="Path_254" data-name="Path 254" d="M76.029,335.443a.943.943,0,1,1-.988.9.92.92,0,0,1,.988-.9" transform="translate(-65.217 -291.531)" fill="#3d8fa0"/>
    <path id="Path_255" data-name="Path 255" d="M160.869,337.335a.942.942,0,1,1,.916-.972.921.921,0,0,1-.916.972" transform="translate(-138.965 -291.538)" fill="#3d8fa0"/>
    <path id="Path_256" data-name="Path 256" d="M278.429,84.46c0,.7.011,1.39,0,2.085a.975.975,0,0,1-1.091,1.088q-2.085.023-4.171,0a.984.984,0,0,1-1.087-1.1q-.03-2.085,0-4.171a.983.983,0,0,1,1.1-1.091q2.085-.028,4.171,0a.98.98,0,0,1,1.078,1.1c.013.695,0,1.39,0,2.085m-4.407,1.179h2.426v-2.39h-2.426Z" transform="translate(-236.447 -70.619)" fill="#3d8fa0"/>
    <path id="Path_257" data-name="Path 257" d="M275.27,188.957c.673,0,1.347-.007,2.02,0,.771.011,1.125.35,1.131,1.107q.017,2.085,0,4.17a.95.95,0,0,1-1.04,1.069c-1.411.024-2.823.022-4.235,0a.952.952,0,0,1-1.07-1.047q-.037-2.117,0-4.235c.012-.726.38-1.055,1.112-1.066.695-.011,1.39,0,2.085,0m1.168,1.993h-2.392v2.423h2.392Z" transform="translate(-236.443 -164.219)" fill="#3d8fa0"/>
    <path id="Path_258" data-name="Path 258" d="M165.785,84.447c0-.695-.011-1.39,0-2.085s.338-1.077,1.018-1.088q2.149-.037,4.3,0a.93.93,0,0,1,1,1.035q.026,2.15,0,4.3a.932.932,0,0,1-1.016,1.021q-2.15.03-4.3,0a.935.935,0,0,1-1-1.032c-.017-.716,0-1.433,0-2.15m1.974,1.2h2.4v-2.4h-2.4Z" transform="translate(-144.078 -70.619)" fill="#3d8fa0"/>
    <path id="Path_259" data-name="Path 259" d="M195.319,87.092V82.538c0-.717-.008-1.435,0-2.152.01-.672.375-1.1.93-1.118.582-.02.989.416,1,1.12.016.907,0,1.814,0,2.789.6,0,1.138-.011,1.676,0a.968.968,0,1,1,.026,1.926c-.538.023-1.078,0-1.7,0,0,.895,0,1.735,0,2.575,0,1.013-.319,1.333-1.323,1.336-1.456,0-2.913,0-4.369,0a.99.99,0,0,1-1.134-.843c-.1-.617.344-1.077,1.067-1.084,1.238-.012,2.476,0,3.822,0" transform="translate(-165.489 -68.89)" fill="#3d8fa0"/>
    <path id="Path_260" data-name="Path 260" d="M145.112,197.061h5.443c.2,0,.392-.008.587,0a.974.974,0,0,1,1.024.958.96.96,0,0,1-1.014.969c-.848.026-1.7.009-2.545.009-1.371,0-2.741,0-4.112,0-.98,0-1.316-.324-1.318-1.276q-.009-3.231,0-6.462c0-.812.379-1.273,1-1.255.594.017.934.461.935,1.245,0,1.91,0,3.821,0,5.81" transform="translate(-124.43 -165.132)" fill="#3d8fa0"/>
    <path id="Path_261" data-name="Path 261" d="M280.844,197.054c0-1.886,0-3.67,0-5.453,0-.2-.008-.392,0-.587a.978.978,0,0,1,.967-1.017.932.932,0,0,1,.953.961q.033,3.525,0,7.05a.931.931,0,0,1-1.012.975q-3.46.024-6.92,0a.967.967,0,1,1,.012-1.926c1.741-.013,3.482,0,5.223-.005h.775" transform="translate(-237.949 -165.125)" fill="#3d8fa0"/>
    <path id="Path_262" data-name="Path 262" d="M145.272,61.333c0,1.645,0,3.228,0,4.81,0,.457.028.917-.017,1.37a.891.891,0,0,1-.9.869.823.823,0,0,1-.972-.763q-.062-3.717,0-7.436c.009-.512.47-.776.98-.778,2.307-.011,4.613-.016,6.92,0a.965.965,0,1,1-.029,1.922c-1.741.011-3.482,0-5.223,0h-.763" transform="translate(-124.59 -51.619)" fill="#3d8fa0"/>
    <path id="Path_263" data-name="Path 263" d="M280.843,61.338H275.39c-.2,0-.392.008-.587,0a.974.974,0,0,1-1.014-.966.929.929,0,0,1,.961-.951q3.525-.034,7.05,0a.929.929,0,0,1,.973,1.014q.024,3.46,0,6.92a.966.966,0,1,1-1.925-.018c-.012-1.741,0-3.482,0-5.222v-.773" transform="translate(-237.948 -51.625)" fill="#3d8fa0"/>
    <path id="Path_264" data-name="Path 264" d="M271.22,140.552c0-.781,0-1.474,0-2.166,0-.9.321-1.347.956-1.358s.974.439.976,1.325c0,.711,0,1.422,0,2.2.584,0,1.1-.008,1.616,0a.985.985,0,0,1,1.094.951.974.974,0,0,1-1.03.96q-2.641.034-5.282,0a.927.927,0,0,1-1.005-.967c0-.586.39-.93,1.083-.943.5-.009.993,0,1.591,0" transform="translate(-233.392 -119.09)" fill="#3d8fa0"/>
    <path id="Path_265" data-name="Path 265" d="M221.455,157.612c-.858,0-1.595.008-2.332,0-.709-.01-1.149-.4-1.133-.973.015-.555.433-.914,1.115-.926.753-.013,1.507,0,2.354,0,0-.442-.021-.806,0-1.166a.928.928,0,0,1,.958-.94.911.911,0,0,1,.927.965q.028,2.085,0,4.17a.9.9,0,0,1-.916.973.918.918,0,0,1-.975-.981c-.019-.341,0-.684,0-1.118" transform="translate(-189.454 -133.495)" fill="#3d8fa0"/>
    <path id="Path_266" data-name="Path 266" d="M167.852,173.585c0-.931-.007-1.754,0-2.577.008-.771.32-1.156.924-1.172.628-.016.972.388.977,1.182.008,1.109.011,2.219,0,3.328-.009.819-.334,1.134-1.153,1.145-.565.008-1.132.015-1.7-.005a.949.949,0,1,1-.066-1.9c.3-.029.6,0,1.014,0" transform="translate(-144.202 -147.603)" fill="#3d8fa0"/>
    <path id="Path_267" data-name="Path 267" d="M164.909,137.314c.932.248,1.283.727,1.05,1.368-.2.554-.865.761-2.018.627a.955.955,0,0,1-.955-.964c-.03-.737-.028-1.476,0-2.213a.959.959,0,0,1,.941-.971.972.972,0,0,1,.977.941c.032.387.006.779.006,1.212" transform="translate(-141.632 -117.468)" fill="#3d8fa0"/>
    <path id="Path_268" data-name="Path 268" d="M217.869,200.549c0-.391-.017-.782,0-1.171a.94.94,0,0,1,.933-.972.893.893,0,0,1,.968.862,21.991,21.991,0,0,1,0,2.6.905.905,0,0,1-.957.88.961.961,0,0,1-.95-.962c0-.043,0-.087,0-.13q0-.553,0-1.107Z" transform="translate(-189.343 -172.433)" fill="#3d8fa0"/>
    <path id="Path_269" data-name="Path 269" d="M245.782,209.853c0-.369-.017-.74,0-1.108a.892.892,0,0,1,.881-.943.846.846,0,0,1,1,.8,17.591,17.591,0,0,1,0,2.537.862.862,0,0,1-.992.825.9.9,0,0,1-.894-.94c-.02-.39,0-.782,0-1.173" transform="translate(-213.602 -180.596)" fill="#3d8fa0"/>
    <path id="Path_270" data-name="Path 270" d="M182.1,218.237c-.391,0-.783.022-1.172-.006a.887.887,0,0,1-.907-.918.853.853,0,0,1,.853-.96,21.377,21.377,0,0,1,2.473,0,.849.849,0,0,1,.841.969.883.883,0,0,1-.915.908c-.389.025-.781,0-1.172,0" transform="translate(-156.458 -188.002)" fill="#3d8fa0"/>
  </g>
</svg>
