<svg xmlns="http://www.w3.org/2000/svg" width="530" height="530" viewBox="0 0 530 530">
  <g id="Group_23" data-name="Group 23" transform="translate(-1322 -3357)">
    <rect id="Rectangle_23" data-name="Rectangle 23" width="530" height="530" transform="translate(1322 3357)" fill="#3d8fa0"/>
    <g id="Icon_feather-image" data-name="Icon feather-image" transform="translate(1543.025 3578.025)">
      <path id="Path_17" data-name="Path 17" d="M15.293,3H72.658A12.306,12.306,0,0,1,84.95,15.293V72.658A12.306,12.306,0,0,1,72.658,84.95H15.293A12.306,12.306,0,0,1,3,72.658V15.293A12.306,12.306,0,0,1,15.293,3ZM72.658,76.755a4.1,4.1,0,0,0,4.1-4.1V15.293a4.1,4.1,0,0,0-4.1-4.1H15.293a4.1,4.1,0,0,0-4.1,4.1V72.658a4.1,4.1,0,0,0,4.1,4.1Z" transform="translate(0 0)" fill="#fff"/>
      <path id="Path_18" data-name="Path 18" d="M19.244,9A10.244,10.244,0,1,1,9,19.244,10.255,10.255,0,0,1,19.244,9Zm0,12.293A2.049,2.049,0,1,0,17.2,19.244,2.051,2.051,0,0,0,19.244,21.293Z" transform="translate(10.39 10.39)" fill="#fff"/>
      <path id="Path_19" data-name="Path 19" d="M10.1,66.768a4.1,4.1,0,0,1-2.9-6.995L52.273,14.7a4.1,4.1,0,0,1,5.795,0L78.555,35.188a4.1,4.1,0,0,1-5.795,5.795L55.17,23.392,12.995,65.567A4.085,4.085,0,0,1,10.1,66.768Z" transform="translate(5.195 18.183)" fill="#fff"/>
    </g>
  </g>
</svg>
