<svg id="Group_1085" data-name="Group 1085" xmlns="http://www.w3.org/2000/svg" xmlns:xlink="http://www.w3.org/1999/xlink" width="52.95" height="60" viewBox="0 0 52.95 60">
  <defs>
    <clipPath id="clip-path">
      <rect id="Rectangle_1127" data-name="Rectangle 1127" width="52.95" height="60" fill="#3d8fa0"/>
    </clipPath>
  </defs>
  <g id="Group_1084" data-name="Group 1084" clip-path="url(#clip-path)">
    <path id="Path_336" data-name="Path 336" d="M12.288,60c-.33-.1-.663-.2-.99-.309a5.592,5.592,0,0,1-3.774-5.557q-.01-11.014,0-22.029c0-.762-.018-1.524.008-2.285a.55.55,0,0,0-.45-.62A10.221,10.221,0,0,1,.151,21.33a8.86,8.86,0,0,1-.142-.985A.915.915,0,0,1,.78,19.231c.517-.058.9.306.973.932A8.366,8.366,0,0,0,7.11,27.328a8.745,8.745,0,0,0,3.006.646c2.516.091,5.038.032,7.558.033.073,0,.147-.014.4-.04-.369-.343-.656-.593-.923-.862a1.514,1.514,0,0,1-.141-2.365A8.552,8.552,0,1,0,2.47,15.971c-.055.125-.1.255-.159.377a.87.87,0,0,1-1.183.54.872.872,0,0,1-.433-1.225,10.135,10.135,0,0,1,4.847-5.348,8.307,8.307,0,0,1,1.453-.609.63.63,0,0,0,.538-.737c-.031-1.034-.015-2.07-.009-3.1A5.59,5.59,0,0,1,13.429,0Q26.467,0,39.5,0a5.547,5.547,0,0,1,5.873,5.821q.02,6.65,0,13.3a1.267,1.267,0,0,1-.151.776,1.132,1.132,0,0,1-.825.379,1.225,1.225,0,0,1-.7-.581,1.516,1.516,0,0,1-.076-.744c0-4.394,0-8.788-.006-13.182a3.781,3.781,0,0,0-3.185-3.954,4.941,4.941,0,0,0-.875-.055q-13.1,0-26.193,0a3.828,3.828,0,0,0-4.084,4.06c-.008,1.09,0,2.18,0,3.3h1.758c0-.819-.012-1.631.005-2.441a5.582,5.582,0,0,1,.121-1.277,2.568,2.568,0,0,1,2.419-1.881q1.669-.038,3.34,0a1.8,1.8,0,0,1,1.8,1.665c.088.673.261.85.936.851q6.8.009,13.594,0c.677,0,.865-.189.946-.849a1.811,1.811,0,0,1,1.853-1.67c1.074-.013,2.149-.019,3.223,0a2.6,2.6,0,0,1,2.578,2.519c.014.253.01.508.01.762q0,11.307,0,22.615v.792h1.73c.009-.189.027-.4.027-.6,0-1.914-.007-3.828.01-5.741a1.261,1.261,0,0,1,.21-.815,1.088,1.088,0,0,1,.858-.295c.254.06.491.385.636.648a1.56,1.56,0,0,1,.043.692c0,1.992.013,3.984-.009,5.976a.608.608,0,0,0,.508.695,10.267,10.267,0,0,1,.042,19.5.679.679,0,0,0-.551.787c.028,1.19.036,2.383-.008,3.573A5.493,5.493,0,0,1,40.806,59.9a1.8,1.8,0,0,0-.271.1ZM34.572,47.009c-.154-.221-.231-.333-.31-.444a10.269,10.269,0,0,1,5.07-15.756.971.971,0,0,0,.789-1.137c-.023-7.634-.015-15.269-.015-22.9,0-.215.005-.43-.01-.644a.8.8,0,0,0-.812-.834c-1.09-.032-2.182-.01-3.265-.01-.43,1.812-1.169,2.512-2.735,2.516q-6.825.02-13.651,0a2.481,2.481,0,0,1-2.627-2.033c-.03-.148-.046-.3-.074-.489-1.034,0-2.047-.005-3.059,0-.749.005-1.06.313-1.073,1.074-.013.82.029,1.642-.016,2.459-.028.5.153.689.627.833a10.3,10.3,0,0,1,7.006,11.711A10.894,10.894,0,0,1,18.351,25.9c.524.5,1.033.984,1.539,1.47a1.3,1.3,0,0,1,.37,1.54,1.35,1.35,0,0,1-1.388.865c-1.523-.011-3.047,0-4.57,0H12.825c-.011.257-.027.448-.027.639q0,11.51,0,23.021c0,1.056.25,1.3,1.321,1.3H38.784c.176,0,.39.059.519-.02.278-.17.714-.4.731-.628.078-1.057.034-2.122.034-3.219-1.774,0-3.49.006-5.206,0-.842,0-1.8.2-2.217-.847s.411-1.562,1-2.161c.287-.292.605-.551.927-.84m.3,2.009a2.044,2.044,0,0,0,.306.08c2.6,0,5.194.058,7.788-.019a8.549,8.549,0,0,0,1.768-16.834A8.522,8.522,0,0,0,34.9,36.941a8.3,8.3,0,0,0,.974,8.832c.744,1.021.728,1.6-.172,2.5-.243.241-.508.459-.829.748m7,1.857c0,.952.007,1.865,0,2.778A2.634,2.634,0,0,1,39,56.484q-12.536,0-25.072,0a3.7,3.7,0,0,1-.756-.056,2.668,2.668,0,0,1-2.13-2.881q0-11.509,0-23.018v-.75H9.281v.612q0,11.831,0,23.662a6.821,6.821,0,0,0,.037.76,3.759,3.759,0,0,0,3.741,3.423q13.414.02,26.829,0a3.593,3.593,0,0,0,3.615-2.995,34.094,34.094,0,0,0,.038-4.364Z" transform="translate(0 0)" fill="#3d8fa0"/>
    <path id="Path_337" data-name="Path 337" d="M84.269,10.787A.86.86,0,0,1,85.237,10a.842.842,0,0,1,.758.93.875.875,0,0,1-.9.807.894.894,0,0,1-.825-.949" transform="translate(-58.679 -6.96)" fill="#3d8fa0"/>
    <path id="Path_338" data-name="Path 338" d="M20.274,61.226A.862.862,0,0,1,20.3,62.95a.862.862,0,1,1-.029-1.724" transform="translate(-13.522 -42.634)" fill="#3d8fa0"/>
    <path id="Path_339" data-name="Path 339" d="M32.729,62.061a.838.838,0,0,1-.862.89.862.862,0,1,1,0-1.724.834.834,0,0,1,.86.834" transform="translate(-21.585 -42.635)" fill="#3d8fa0"/>
    <path id="Path_340" data-name="Path 340" d="M42.575,62.042a.865.865,0,0,1,.943-.816.862.862,0,0,1-.145,1.718.861.861,0,0,1-.8-.9" transform="translate(-29.646 -42.633)" fill="#3d8fa0"/>
    <path id="Path_341" data-name="Path 341" d="M78.972,80.658q3.105,0,6.211,0c.727,0,1.148.331,1.143.884s-.424.872-1.156.872q-6.269,0-12.538,0c-.672,0-1.051-.282-1.1-.8-.055-.572.356-.956,1.055-.958,2.129-.005,4.258,0,6.386,0" transform="translate(-49.807 -56.165)" fill="#3d8fa0"/>
    <path id="Path_342" data-name="Path 342" d="M78.937,93.991H72.785a2.477,2.477,0,0,1-.525-.021.872.872,0,0,1,.027-1.72,2.131,2.131,0,0,1,.409-.015h12.48c.078,0,.156,0,.234,0a.879.879,0,1,1-.028,1.752c-.507.015-1.015,0-1.523,0H78.937" transform="translate(-49.82 -64.225)" fill="#3d8fa0"/>
    <path id="Path_343" data-name="Path 343" d="M61.561,151.882q-3.135,0-6.269,0c-.732,0-1.143-.322-1.142-.88s.411-.875,1.146-.876q6.269,0,12.538,0c.692,0,1.1.316,1.117.85.02.554-.4.9-1.12.906q-3.135,0-6.269,0" transform="translate(-37.706 -104.538)" fill="#3d8fa0"/>
    <path id="Path_344" data-name="Path 344" d="M61.6,161.7q3.105,0,6.21,0c.727,0,1.148.332,1.143.884s-.424.872-1.156.872q-6.269,0-12.538,0c-.672,0-1.051-.282-1.1-.8-.055-.571.356-.955,1.056-.957,2.128-.005,4.258,0,6.386,0" transform="translate(-37.712 -112.599)" fill="#3d8fa0"/>
    <path id="Path_345" data-name="Path 345" d="M83.841,70.839q-2.7,0-5.39,0c-.732,0-1.143-.322-1.142-.88s.411-.875,1.146-.876q5.39,0,10.78,0c.692,0,1.1.316,1.117.85.02.554-.405.9-1.12.906q-2.7.005-5.39,0" transform="translate(-53.833 -48.104)" fill="#3d8fa0"/>
    <path id="Path_346" data-name="Path 346" d="M60.663,140.3q-2.7,0-5.39,0c-.723,0-1.135-.338-1.12-.9.014-.539.413-.854,1.107-.854q5.42,0,10.839,0c.682,0,1.093.335,1.1.87s-.408.883-1.084.884c-1.816,0-3.633,0-5.449,0" transform="translate(-37.709 -96.475)" fill="#3d8fa0"/>
    <path id="Path_347" data-name="Path 347" d="M126.825,132.415a.862.862,0,1,1-.008-1.724.862.862,0,0,1,.008,1.724" transform="translate(-87.705 -91.006)" fill="#3d8fa0"/>
    <path id="Path_348" data-name="Path 348" d="M139.261,131.526a.839.839,0,0,1-.862.89.862.862,0,1,1,0-1.724.834.834,0,0,1,.86.834" transform="translate(-95.767 -91.007)" fill="#3d8fa0"/>
    <path id="Path_349" data-name="Path 349" d="M150.84,131.526a.839.839,0,0,1-.862.89.862.862,0,1,1,0-1.724.835.835,0,0,1,.86.834" transform="translate(-103.83 -91.007)" fill="#3d8fa0"/>
  </g>
</svg>
