<svg xmlns="http://www.w3.org/2000/svg" width="44.621" height="58.501" viewBox="0 0 44.621 58.501">
  <g id="Group_516" data-name="Group 516" transform="translate(-1003 -2439)">
    <g id="Group_492" data-name="Group 492">
      <g id="Group_491" data-name="Group 491">
        <path id="Path_126" data-name="Path 126" d="M1026.571,2439a28.959,28.959,0,0,1,4.095.948,15.77,15.77,0,0,1,10.657,13.659c.083.678.044,1.369.1,2.051a26.2,26.2,0,0,1,.3,3.612c-.135,2.156-.315,4.3-.345,6.471a3,3,0,0,1-2.829,2.872c-1.154.092-2.321.021-3.48.071a1.359,1.359,0,0,0-.758.35c-.859.746-1.694,1.52-2.526,2.3a.841.841,0,0,0-.3.48c-.028.987-.014,1.976-.014,3,1.369.406,2.714.8,4.055,1.205a31.113,31.113,0,0,1,6.287,2.515,10.875,10.875,0,0,1,5.142,5.377,9.584,9.584,0,0,1,.673,3.624q0,4.284,0,8.568c0,.994-.4,1.393-1.379,1.394h-28.218c-.831,0-1.362-.44-1.377-1.121-.015-.7.531-1.159,1.392-1.163.722,0,1.444,0,2.22,0,.314-1.36.626-2.7.934-4.05.255-1.111.528-2.22.747-3.339a2.7,2.7,0,0,0-.028-1.108c-.26-1.109-.571-2.206-.885-3.392l-1.056.686a1.182,1.182,0,0,1-1.932-.491c-.883-1.7-1.753-3.413-2.657-5.176-.335.1-.655.2-.972.3a22.182,22.182,0,0,0-5.483,2.5,7.482,7.482,0,0,0-3.643,6.8c.06,2.188.011,4.379.011,6.569v.693c.7,0,1.36,0,2.02,0,.85,0,1.341.426,1.34,1.14s-.491,1.138-1.338,1.142c-1.009,0-2.018.009-3.028,0a1.13,1.13,0,0,1-1.274-1.265c-.008-2.97-.025-5.941.007-8.911a9.416,9.416,0,0,1,4.483-7.966,27.222,27.222,0,0,1,7.6-3.328q1.8-.555,3.613-1.055a.534.534,0,0,0,.463-.634c-.031-.78-.028-1.562,0-2.342a.768.768,0,0,0-.4-.734,11.313,11.313,0,0,1-4.67-6.675c-.11-.435-.316-.5-.708-.507-2.263-.014-3.955-1.156-4.347-3.11a13.57,13.57,0,0,1-.065-3.059c.027-.865.209-1.727.219-2.592a16.2,16.2,0,0,1,14.414-16.22c.149-.019.295-.064.442-.1Zm4.714,29.668h-.617c-1.636,0-3.273,0-4.909,0a3.154,3.154,0,0,1-.791-.078,1.12,1.12,0,0,1,.156-2.178,4.507,4.507,0,0,1,.627-.024c2.378,0,4.757-.008,7.135.006a.625.625,0,0,0,.7-.431,8.763,8.763,0,0,0,.728-2.025c.179-1.886.219-3.786.29-5.682a.627.627,0,0,0-.289-.43c-1.016-.634-2.028-1.277-3.075-1.855a4.44,4.44,0,0,0-3.958-.217c-1.2.477-2.414.919-3.623,1.373a19.959,19.959,0,0,1-7.24,1.379,1.647,1.647,0,0,0-.307.042,30.494,30.494,0,0,0,.035,4.54,9.172,9.172,0,0,0,9.911,7.894A8.077,8.077,0,0,0,1031.285,2468.668Zm3.986,9.67c-.108.2-.2.361-.287.527q-1.161,2.258-2.32,4.515c-.54,1.049-1.144,1.206-2.107.557-.3-.2-.593-.394-.95-.632a22.857,22.857,0,0,0-.97,3.918,11.437,11.437,0,0,0,.6,3.058c.065.3.135.593.2.889.311,1.344.622,2.687.925,4h14.967c0-2.631.011-5.219,0-7.807a6.873,6.873,0,0,0-2.508-5.355A20.533,20.533,0,0,0,1035.271,2478.338Zm-.675-23.071c0-.237,0-.369,0-.5a9.31,9.31,0,0,0-18.6.953c.011.418.163.537.54.5a21.037,21.037,0,0,0,3.445-.4,65.315,65.315,0,0,0,6.2-2.108,7.27,7.27,0,0,1,6.718.549C1033.436,2454.571,1033.969,2454.893,1034.6,2455.267Zm-20.89-.741a11.677,11.677,0,0,1,11.112-10.824,11.225,11.225,0,0,1,7.333,2.235,11.572,11.572,0,0,1,4.751,8.62c.4.024.759.029,1.116.071s.706.122,1.128.2c-.3-5.1-2.486-9.118-6.921-11.642a13.155,13.155,0,0,0-14.989.755,13.357,13.357,0,0,0-5.738,10.839Zm14.308,40.668c-.5-2.208-.981-4.356-1.49-6.5a.585.585,0,0,0-.439-.3c-.453-.04-.913.011-1.367-.021-.414-.03-.6.1-.683.53-.219,1.117-.5,2.222-.756,3.333-.221.973-.434,1.947-.657,2.952Zm1.159-22.541a12.031,12.031,0,0,1-7.722,0c0,.77-.014,1.453.011,2.135a.6.6,0,0,0,.237.406c1.11.766,2.227,1.524,3.359,2.258a.6.6,0,0,0,.536-.011c1.1-.714,2.183-1.453,3.264-2.2.129-.088.295-.241.3-.37C1029.188,2474.164,1029.173,2473.448,1029.173,2472.653ZM1025.3,2486.1a4.673,4.673,0,0,0,.854-.014.609.609,0,0,0,.415-.322c.337-1.168.647-2.344.939-3.524a.535.535,0,0,0-.163-.453c-.567-.416-1.15-.813-1.75-1.179a.626.626,0,0,0-.544-.011c-.6.364-1.185.759-1.749,1.179a.592.592,0,0,0-.176.5c.211.906.463,1.8.7,2.7C1024.123,2486.1,1024.122,2486.1,1025.3,2486.1Zm-2.031-7.075c-1.034-.7-1.99-1.346-2.951-1.986a.44.44,0,0,0-.312-.082c-.789.226-1.573.471-2.4.722l1.971,3.835Zm7.784,2.489,1.966-3.84c-.816-.248-1.572-.482-2.333-.7a.433.433,0,0,0-.319.035c-.994.656-1.98,1.323-3.009,2.016Zm-17.38-19.765v-4.828c-1.658-.19-2.513.562-2.516,2.163v.512A1.966,1.966,0,0,0,1013.675,2461.749Zm23.278-4.808v4.789c1.628.216,2.51-.536,2.515-2.1,0-.228,0-.456,0-.685A1.928,1.928,0,0,0,1036.953,2456.941Zm-.972,9.434c.776,0,1.495.022,2.212-.007a.889.889,0,0,0,.927-.89c.035-.541.007-1.086.007-1.567-.719.056-1.4.093-2.067.172a.614.614,0,0,0-.442.279C1036.386,2465,1036.2,2465.65,1035.981,2466.375Z" fill="#3d8fa0"/>
        <path id="Path_127" data-name="Path 127" d="M1013.786,2496.359a1.124,1.124,0,0,1-1.1,1.135,1.139,1.139,0,1,1,.008-2.278A1.125,1.125,0,0,1,1013.786,2496.359Z" fill="#3d8fa0"/>
        <path id="Path_128" data-name="Path 128" d="M1037.943,2489.5c.912,0,1.825-.006,2.738,0a1.15,1.15,0,1,1-.005,2.281q-2.739.009-5.477,0a1.146,1.146,0,1,1,.005-2.28C1036.117,2489.493,1037.03,2489.5,1037.943,2489.5Z" fill="#3d8fa0"/>
      </g>
    </g>
  </g>
</svg>
