<svg xmlns="http://www.w3.org/2000/svg" viewBox="0 0 66.17 70.48"><defs><style>.cls-1{fill:#fff;stroke:#fff;stroke-width:0.5px;}</style></defs><g id="Layer_2" data-name="Layer 2"><g id="Layer_1-2" data-name="Layer 1"><path id="Path_92" data-name="Path 92" class="cls-1" d="M39.29,54.33a22,22,0,0,0,2.07-.86.39.39,0,0,1,.38,0L45.57,56a2.14,2.14,0,0,0,2.67-.28L53,50.89a2.13,2.13,0,0,0,.28-2.67l-2.47-3.83a.37.37,0,0,1,0-.38,20.64,20.64,0,0,0,.87-2.07.39.39,0,0,1,.28-.26l4.45-1a2.15,2.15,0,0,0,1.69-2.09V31.86a2.14,2.14,0,0,0-1.69-2.09L52,28.82a.42.42,0,0,1-.29-.26,17.72,17.72,0,0,0-.86-2.07.37.37,0,0,1,0-.38l2.47-3.83A2.15,2.15,0,0,0,53,19.61l-4.8-4.79a2.12,2.12,0,0,0-2.66-.28L41.74,17a.4.4,0,0,1-.38,0,19.7,19.7,0,0,0-2.07-.87.39.39,0,0,1-.26-.28l-1-4.45A2.13,2.13,0,0,0,36,9.75H29.21a2.15,2.15,0,0,0-2.09,1.69l-.95,4.45a.39.39,0,0,1-.26.28,18.85,18.85,0,0,0-2.07.87.4.4,0,0,1-.38,0l-3.83-2.47a2.14,2.14,0,0,0-2.67.28l-4.79,4.79a2.13,2.13,0,0,0-.28,2.67l2.47,3.83a.35.35,0,0,1,0,.38,22,22,0,0,0-.86,2.07.39.39,0,0,1-.28.26l-4.45.95A2.15,2.15,0,0,0,7.1,31.86v6.78a2.13,2.13,0,0,0,1.69,2.08l4.45,1a.39.39,0,0,1,.28.26c.25.7.54,1.39.86,2.07a.35.35,0,0,1,0,.38l-2.47,3.83a2.12,2.12,0,0,0,.28,2.66L17,55.68a2.14,2.14,0,0,0,2.67.28l3.83-2.47a.37.37,0,0,1,.38,0,17.72,17.72,0,0,0,2.07.86.42.42,0,0,1,.26.29l.95,4.45a2.15,2.15,0,0,0,2.09,1.69H36a2.13,2.13,0,0,0,2.08-1.69l1-4.44A.38.38,0,0,1,39.29,54.33Zm-1.41-.39-1,4.5a.39.39,0,0,1-.38.31H29.67a.39.39,0,0,1-.38-.31l-1-4.52a2.15,2.15,0,0,0-1.38-1.56,19.12,19.12,0,0,1-1.93-.8,2.16,2.16,0,0,0-.94-.22,2.19,2.19,0,0,0-1.16.35L19,54.19a.39.39,0,0,1-.49,0l-4.84-4.85a.38.38,0,0,1-.06-.49l2.51-3.87a2.14,2.14,0,0,0,.13-2.08c-.3-.63-.57-1.29-.81-2a2.13,2.13,0,0,0-1.56-1.36l-4.51-1a.39.39,0,0,1-.31-.38V31.32a.4.4,0,0,1,.31-.39l4.51-1a2.14,2.14,0,0,0,1.56-1.38,20.56,20.56,0,0,1,.81-1.95,2.14,2.14,0,0,0-.13-2.08l-2.51-3.87a.38.38,0,0,1,.06-.49l4.84-4.85a.39.39,0,0,1,.49,0l3.88,2.5a2.12,2.12,0,0,0,2.08.14A16.67,16.67,0,0,1,27,17.13a2.12,2.12,0,0,0,1.37-1.56l1-4.52a.38.38,0,0,1,.38-.3h6.86a.39.39,0,0,1,.38.3l1,4.52a2.12,2.12,0,0,0,1.37,1.56,16.67,16.67,0,0,1,2,.81,2.12,2.12,0,0,0,2.08-.14l3.87-2.5a.39.39,0,0,1,.49,0l4.85,4.85a.38.38,0,0,1,0,.49L50,24.56a2.14,2.14,0,0,0-.14,2.08,19.77,19.77,0,0,1,.82,2A2.13,2.13,0,0,0,52.28,30l4.51,1a.39.39,0,0,1,.31.38v6.86a.39.39,0,0,1-.31.38l-4.51,1a2.12,2.12,0,0,0-1.56,1.38c-.24.66-.51,1.31-.81,1.94A2.14,2.14,0,0,0,50,44.92l2.51,3.88a.4.4,0,0,1-.06.49l-4.84,4.85a.39.39,0,0,1-.49,0l-3.88-2.51a2.16,2.16,0,0,0-2.09-.13,19,19,0,0,1-1.92.8,2.14,2.14,0,0,0-1.39,1.59ZM48.05,35.18a15,15,0,1,0-15,15h0A15,15,0,0,0,48.05,35.18Zm-15,13.22A13.22,13.22,0,1,1,46.3,35.18h0A13.23,13.23,0,0,1,33.08,48.4ZM27.92,66.74a.87.87,0,0,1-.86.7H26.9a32.84,32.84,0,0,1-2.1-64L22.32,1.86A.86.86,0,0,1,22,.66a.87.87,0,0,1,1.2-.28h0l4.28,2.67a.88.88,0,0,1,.28,1.2L25.13,8.54a.89.89,0,0,1-.74.41.81.81,0,0,1-.46-.14.86.86,0,0,1-.28-1.2L25.21,5.1a31.09,31.09,0,0,0,2,60.61.88.88,0,0,1,.7,1ZM56.3,58.4a32.81,32.81,0,0,1-15,8.58l2.5,1.67a.87.87,0,0,1-1,1.45l-4.19-2.8a.87.87,0,0,1-.24-1.21l2.81-4.2a.87.87,0,0,1,1.44,1L41,65.24a31.09,31.09,0,0,0-2.1-60.59.87.87,0,0,1,.33-1.71,32.83,32.83,0,0,1,17,55.46ZM42.56,30,31,41.59a.87.87,0,0,1-1.23,0h0L23.6,35.44a.88.88,0,0,1,0-1.24.87.87,0,0,1,1.23,0h0l5.54,5.54,11-11A.87.87,0,0,1,42.56,30Z"/></g></g></svg>