<svg id="Group_1065" data-name="Group 1065" xmlns="http://www.w3.org/2000/svg" xmlns:xlink="http://www.w3.org/1999/xlink" width="54.268" height="60" viewBox="0 0 54.268 60">
  <defs>
    <clipPath id="clip-path">
      <rect id="Rectangle_1110" data-name="Rectangle 1110" width="54.267" height="60" fill="#3d8fa0"/>
    </clipPath>
  </defs>
  <g id="Group_1064" data-name="Group 1064" clip-path="url(#clip-path)">
    <path id="Path_290" data-name="Path 290" d="M33.652,0c1.761.752,2.114,1.294,2.114,3.247,0,2.168.017,4.337-.006,6.506a2.694,2.694,0,0,1-3.272,2.686A2.326,2.326,0,0,1,30.617,10.7a14.836,14.836,0,0,1-.326-1.549c-.153.14-.305.273-.451.413q-3.062,2.946-6.123,5.893a2.811,2.811,0,0,1-3.811.56c-.659-.34-1.333-.655-1.969-1.034a.64.64,0,0,0-.938.14Q10.947,21.261,4.866,27.366A2.726,2.726,0,0,1,2.44,28.393,2.691,2.691,0,0,1,.216,26.71a2.571,2.571,0,0,1,.4-2.7,5.81,5.81,0,0,1,.473-.519Q7.859,16.667,14.63,9.844c1.308-1.318,2.273-1.465,3.94-.605.711.366,1.414.75,2.14,1.085a.658.658,0,0,0,.589-.063c1.619-1.53,3.217-3.082,4.818-4.629a1.146,1.146,0,0,0,.116-.179c-.322-.051-.624-.077-.915-.148a2.384,2.384,0,0,1-1.972-2.242A2.757,2.757,0,0,1,24.933.242c.172-.078.342-.161.513-.242Zm.354,6.213c0-1.152.008-2.3,0-3.457-.007-.7-.268-.988-.94-.991q-3.457-.017-6.914,0a.945.945,0,1,0,.01,1.878c.683.014,1.367.01,2.051,0,.474-.006.905.054,1.123.554s-.061.85-.4,1.177q-3.463,3.33-6.919,6.669a1.113,1.113,0,0,1-1.476.2c-.959-.521-1.937-1.009-2.91-1.507-.865-.442-.978-.422-1.672.277Q9.163,17.849,2.374,24.691a4.122,4.122,0,0,0-.36.385.938.938,0,0,0,1.381,1.269c.145-.131.277-.275.415-.413q6.275-6.321,12.55-12.642c.605-.61.842-.646,1.6-.259.92.471,1.837.949,2.756,1.422.886.457,1.064.431,1.8-.273q3.907-3.756,7.811-7.517c.359-.345.708-.71,1.272-.455.524.237.541.708.535,1.193-.009.722-.007,1.445,0,2.168s.366,1.167.948,1.162.928-.437.932-1.178c.006-1.113,0-2.226,0-3.34" transform="translate(0)" fill="#3d8fa0"/>
    <path id="Path_291" data-name="Path 291" d="M12.6,44.075c-2.527.732-5.054,1.4-7.534,2.205a3.678,3.678,0,0,0-2.382,4.705c.261,1.04.541,2.076.8,3.117A.9.9,0,0,1,2.9,55.32a.9.9,0,0,1-1.1-.778c-.337-1.323-.7-2.641-.956-3.98A5.3,5.3,0,0,1,4.08,44.8c2.3-.8,4.647-1.473,7-2.089A18.224,18.224,0,0,0,15.4,40.8a.868.868,0,0,0,.3-.655c.022-2.442,0-4.885.019-7.326a3.371,3.371,0,0,1,2.767-3.62,13.073,13.073,0,0,1,3.957,0,3.415,3.415,0,0,1,2.781,3.621c.014.891,0,1.782,0,2.775a13.563,13.563,0,0,0,1.407-.766c.14-.1.185-.4.186-.614q.018-4.015,0-8.03a4.075,4.075,0,0,1,1.639-3.57,3.489,3.489,0,0,1,1.028-.543,7.349,7.349,0,0,1,3.935-.069,3.932,3.932,0,0,1,2.921,4.154q.009,8.7,0,17.409v.67c.087.038.121.069.152.066,1.438-.135,1.438-.136,1.438-1.555q0-12.514,0-25.028a4.048,4.048,0,0,1,2.235-3.94c1.94-.995,5.151-.454,6.4,1.059a3.888,3.888,0,0,1,.88,2.488c.013.82.019,1.641,0,2.461-.015.664-.346,1.012-.892,1-.518-.013-.828-.352-.846-.988-.021-.762,0-1.524-.011-2.286a2.207,2.207,0,0,0-2.425-2.387c-.488,0-.978-.013-1.465.008a2.149,2.149,0,0,0-2.057,1.827,3.922,3.922,0,0,0-.054.641q0,12.6,0,25.2c0,.134.012.267.023.506a9.044,9.044,0,0,0,.946-.505c1.583-1.108,3.166-2.217,4.719-3.366a1.113,1.113,0,0,0,.3-.8c.018-4.846.012-9.691.015-14.536a4.374,4.374,0,0,1,.048-.758.846.846,0,0,1,1.658.012,4.748,4.748,0,0,1,.042.759q0,6.506,0,13.013v.8c.375-.2.668-.364.971-.508a4.228,4.228,0,0,1,6.225,3.925,3.912,3.912,0,0,1-1.518,2.991q-4.845,4.026-9.738,7.995a14,14,0,0,1-5.839,2.42q-8.475,2.046-16.941,4.133c-.168.041-.331.1-.44.129a17.81,17.81,0,0,1-.212,2.4,4.907,4.907,0,0,1-3.551,3.853,57.381,57.381,0,0,1-6.267,1.444,5.278,5.278,0,0,1-6.206-3.907c-.412-1.382-.741-2.79-1.093-4.19-.167-.666.071-1.137.594-1.263.492-.117.921.18,1.091.807.352,1.3.68,2.6,1.022,3.906a3.684,3.684,0,0,0,4.666,2.862q2.544-.557,5.079-1.153a3.911,3.911,0,0,0,2.806-5.049c-1.764-4.775-3.563-9.537-5.349-14.3-.04-.105-.1-.2-.163-.348m1.675-.631,5.2,13.879a2.439,2.439,0,0,0,.245-.025q7.672-1.876,15.344-3.755c1.193-.292,2.384-.6,3.579-.881a9.806,9.806,0,0,0,4.009-1.968q4.529-3.718,9.054-7.441a2.492,2.492,0,0,0,.777-3.41,2.462,2.462,0,0,0-3.672-.645c-2.309,1.605-4.6,3.229-6.9,4.848a10.315,10.315,0,0,1-5.648,2.038c-2.361.077-4.726.053-7.09.042a1.935,1.935,0,0,1-1.99-1.338,1.985,1.985,0,0,1,.742-2.238c.416-.354.843-.7,1.272-1.036a6.865,6.865,0,0,0,2.46-4.072,1.677,1.677,0,0,0-1.437-2.09,2.679,2.679,0,0,0-1.38.349q-7.046,3.7-14.067,7.454c-.153.081-.3.173-.5.29m20.321.881v-.647q0-8.73,0-17.459a4.952,4.952,0,0,0-.036-.642,2.181,2.181,0,0,0-2.106-1.986c-.408-.027-.82-.011-1.23-.011a2.292,2.292,0,0,0-2.627,2.612q-.007,3.486,0,6.972c0,.191.017.381.027.607l.665-.141A3.447,3.447,0,0,1,33.4,37.582a12.181,12.181,0,0,1-.841,2.542,9.725,9.725,0,0,1-3.283,3.591c-.189.148-.382.292-.572.438l.121.172ZM17.505,39.6c.076.009.122.029.149.015,1.86-.979,3.722-1.957,5.574-2.953a.55.55,0,0,0,.234-.405c.016-1.228.041-2.458-.008-3.684a1.768,1.768,0,0,0-1.835-1.739c-.662-.016-1.325-.006-1.989,0-1.484,0-2.149.657-2.153,2.129q-.008,3.071,0,6.142c0,.169.018.338.028.5" transform="translate(-0.389 -6.807)" fill="#3d8fa0"/>
    <path id="Path_292" data-name="Path 292" d="M18.819,107.779a3.444,3.444,0,0,1-3.43-3.483,3.457,3.457,0,1,1,3.43,3.483m.014-1.759a1.7,1.7,0,0,0,1.712-1.7,1.73,1.73,0,0,0-1.723-1.7,1.708,1.708,0,0,0-1.674,1.681,1.678,1.678,0,0,0,1.685,1.714" transform="translate(-7.89 -51.715)" fill="#3d8fa0"/>
  </g>
</svg>
