<svg xmlns="http://www.w3.org/2000/svg" width="66.158" height="70.502" viewBox="0 0 66.158 70.502">
  <path id="Path_92" data-name="Path 92" d="M1398.688,1161.078a20.223,20.223,0,0,0,2.074-.861.389.389,0,0,1,.382.023l3.824,2.473a2.135,2.135,0,0,0,2.668-.283l4.791-4.792a2.131,2.131,0,0,0,.283-2.667l-2.472-3.826a.392.392,0,0,1-.023-.385,20.429,20.429,0,0,0,.861-2.073.39.39,0,0,1,.288-.255l4.45-.956a2.134,2.134,0,0,0,1.686-2.086v-6.778a2.135,2.135,0,0,0-1.687-2.087l-4.451-.956a.39.39,0,0,1-.288-.255,20.33,20.33,0,0,0-.861-2.075.39.39,0,0,1,.023-.381l2.473-3.826a2.134,2.134,0,0,0-.283-2.667l-4.791-4.792a2.135,2.135,0,0,0-2.668-.283l-3.825,2.473a.391.391,0,0,1-.382.023,19.954,19.954,0,0,0-2.074-.861.392.392,0,0,1-.255-.288l-.957-4.451a2.135,2.135,0,0,0-2.087-1.686h-6.775a2.134,2.134,0,0,0-2.087,1.686l-.957,4.451a.39.39,0,0,1-.256.288,20.133,20.133,0,0,0-2.074.861.389.389,0,0,1-.382-.023l-3.824-2.473a2.135,2.135,0,0,0-2.668.283l-4.791,4.792a2.131,2.131,0,0,0-.283,2.667l2.472,3.826a.386.386,0,0,1,.023.382,20.356,20.356,0,0,0-.86,2.074.391.391,0,0,1-.289.255l-4.45.956a2.135,2.135,0,0,0-1.686,2.087v6.776a2.135,2.135,0,0,0,1.686,2.087l4.45.956a.391.391,0,0,1,.289.255,20.036,20.036,0,0,0,.86,2.074.386.386,0,0,1-.023.382l-2.472,3.826a2.131,2.131,0,0,0,.283,2.667l4.791,4.792a2.135,2.135,0,0,0,2.668.283l3.824-2.473a.393.393,0,0,1,.383-.023,19.855,19.855,0,0,0,2.074.861.392.392,0,0,1,.255.288l.957,4.451a2.134,2.134,0,0,0,2.087,1.686h6.775a2.136,2.136,0,0,0,2.087-1.685l.958-4.449A.391.391,0,0,1,1398.688,1161.078Zm-1.411-.389-.968,4.5a.392.392,0,0,1-.383.309h-6.855a.389.389,0,0,1-.381-.308l-.971-4.515a2.131,2.131,0,0,0-1.38-1.563,18.866,18.866,0,0,1-1.925-.8,2.173,2.173,0,0,0-.94-.22,2.127,2.127,0,0,0-1.162.352l-3.869,2.5a.392.392,0,0,1-.489-.052l-4.848-4.848a.391.391,0,0,1-.052-.49l2.506-3.877a2.121,2.121,0,0,0,.134-2.074,19.163,19.163,0,0,1-.813-1.958,2.122,2.122,0,0,0-1.561-1.369l-4.512-.969a.39.39,0,0,1-.308-.381v-6.86a.39.39,0,0,1,.308-.381l4.512-.969a2.123,2.123,0,0,0,1.563-1.373,18.154,18.154,0,0,1,.81-1.951,2.124,2.124,0,0,0-.133-2.077l-2.506-3.877a.391.391,0,0,1,.052-.49l4.848-4.848a.392.392,0,0,1,.489-.052l3.877,2.506a2.124,2.124,0,0,0,2.077.135,18.684,18.684,0,0,1,1.951-.81,2.124,2.124,0,0,0,1.371-1.563l.971-4.512a.389.389,0,0,1,.381-.308h6.856a.391.391,0,0,1,.382.308l.97,4.512a2.127,2.127,0,0,0,1.374,1.564,18.289,18.289,0,0,1,1.948.809,2.123,2.123,0,0,0,2.078-.133l3.876-2.506a.391.391,0,0,1,.49.052l4.848,4.848a.392.392,0,0,1,.052.49l-2.506,3.876a2.122,2.122,0,0,0-.135,2.074,19.182,19.182,0,0,1,.813,1.956,2.121,2.121,0,0,0,1.562,1.37l4.512.969a.39.39,0,0,1,.309.381v6.857a.39.39,0,0,1-.308.381l-4.512.969a2.122,2.122,0,0,0-1.563,1.374,18.307,18.307,0,0,1-.81,1.948,2.126,2.126,0,0,0,.133,2.078l2.506,3.876a.391.391,0,0,1-.052.49l-4.848,4.848a.389.389,0,0,1-.489.052l-3.877-2.506a2.134,2.134,0,0,0-2.088-.129,19.008,19.008,0,0,1-1.923.8,2.12,2.12,0,0,0-1.392,1.582Zm10.169-18.759a14.963,14.963,0,1,0-14.962,14.962,14.98,14.98,0,0,0,14.962-14.962Zm-14.962,13.22a13.22,13.22,0,1,1,13.219-13.22A13.234,13.234,0,0,1,1392.484,1155.15Zm-5.165,18.336a.87.87,0,0,1-.855.708.768.768,0,0,1-.164-.016,32.835,32.835,0,0,1-2.1-64.017l-2.483-1.55a.871.871,0,1,1,.922-1.478l4.282,2.672a.871.871,0,0,1,.278,1.2l-2.672,4.283a.872.872,0,0,1-.741.409.862.862,0,0,1-.46-.132.872.872,0,0,1-.278-1.2l1.567-2.513a31.09,31.09,0,0,0,2.009,60.611.876.876,0,0,1,.692,1.023Zm28.379-8.339a32.682,32.682,0,0,1-15.019,8.581l2.505,1.676a.872.872,0,0,1-.969,1.449l-4.195-2.805a.872.872,0,0,1-.24-1.209l2.806-4.195a.871.871,0,0,1,1.448.968l-1.591,2.378a31.092,31.092,0,0,0-2.1-60.588.871.871,0,1,1,.327-1.712,32.832,32.832,0,0,1,17.032,55.457Zm-13.733-28.391-11.581,11.581a.869.869,0,0,1-1.232,0l-6.149-6.149a.871.871,0,0,1,1.232-1.233l5.531,5.533,10.966-10.965a.872.872,0,0,1,1.233,1.233Z" transform="translate(-1359.404 -1106.748)" fill="#3d8fa0" stroke="#3d8fa0" stroke-width="0.5"/>
</svg>
